G04 #@! TF.GenerationSoftware,KiCad,Pcbnew,9.0.5*
G04 #@! TF.CreationDate,2025-12-23T11:29:20-06:00*
G04 #@! TF.ProjectId,MotorBoard,4d6f746f-7242-46f6-9172-642e6b696361,v7*
G04 #@! TF.SameCoordinates,Original*
G04 #@! TF.FileFunction,Soldermask,Bot*
G04 #@! TF.FilePolarity,Negative*
%FSLAX46Y46*%
G04 Gerber Fmt 4.6, Leading zero omitted, Abs format (unit mm)*
G04 Created by KiCad (PCBNEW 9.0.5) date 2025-12-23 11:29:20*
%MOMM*%
%LPD*%
G01*
G04 APERTURE LIST*
G04 Aperture macros list*
%AMRoundRect*
0 Rectangle with rounded corners*
0 $1 Rounding radius*
0 $2 $3 $4 $5 $6 $7 $8 $9 X,Y pos of 4 corners*
0 Add a 4 corners polygon primitive as box body*
4,1,4,$2,$3,$4,$5,$6,$7,$8,$9,$2,$3,0*
0 Add four circle primitives for the rounded corners*
1,1,$1+$1,$2,$3*
1,1,$1+$1,$4,$5*
1,1,$1+$1,$6,$7*
1,1,$1+$1,$8,$9*
0 Add four rect primitives between the rounded corners*
20,1,$1+$1,$2,$3,$4,$5,0*
20,1,$1+$1,$4,$5,$6,$7,0*
20,1,$1+$1,$6,$7,$8,$9,0*
20,1,$1+$1,$8,$9,$2,$3,0*%
G04 Aperture macros list end*
%ADD10R,1.700000X1.700000*%
%ADD11O,1.700000X1.700000*%
%ADD12C,1.700000*%
%ADD13RoundRect,0.250000X-1.330000X-1.850000X1.330000X-1.850000X1.330000X1.850000X-1.330000X1.850000X0*%
%ADD14O,3.160000X4.200000*%
%ADD15R,1.778000X1.778000*%
%ADD16C,1.778000*%
%ADD17C,4.318000*%
%ADD18C,1.100000*%
%ADD19R,1.650000X1.650000*%
%ADD20C,1.650000*%
%ADD21RoundRect,0.250000X1.330000X1.850000X-1.330000X1.850000X-1.330000X-1.850000X1.330000X-1.850000X0*%
%ADD22RoundRect,0.250000X-1.800000X1.330000X-1.800000X-1.330000X1.800000X-1.330000X1.800000X1.330000X0*%
%ADD23O,4.100000X3.160000*%
G04 APERTURE END LIST*
D10*
X75184000Y-36700000D03*
D11*
X75184000Y-39240000D03*
D12*
X57785000Y-117475000D03*
D11*
X60325000Y-117475000D03*
D13*
X87861000Y-39116000D03*
D14*
X91821000Y-39116000D03*
D10*
X145415000Y-78486000D03*
D11*
X145415000Y-75946000D03*
X145415000Y-73406000D03*
D12*
X130810000Y-35433000D03*
D11*
X133350000Y-35433000D03*
D12*
X95885000Y-113157000D03*
D15*
X108204000Y-110617000D03*
D16*
X110744000Y-110617000D03*
X113284000Y-110617000D03*
X115824000Y-110617000D03*
D15*
X108204000Y-108077000D03*
D16*
X110744000Y-108077000D03*
X113284000Y-108077000D03*
X115824000Y-108077000D03*
D10*
X123190000Y-38735000D03*
D11*
X120650000Y-38735000D03*
X118110000Y-38735000D03*
X115570000Y-38735000D03*
X115570000Y-41275000D03*
X118110000Y-41275000D03*
X120650000Y-41275000D03*
X123190000Y-41275000D03*
D10*
X145415000Y-99949000D03*
D11*
X145415000Y-97409000D03*
D12*
X138557000Y-93091000D03*
X51557000Y-117475000D03*
D11*
X54097000Y-117475000D03*
D17*
X144000000Y-41000000D03*
X144000000Y-111000000D03*
X54000000Y-41000000D03*
D18*
X67310000Y-34798000D03*
X64770000Y-34798000D03*
D19*
X67310000Y-37338000D03*
D20*
X64770000Y-37338000D03*
D12*
X128524000Y-117475000D03*
D11*
X131064000Y-117475000D03*
D17*
X54000000Y-111000000D03*
D21*
X92075000Y-113157000D03*
D14*
X88115000Y-113157000D03*
D18*
X64770000Y-117475000D03*
X67310000Y-117475000D03*
D19*
X64770000Y-114935000D03*
D20*
X67310000Y-114935000D03*
D12*
X84201000Y-113157000D03*
D10*
X52070000Y-81021000D03*
D11*
X52070000Y-83561000D03*
D12*
X136525000Y-117475000D03*
D11*
X139065000Y-117475000D03*
D10*
X145415000Y-52070000D03*
D11*
X145415000Y-49530000D03*
D12*
X81026000Y-116586000D03*
X141097000Y-78486000D03*
X95631000Y-39116000D03*
D10*
X51430000Y-104140000D03*
D11*
X53970000Y-104140000D03*
D12*
X83947000Y-39116000D03*
D10*
X73025000Y-110490000D03*
D11*
X73025000Y-113030000D03*
X73025000Y-115570000D03*
D10*
X145415000Y-87630000D03*
D11*
X145415000Y-85090000D03*
D22*
X56769000Y-91313000D03*
D23*
X56769000Y-95273000D03*
M02*
