G04 #@! TF.GenerationSoftware,KiCad,Pcbnew,9.0.5*
G04 #@! TF.CreationDate,2025-12-23T11:29:20-06:00*
G04 #@! TF.ProjectId,MotorBoard,4d6f746f-7242-46f6-9172-642e6b696361,v7*
G04 #@! TF.SameCoordinates,Original*
G04 #@! TF.FileFunction,Copper,L2,Bot*
G04 #@! TF.FilePolarity,Positive*
%FSLAX46Y46*%
G04 Gerber Fmt 4.6, Leading zero omitted, Abs format (unit mm)*
G04 Created by KiCad (PCBNEW 9.0.5) date 2025-12-23 11:29:20*
%MOMM*%
%LPD*%
G01*
G04 APERTURE LIST*
G04 Aperture macros list*
%AMRoundRect*
0 Rectangle with rounded corners*
0 $1 Rounding radius*
0 $2 $3 $4 $5 $6 $7 $8 $9 X,Y pos of 4 corners*
0 Add a 4 corners polygon primitive as box body*
4,1,4,$2,$3,$4,$5,$6,$7,$8,$9,$2,$3,0*
0 Add four circle primitives for the rounded corners*
1,1,$1+$1,$2,$3*
1,1,$1+$1,$4,$5*
1,1,$1+$1,$6,$7*
1,1,$1+$1,$8,$9*
0 Add four rect primitives between the rounded corners*
20,1,$1+$1,$2,$3,$4,$5,0*
20,1,$1+$1,$4,$5,$6,$7,0*
20,1,$1+$1,$6,$7,$8,$9,0*
20,1,$1+$1,$8,$9,$2,$3,0*%
G04 Aperture macros list end*
G04 #@! TA.AperFunction,ComponentPad*
%ADD10R,1.700000X1.700000*%
G04 #@! TD*
G04 #@! TA.AperFunction,ComponentPad*
%ADD11O,1.700000X1.700000*%
G04 #@! TD*
G04 #@! TA.AperFunction,ComponentPad*
%ADD12C,1.700000*%
G04 #@! TD*
G04 #@! TA.AperFunction,ComponentPad*
%ADD13RoundRect,0.250000X-1.330000X-1.850000X1.330000X-1.850000X1.330000X1.850000X-1.330000X1.850000X0*%
G04 #@! TD*
G04 #@! TA.AperFunction,ComponentPad*
%ADD14O,3.160000X4.200000*%
G04 #@! TD*
G04 #@! TA.AperFunction,ComponentPad*
%ADD15R,1.778000X1.778000*%
G04 #@! TD*
G04 #@! TA.AperFunction,ComponentPad*
%ADD16C,1.778000*%
G04 #@! TD*
G04 #@! TA.AperFunction,ComponentPad*
%ADD17C,4.318000*%
G04 #@! TD*
G04 #@! TA.AperFunction,ComponentPad*
%ADD18R,1.650000X1.650000*%
G04 #@! TD*
G04 #@! TA.AperFunction,ComponentPad*
%ADD19C,1.650000*%
G04 #@! TD*
G04 #@! TA.AperFunction,ComponentPad*
%ADD20RoundRect,0.250000X1.330000X1.850000X-1.330000X1.850000X-1.330000X-1.850000X1.330000X-1.850000X0*%
G04 #@! TD*
G04 #@! TA.AperFunction,ComponentPad*
%ADD21RoundRect,0.250000X-1.800000X1.330000X-1.800000X-1.330000X1.800000X-1.330000X1.800000X1.330000X0*%
G04 #@! TD*
G04 #@! TA.AperFunction,ComponentPad*
%ADD22O,4.100000X3.160000*%
G04 #@! TD*
G04 #@! TA.AperFunction,ViaPad*
%ADD23C,0.800000*%
G04 #@! TD*
G04 #@! TA.AperFunction,ViaPad*
%ADD24C,2.540000*%
G04 #@! TD*
G04 #@! TA.AperFunction,Conductor*
%ADD25C,1.000000*%
G04 #@! TD*
G04 #@! TA.AperFunction,Conductor*
%ADD26C,0.500000*%
G04 #@! TD*
G04 #@! TA.AperFunction,Conductor*
%ADD27C,0.200000*%
G04 #@! TD*
G04 #@! TA.AperFunction,Conductor*
%ADD28C,0.150000*%
G04 #@! TD*
G04 APERTURE END LIST*
D10*
X75184000Y-36700000D03*
D11*
X75184000Y-39240000D03*
D12*
X57785000Y-117475000D03*
D11*
X60325000Y-117475000D03*
D13*
X87861000Y-39116000D03*
D14*
X91821000Y-39116000D03*
D10*
X145415000Y-78486000D03*
D11*
X145415000Y-75946000D03*
X145415000Y-73406000D03*
D12*
X130810000Y-35433000D03*
D11*
X133350000Y-35433000D03*
D12*
X95885000Y-113157000D03*
D15*
X108204000Y-110617000D03*
D16*
X110744000Y-110617000D03*
X113284000Y-110617000D03*
X115824000Y-110617000D03*
D15*
X108204000Y-108077000D03*
D16*
X110744000Y-108077000D03*
X113284000Y-108077000D03*
X115824000Y-108077000D03*
D10*
X123190000Y-38735000D03*
D11*
X120650000Y-38735000D03*
X118110000Y-38735000D03*
X115570000Y-38735000D03*
X115570000Y-41275000D03*
X118110000Y-41275000D03*
X120650000Y-41275000D03*
X123190000Y-41275000D03*
D10*
X145415000Y-99949000D03*
D11*
X145415000Y-97409000D03*
D12*
X138557000Y-93091000D03*
X51557000Y-117475000D03*
D11*
X54097000Y-117475000D03*
D17*
X144000000Y-41000000D03*
X144000000Y-111000000D03*
X54000000Y-41000000D03*
D18*
X67310000Y-37338000D03*
D19*
X64770000Y-37338000D03*
D12*
X128524000Y-117475000D03*
D11*
X131064000Y-117475000D03*
D17*
X54000000Y-111000000D03*
D20*
X92075000Y-113157000D03*
D14*
X88115000Y-113157000D03*
D18*
X64770000Y-114935000D03*
D19*
X67310000Y-114935000D03*
D12*
X84201000Y-113157000D03*
D10*
X52070000Y-81021000D03*
D11*
X52070000Y-83561000D03*
D12*
X136525000Y-117475000D03*
D11*
X139065000Y-117475000D03*
D10*
X145415000Y-52070000D03*
D11*
X145415000Y-49530000D03*
D12*
X81026000Y-116586000D03*
X141097000Y-78486000D03*
X95631000Y-39116000D03*
D10*
X51430000Y-104140000D03*
D11*
X53970000Y-104140000D03*
D12*
X83947000Y-39116000D03*
D10*
X73025000Y-110490000D03*
D11*
X73025000Y-113030000D03*
X73025000Y-115570000D03*
D10*
X145415000Y-87630000D03*
D11*
X145415000Y-85090000D03*
D21*
X56769000Y-91313000D03*
D22*
X56769000Y-95273000D03*
D23*
X134747000Y-109982000D03*
X81280000Y-48514000D03*
X67564000Y-108712000D03*
D24*
X115951000Y-76426000D03*
D23*
X75565000Y-76327000D03*
X73152000Y-45720000D03*
X113792000Y-96438000D03*
D24*
X77089000Y-66929000D03*
X63754000Y-66675000D03*
D23*
X65913000Y-48260000D03*
X121076000Y-55581000D03*
X83947000Y-91440000D03*
X60325000Y-100330000D03*
X78613000Y-98171000D03*
X126619000Y-84836000D03*
X65024000Y-100330000D03*
X130429000Y-41275000D03*
X85725000Y-79375000D03*
X126492000Y-106807000D03*
X72390000Y-33528000D03*
X70739000Y-43053000D03*
X107061000Y-97790000D03*
X97917000Y-97790000D03*
X95123000Y-59563000D03*
X99441000Y-90043000D03*
X110363000Y-71501000D03*
X110363000Y-59690000D03*
X67564000Y-59690000D03*
X74041000Y-106045000D03*
X81661000Y-78105000D03*
X92456000Y-63754000D03*
X92456000Y-81026000D03*
X138430000Y-65024000D03*
X138303000Y-84074000D03*
X101600000Y-111379000D03*
X109728000Y-114300000D03*
X101600000Y-102997000D03*
X104140000Y-102997000D03*
X108839000Y-65024000D03*
X116459000Y-44958000D03*
X94107000Y-65024000D03*
X93980000Y-80899000D03*
X96266000Y-65786000D03*
X111633000Y-65659000D03*
X96012000Y-80899000D03*
X132969000Y-65532000D03*
X132842000Y-67691000D03*
X97155000Y-67691000D03*
X97028000Y-80772000D03*
X104267000Y-87249000D03*
X104267000Y-91186000D03*
X116459000Y-59944000D03*
X116459000Y-62484000D03*
X113030000Y-60452000D03*
X120396000Y-82169000D03*
X89154000Y-66675000D03*
X88900000Y-59563000D03*
X110998000Y-104267000D03*
X126365000Y-52832000D03*
X72517000Y-96012000D03*
X64643000Y-54864000D03*
X69088000Y-54864000D03*
X113284000Y-40132000D03*
X75184000Y-89281000D03*
X70104000Y-112776000D03*
D25*
X84709000Y-87376000D02*
X84709000Y-80391000D01*
D26*
X60325000Y-100330000D02*
X65024000Y-100330000D01*
X72390000Y-33655000D02*
X70739000Y-35306000D01*
X72390000Y-33655000D02*
X72390000Y-33528000D01*
D25*
X126619000Y-84836000D02*
X130429000Y-81026000D01*
X126619000Y-106680000D02*
X126492000Y-106807000D01*
X126619000Y-84836000D02*
X126619000Y-106680000D01*
X84709000Y-80391000D02*
X85725000Y-79375000D01*
X78613000Y-93472000D02*
X84709000Y-87376000D01*
X130429000Y-81026000D02*
X130429000Y-41275000D01*
X78613000Y-98171000D02*
X78613000Y-93472000D01*
D26*
X70739000Y-35306000D02*
X70739000Y-43053000D01*
D27*
X97917000Y-97790000D02*
X107061000Y-97790000D01*
D28*
X97663000Y-88265000D02*
X96012000Y-88265000D01*
X99441000Y-90043000D02*
X97663000Y-88265000D01*
X96012000Y-88265000D02*
X95123000Y-87376000D01*
X95123000Y-87376000D02*
X95123000Y-59563000D01*
D27*
X110363000Y-59690000D02*
X110363000Y-71501000D01*
D26*
X84074000Y-75692000D02*
X86106000Y-75692000D01*
X86106000Y-75692000D02*
X86995000Y-74803000D01*
D25*
X81661000Y-88519000D02*
X81661000Y-78105000D01*
X74041000Y-106045000D02*
X74041000Y-96139000D01*
D26*
X81661000Y-78105000D02*
X84074000Y-75692000D01*
X86995000Y-61468000D02*
X86233000Y-60706000D01*
X86233000Y-60706000D02*
X68580000Y-60706000D01*
X86995000Y-74803000D02*
X86995000Y-61468000D01*
D25*
X74041000Y-96139000D02*
X81661000Y-88519000D01*
D26*
X68580000Y-60706000D02*
X67564000Y-59690000D01*
D28*
X92456000Y-81026000D02*
X92456000Y-63754000D01*
D27*
X138303000Y-65151000D02*
X138430000Y-65024000D01*
X138303000Y-84074000D02*
X138303000Y-65151000D01*
D28*
X113284000Y-110617000D02*
X109728000Y-114173000D01*
X101600000Y-102997000D02*
X101600000Y-111379000D01*
X109728000Y-114173000D02*
X109728000Y-114300000D01*
X115824000Y-114427000D02*
X115824000Y-110617000D01*
X105918000Y-115824000D02*
X114427000Y-115824000D01*
X114427000Y-115824000D02*
X115824000Y-114427000D01*
X104140000Y-114046000D02*
X105918000Y-115824000D01*
X104140000Y-102997000D02*
X104140000Y-114046000D01*
X93980000Y-65151000D02*
X94107000Y-65024000D01*
X93980000Y-80899000D02*
X93980000Y-65151000D01*
X108839000Y-65024000D02*
X108839000Y-52578000D01*
X108839000Y-52578000D02*
X116459000Y-44958000D01*
X112014000Y-51054000D02*
X117475000Y-45593000D01*
X117475000Y-43942000D02*
X117094000Y-43561000D01*
X117094000Y-43561000D02*
X115824000Y-43561000D01*
X112014000Y-65278000D02*
X112014000Y-51054000D01*
X111633000Y-65659000D02*
X112014000Y-65278000D01*
X96012000Y-66040000D02*
X96266000Y-65786000D01*
X96012000Y-80899000D02*
X96012000Y-66040000D01*
X115570000Y-43307000D02*
X115570000Y-41275000D01*
X115824000Y-43561000D02*
X115570000Y-43307000D01*
X117475000Y-45593000D02*
X117475000Y-43942000D01*
X132842000Y-67691000D02*
X132842000Y-65786000D01*
X132842000Y-65786000D02*
X132715000Y-65659000D01*
X123190000Y-38735000D02*
X123571000Y-38735000D01*
X97155000Y-80645000D02*
X97155000Y-67691000D01*
X132715000Y-65659000D02*
X132842000Y-65659000D01*
X132842000Y-65659000D02*
X132969000Y-65532000D01*
X97028000Y-80772000D02*
X97155000Y-80645000D01*
X104267000Y-91186000D02*
X104267000Y-87249000D01*
X116459000Y-62484000D02*
X116459000Y-59944000D01*
X120396000Y-74676000D02*
X120396000Y-82169000D01*
X113030000Y-67310000D02*
X120396000Y-74676000D01*
X113030000Y-60452000D02*
X113030000Y-67310000D01*
X88900000Y-59563000D02*
X88900000Y-66421000D01*
X88900000Y-66421000D02*
X89154000Y-66675000D01*
D25*
X126365000Y-59563000D02*
X126365000Y-52832000D01*
X111125000Y-104394000D02*
X122047000Y-104394000D01*
X123444000Y-62484000D02*
X126365000Y-59563000D01*
X110998000Y-104267000D02*
X111125000Y-104394000D01*
X123444000Y-102997000D02*
X123444000Y-62484000D01*
X122047000Y-104394000D02*
X123444000Y-102997000D01*
X73025000Y-110490000D02*
X73025000Y-109220000D01*
X72517000Y-96012000D02*
X72517000Y-107188000D01*
X72517000Y-107188000D02*
X72517000Y-108712000D01*
X73025000Y-109220000D02*
X72517000Y-108712000D01*
D28*
X69088000Y-54864000D02*
X64643000Y-54864000D01*
D26*
X75184000Y-39621000D02*
X75184000Y-39240000D01*
D28*
X116967000Y-40132000D02*
X113284000Y-40132000D01*
X118110000Y-41275000D02*
X116967000Y-40132000D01*
D25*
X70104000Y-93980000D02*
X74803000Y-89281000D01*
X70104000Y-112776000D02*
X70104000Y-93980000D01*
X74803000Y-89281000D02*
X75184000Y-89281000D01*
G04 #@! TA.AperFunction,Conductor*
G36*
X111887191Y-108866639D02*
G01*
X111887191Y-108866638D01*
X111913372Y-108830605D01*
X111968702Y-108787939D01*
X112038315Y-108781960D01*
X112100110Y-108814565D01*
X112114008Y-108830605D01*
X112224142Y-108982192D01*
X112224146Y-108982197D01*
X112378806Y-109136857D01*
X112529969Y-109246682D01*
X112572635Y-109302011D01*
X112578614Y-109371625D01*
X112546009Y-109433420D01*
X112529969Y-109447318D01*
X112378806Y-109557142D01*
X112224142Y-109711806D01*
X112114318Y-109862969D01*
X112058989Y-109905635D01*
X111989375Y-109911614D01*
X111927580Y-109879009D01*
X111913682Y-109862969D01*
X111803857Y-109711806D01*
X111649197Y-109557146D01*
X111649192Y-109557142D01*
X111497605Y-109447008D01*
X111454939Y-109391678D01*
X111448960Y-109322065D01*
X111481565Y-109260270D01*
X111497605Y-109246372D01*
X111533638Y-109220191D01*
X111533639Y-109220191D01*
X110879942Y-108566495D01*
X110940081Y-108550381D01*
X111055920Y-108483502D01*
X111150502Y-108388920D01*
X111217381Y-108273081D01*
X111233495Y-108212942D01*
X111887191Y-108866639D01*
G37*
G04 #@! TD.AperFunction*
G04 #@! TA.AperFunction,Conductor*
G36*
X110270619Y-108273081D02*
G01*
X110337498Y-108388920D01*
X110432080Y-108483502D01*
X110547919Y-108550381D01*
X110608057Y-108566494D01*
X109954360Y-109220191D01*
X109954360Y-109220192D01*
X109990394Y-109246372D01*
X110033060Y-109301701D01*
X110039039Y-109371315D01*
X110006434Y-109433110D01*
X109990394Y-109447008D01*
X109838808Y-109557141D01*
X109774302Y-109621647D01*
X109750495Y-109634645D01*
X109728593Y-109650646D01*
X109720282Y-109651142D01*
X109712978Y-109655131D01*
X109685929Y-109653196D01*
X109658848Y-109654815D01*
X109651587Y-109650739D01*
X109643287Y-109650146D01*
X109621575Y-109633893D01*
X109597920Y-109620615D01*
X109592567Y-109612178D01*
X109587353Y-109608275D01*
X109577101Y-109592115D01*
X109478052Y-109405566D01*
X109472878Y-109380366D01*
X109463888Y-109356263D01*
X109465967Y-109346705D01*
X109464000Y-109337124D01*
X109473271Y-109313126D01*
X109478740Y-109287990D01*
X109488300Y-109273112D01*
X109536796Y-109208331D01*
X109587091Y-109073483D01*
X109593500Y-109013873D01*
X109593499Y-108925305D01*
X109613183Y-108858270D01*
X109629818Y-108837627D01*
X110254504Y-108212941D01*
X110270619Y-108273081D01*
G37*
G04 #@! TD.AperFunction*
G04 #@! TA.AperFunction,Conductor*
G36*
X71506980Y-33040185D02*
G01*
X71552735Y-33092989D01*
X71562679Y-33162147D01*
X71554503Y-33191946D01*
X71528871Y-33253829D01*
X71524105Y-33265336D01*
X71524103Y-33265341D01*
X71489500Y-33439304D01*
X71489500Y-33442769D01*
X71488986Y-33444516D01*
X71488903Y-33445369D01*
X71488741Y-33445353D01*
X71469815Y-33509808D01*
X71453181Y-33530450D01*
X70156050Y-34827580D01*
X70156044Y-34827588D01*
X70106812Y-34901268D01*
X70106813Y-34901269D01*
X70073921Y-34950496D01*
X70073914Y-34950508D01*
X70017342Y-35087086D01*
X70017340Y-35087092D01*
X69988500Y-35232079D01*
X69988500Y-42517729D01*
X69968815Y-42584768D01*
X69967602Y-42586620D01*
X69940988Y-42626449D01*
X69940987Y-42626452D01*
X69873106Y-42790332D01*
X69873103Y-42790341D01*
X69838500Y-42964304D01*
X69838500Y-43141695D01*
X69873103Y-43315658D01*
X69873106Y-43315667D01*
X69940983Y-43479540D01*
X69940990Y-43479553D01*
X70039535Y-43627034D01*
X70039538Y-43627038D01*
X70164961Y-43752461D01*
X70164965Y-43752464D01*
X70312446Y-43851009D01*
X70312459Y-43851016D01*
X70435363Y-43901923D01*
X70476334Y-43918894D01*
X70476336Y-43918894D01*
X70476341Y-43918896D01*
X70650304Y-43953499D01*
X70650307Y-43953500D01*
X70650309Y-43953500D01*
X70827693Y-43953500D01*
X70827694Y-43953499D01*
X70885682Y-43941964D01*
X71001658Y-43918896D01*
X71001661Y-43918894D01*
X71001666Y-43918894D01*
X71165547Y-43851013D01*
X71313035Y-43752464D01*
X71438464Y-43627035D01*
X71537013Y-43479547D01*
X71604894Y-43315666D01*
X71639500Y-43141691D01*
X71639500Y-42964309D01*
X71639500Y-42964306D01*
X71639499Y-42964304D01*
X71604896Y-42790341D01*
X71604893Y-42790332D01*
X71598515Y-42774934D01*
X71537013Y-42626453D01*
X71537011Y-42626451D01*
X71537011Y-42626449D01*
X71510398Y-42586620D01*
X71489520Y-42519942D01*
X71489500Y-42517729D01*
X71489500Y-35802135D01*
X73833500Y-35802135D01*
X73833500Y-37597870D01*
X73833501Y-37597876D01*
X73839908Y-37657483D01*
X73890202Y-37792328D01*
X73890206Y-37792335D01*
X73976452Y-37907544D01*
X73976455Y-37907547D01*
X74091664Y-37993793D01*
X74091671Y-37993797D01*
X74223082Y-38042810D01*
X74279016Y-38084681D01*
X74303433Y-38150145D01*
X74288582Y-38218418D01*
X74267431Y-38246673D01*
X74153889Y-38360215D01*
X74028951Y-38532179D01*
X73932444Y-38721585D01*
X73866753Y-38923760D01*
X73846580Y-39051129D01*
X73833500Y-39133713D01*
X73833500Y-39346287D01*
X73837339Y-39370524D01*
X73865835Y-39550444D01*
X73866754Y-39556243D01*
X73917208Y-39711525D01*
X73932444Y-39758414D01*
X74028951Y-39947820D01*
X74153890Y-40119786D01*
X74304213Y-40270109D01*
X74476179Y-40395048D01*
X74476181Y-40395049D01*
X74476184Y-40395051D01*
X74665588Y-40491557D01*
X74867757Y-40557246D01*
X75077713Y-40590500D01*
X75077714Y-40590500D01*
X75290286Y-40590500D01*
X75290287Y-40590500D01*
X75500243Y-40557246D01*
X75702412Y-40491557D01*
X75891816Y-40395051D01*
X75929661Y-40367555D01*
X76063786Y-40270109D01*
X76063788Y-40270106D01*
X76063792Y-40270104D01*
X76214104Y-40119792D01*
X76214106Y-40119788D01*
X76214109Y-40119786D01*
X76339048Y-39947820D01*
X76339047Y-39947820D01*
X76339051Y-39947816D01*
X76435557Y-39758412D01*
X76501246Y-39556243D01*
X76534500Y-39346287D01*
X76534500Y-39133713D01*
X76514860Y-39009713D01*
X82596500Y-39009713D01*
X82596500Y-39222286D01*
X82621995Y-39383259D01*
X82629754Y-39432243D01*
X82694946Y-39632883D01*
X82695444Y-39634414D01*
X82791951Y-39823820D01*
X82916890Y-39995786D01*
X83067213Y-40146109D01*
X83239179Y-40271048D01*
X83239181Y-40271049D01*
X83239184Y-40271051D01*
X83428588Y-40367557D01*
X83630757Y-40433246D01*
X83840713Y-40466500D01*
X83840714Y-40466500D01*
X84053286Y-40466500D01*
X84053287Y-40466500D01*
X84263243Y-40433246D01*
X84465412Y-40367557D01*
X84654816Y-40271051D01*
X84724131Y-40220691D01*
X84826786Y-40146109D01*
X84826788Y-40146106D01*
X84826792Y-40146104D01*
X84977104Y-39995792D01*
X84977106Y-39995788D01*
X84977109Y-39995786D01*
X85102048Y-39823820D01*
X85102047Y-39823820D01*
X85102051Y-39823816D01*
X85198557Y-39634412D01*
X85264246Y-39432243D01*
X85297500Y-39222287D01*
X85297500Y-39009713D01*
X85264246Y-38799757D01*
X85198557Y-38597588D01*
X85102051Y-38408184D01*
X85102049Y-38408181D01*
X85102048Y-38408179D01*
X84977109Y-38236213D01*
X84826786Y-38085890D01*
X84654820Y-37960951D01*
X84465414Y-37864444D01*
X84465413Y-37864443D01*
X84465412Y-37864443D01*
X84263243Y-37798754D01*
X84263241Y-37798753D01*
X84263240Y-37798753D01*
X84101957Y-37773208D01*
X84053287Y-37765500D01*
X83840713Y-37765500D01*
X83792042Y-37773208D01*
X83630760Y-37798753D01*
X83630757Y-37798754D01*
X83455989Y-37855540D01*
X83428585Y-37864444D01*
X83239179Y-37960951D01*
X83067213Y-38085890D01*
X82916890Y-38236213D01*
X82791951Y-38408179D01*
X82695444Y-38597585D01*
X82629753Y-38799760D01*
X82596500Y-39009713D01*
X76514860Y-39009713D01*
X76501246Y-38923757D01*
X76435557Y-38721588D01*
X76339051Y-38532184D01*
X76339049Y-38532181D01*
X76339048Y-38532179D01*
X76214109Y-38360213D01*
X76100569Y-38246673D01*
X76067084Y-38185350D01*
X76072068Y-38115658D01*
X76113940Y-38059725D01*
X76144915Y-38042810D01*
X76276331Y-37993796D01*
X76391546Y-37907546D01*
X76477796Y-37792331D01*
X76528091Y-37657483D01*
X76534500Y-37597873D01*
X76534500Y-37215983D01*
X85780500Y-37215983D01*
X85780500Y-41016001D01*
X85780501Y-41016018D01*
X85791000Y-41118796D01*
X85791001Y-41118799D01*
X85846185Y-41285331D01*
X85846186Y-41285334D01*
X85938288Y-41434656D01*
X86062344Y-41558712D01*
X86211666Y-41650814D01*
X86378203Y-41705999D01*
X86480991Y-41716500D01*
X89241008Y-41716499D01*
X89343797Y-41705999D01*
X89510334Y-41650814D01*
X89659656Y-41558712D01*
X89783712Y-41434656D01*
X89875814Y-41285334D01*
X89930999Y-41118797D01*
X89941500Y-41016009D01*
X89941499Y-40969472D01*
X89961182Y-40902437D01*
X90013985Y-40856681D01*
X90083144Y-40846736D01*
X90146700Y-40875759D01*
X90163875Y-40893988D01*
X90253439Y-41010710D01*
X90253445Y-41010717D01*
X90446282Y-41203554D01*
X90446289Y-41203560D01*
X90662656Y-41369584D01*
X90898840Y-41505945D01*
X90898855Y-41505952D01*
X91026225Y-41558710D01*
X91150810Y-41610315D01*
X91414244Y-41680902D01*
X91684637Y-41716500D01*
X91684644Y-41716500D01*
X91957356Y-41716500D01*
X91957363Y-41716500D01*
X92227756Y-41680902D01*
X92491190Y-41610315D01*
X92743156Y-41505947D01*
X92979344Y-41369584D01*
X93195712Y-41203559D01*
X93388559Y-41010712D01*
X93554584Y-40794344D01*
X93690947Y-40558156D01*
X93795315Y-40306190D01*
X93865902Y-40042756D01*
X93901500Y-39772363D01*
X93901500Y-39009713D01*
X94280500Y-39009713D01*
X94280500Y-39222286D01*
X94305995Y-39383259D01*
X94313754Y-39432243D01*
X94378946Y-39632883D01*
X94379444Y-39634414D01*
X94475951Y-39823820D01*
X94600890Y-39995786D01*
X94751213Y-40146109D01*
X94923179Y-40271048D01*
X94923181Y-40271049D01*
X94923184Y-40271051D01*
X95112588Y-40367557D01*
X95314757Y-40433246D01*
X95524713Y-40466500D01*
X95524714Y-40466500D01*
X95737286Y-40466500D01*
X95737287Y-40466500D01*
X95947243Y-40433246D01*
X96149412Y-40367557D01*
X96338816Y-40271051D01*
X96408131Y-40220691D01*
X96510786Y-40146109D01*
X96510788Y-40146106D01*
X96510792Y-40146104D01*
X96661104Y-39995792D01*
X96661106Y-39995788D01*
X96661109Y-39995786D01*
X96786048Y-39823820D01*
X96786047Y-39823820D01*
X96786051Y-39823816D01*
X96882557Y-39634412D01*
X96948246Y-39432243D01*
X96981500Y-39222287D01*
X96981500Y-39009713D01*
X96948246Y-38799757D01*
X96882557Y-38597588D01*
X96786051Y-38408184D01*
X96786049Y-38408181D01*
X96786048Y-38408179D01*
X96661109Y-38236213D01*
X96510786Y-38085890D01*
X96338820Y-37960951D01*
X96149414Y-37864444D01*
X96149413Y-37864443D01*
X96149412Y-37864443D01*
X95947243Y-37798754D01*
X95947241Y-37798753D01*
X95947240Y-37798753D01*
X95785957Y-37773208D01*
X95737287Y-37765500D01*
X95524713Y-37765500D01*
X95476042Y-37773208D01*
X95314760Y-37798753D01*
X95314757Y-37798754D01*
X95139989Y-37855540D01*
X95112585Y-37864444D01*
X94923179Y-37960951D01*
X94751213Y-38085890D01*
X94600890Y-38236213D01*
X94475951Y-38408179D01*
X94379444Y-38597585D01*
X94313753Y-38799760D01*
X94280500Y-39009713D01*
X93901500Y-39009713D01*
X93901500Y-38459637D01*
X93865902Y-38189244D01*
X93795315Y-37925810D01*
X93733890Y-37777517D01*
X93690952Y-37673855D01*
X93690945Y-37673840D01*
X93554584Y-37437656D01*
X93388560Y-37221289D01*
X93388554Y-37221282D01*
X93195717Y-37028445D01*
X93195710Y-37028439D01*
X92979343Y-36862415D01*
X92743159Y-36726054D01*
X92743144Y-36726047D01*
X92539247Y-36641590D01*
X92491190Y-36621685D01*
X92491188Y-36621684D01*
X92491187Y-36621684D01*
X92487836Y-36620786D01*
X92487835Y-36620786D01*
X92227756Y-36551098D01*
X92227755Y-36551097D01*
X92227752Y-36551097D01*
X91957372Y-36515501D01*
X91957369Y-36515500D01*
X91957363Y-36515500D01*
X91684637Y-36515500D01*
X91684631Y-36515500D01*
X91684627Y-36515501D01*
X91414245Y-36551097D01*
X91150811Y-36621684D01*
X90898855Y-36726047D01*
X90898840Y-36726054D01*
X90662656Y-36862415D01*
X90446289Y-37028439D01*
X90446282Y-37028445D01*
X90253445Y-37221282D01*
X90253439Y-37221289D01*
X90163875Y-37338012D01*
X90107447Y-37379215D01*
X90037701Y-37383370D01*
X89976781Y-37349158D01*
X89944028Y-37287440D01*
X89941499Y-37262526D01*
X89941499Y-37215998D01*
X89941498Y-37215981D01*
X89930999Y-37113203D01*
X89930998Y-37113200D01*
X89902913Y-37028445D01*
X89875814Y-36946666D01*
X89783712Y-36797344D01*
X89659656Y-36673288D01*
X89520772Y-36587624D01*
X89510336Y-36581187D01*
X89510331Y-36581185D01*
X89508862Y-36580698D01*
X89343797Y-36526001D01*
X89343795Y-36526000D01*
X89241010Y-36515500D01*
X86480998Y-36515500D01*
X86480981Y-36515501D01*
X86378203Y-36526000D01*
X86378200Y-36526001D01*
X86211668Y-36581185D01*
X86211663Y-36581187D01*
X86062342Y-36673289D01*
X85938289Y-36797342D01*
X85846187Y-36946663D01*
X85846186Y-36946666D01*
X85791001Y-37113203D01*
X85791001Y-37113204D01*
X85791000Y-37113204D01*
X85780500Y-37215983D01*
X76534500Y-37215983D01*
X76534499Y-36684095D01*
X76534499Y-35802129D01*
X76534498Y-35802123D01*
X76534497Y-35802116D01*
X76528091Y-35742517D01*
X76484630Y-35625993D01*
X76477797Y-35607671D01*
X76477793Y-35607664D01*
X76426123Y-35538643D01*
X76391546Y-35492454D01*
X76276331Y-35406204D01*
X76276328Y-35406202D01*
X76141482Y-35355908D01*
X76141483Y-35355908D01*
X76081883Y-35349501D01*
X76081881Y-35349500D01*
X76081873Y-35349500D01*
X76081864Y-35349500D01*
X74286129Y-35349500D01*
X74286123Y-35349501D01*
X74226516Y-35355908D01*
X74091671Y-35406202D01*
X74091664Y-35406206D01*
X73976455Y-35492452D01*
X73976452Y-35492455D01*
X73890206Y-35607664D01*
X73890202Y-35607671D01*
X73839908Y-35742517D01*
X73835174Y-35786554D01*
X73833501Y-35802123D01*
X73833500Y-35802135D01*
X71489500Y-35802135D01*
X71489500Y-35668228D01*
X71509185Y-35601189D01*
X71525814Y-35580552D01*
X71779613Y-35326753D01*
X129460000Y-35326753D01*
X129460000Y-35539246D01*
X129493242Y-35749127D01*
X129493242Y-35749130D01*
X129558904Y-35951217D01*
X129655375Y-36140550D01*
X129694728Y-36194716D01*
X130327037Y-35562408D01*
X130344075Y-35625993D01*
X130409901Y-35740007D01*
X130502993Y-35833099D01*
X130617007Y-35898925D01*
X130680590Y-35915962D01*
X130048282Y-36548269D01*
X130048282Y-36548270D01*
X130102449Y-36587624D01*
X130291782Y-36684095D01*
X130493870Y-36749757D01*
X130703754Y-36783000D01*
X130916246Y-36783000D01*
X131126127Y-36749757D01*
X131126130Y-36749757D01*
X131328217Y-36684095D01*
X131517554Y-36587622D01*
X131571716Y-36548270D01*
X131571717Y-36548270D01*
X130939408Y-35915962D01*
X131002993Y-35898925D01*
X131117007Y-35833099D01*
X131210099Y-35740007D01*
X131275925Y-35625993D01*
X131292962Y-35562408D01*
X131925270Y-36194717D01*
X131925270Y-36194716D01*
X131964622Y-36140554D01*
X131969514Y-36130954D01*
X132017488Y-36080157D01*
X132085308Y-36063361D01*
X132151444Y-36085897D01*
X132190486Y-36130954D01*
X132195379Y-36140558D01*
X132320272Y-36312459D01*
X132320276Y-36312464D01*
X132470535Y-36462723D01*
X132470540Y-36462727D01*
X132642442Y-36587620D01*
X132831782Y-36684095D01*
X133033871Y-36749757D01*
X133100000Y-36760231D01*
X133100000Y-35866012D01*
X133157007Y-35898925D01*
X133284174Y-35933000D01*
X133415826Y-35933000D01*
X133542993Y-35898925D01*
X133600000Y-35866012D01*
X133600000Y-36760230D01*
X133666126Y-36749757D01*
X133666129Y-36749757D01*
X133868217Y-36684095D01*
X134057557Y-36587620D01*
X134229459Y-36462727D01*
X134229464Y-36462723D01*
X134379723Y-36312464D01*
X134379727Y-36312459D01*
X134504620Y-36140557D01*
X134601095Y-35951217D01*
X134666757Y-35749129D01*
X134666757Y-35749126D01*
X134677231Y-35683000D01*
X133783012Y-35683000D01*
X133815925Y-35625993D01*
X133850000Y-35498826D01*
X133850000Y-35367174D01*
X133815925Y-35240007D01*
X133783012Y-35183000D01*
X134677231Y-35183000D01*
X134666757Y-35116873D01*
X134666757Y-35116870D01*
X134601095Y-34914782D01*
X134504620Y-34725442D01*
X134379727Y-34553540D01*
X134379723Y-34553535D01*
X134229464Y-34403276D01*
X134229459Y-34403272D01*
X134057557Y-34278379D01*
X133868215Y-34181903D01*
X133666124Y-34116241D01*
X133600000Y-34105768D01*
X133600000Y-34999988D01*
X133542993Y-34967075D01*
X133415826Y-34933000D01*
X133284174Y-34933000D01*
X133157007Y-34967075D01*
X133100000Y-34999988D01*
X133100000Y-34105768D01*
X133099999Y-34105768D01*
X133033875Y-34116241D01*
X132831784Y-34181903D01*
X132642442Y-34278379D01*
X132470540Y-34403272D01*
X132470535Y-34403276D01*
X132320276Y-34553535D01*
X132320272Y-34553540D01*
X132195377Y-34725444D01*
X132190484Y-34735048D01*
X132142509Y-34785844D01*
X132074688Y-34802638D01*
X132008553Y-34780100D01*
X131969516Y-34735048D01*
X131964626Y-34725452D01*
X131925270Y-34671282D01*
X131925269Y-34671282D01*
X131292962Y-35303590D01*
X131275925Y-35240007D01*
X131210099Y-35125993D01*
X131117007Y-35032901D01*
X131002993Y-34967075D01*
X130939409Y-34950037D01*
X131571716Y-34317728D01*
X131517550Y-34278375D01*
X131328217Y-34181904D01*
X131126129Y-34116242D01*
X130916246Y-34083000D01*
X130703754Y-34083000D01*
X130493872Y-34116242D01*
X130493869Y-34116242D01*
X130291782Y-34181904D01*
X130102439Y-34278380D01*
X130048282Y-34317727D01*
X130048282Y-34317728D01*
X130680591Y-34950037D01*
X130617007Y-34967075D01*
X130502993Y-35032901D01*
X130409901Y-35125993D01*
X130344075Y-35240007D01*
X130327037Y-35303591D01*
X129694728Y-34671282D01*
X129694727Y-34671282D01*
X129655380Y-34725439D01*
X129558904Y-34914782D01*
X129493242Y-35116869D01*
X129493242Y-35116872D01*
X129460000Y-35326753D01*
X71779613Y-35326753D01*
X72737322Y-34369043D01*
X72777546Y-34342166D01*
X72816547Y-34326013D01*
X72964035Y-34227464D01*
X73089464Y-34102035D01*
X73188013Y-33954547D01*
X73255894Y-33790666D01*
X73290500Y-33616691D01*
X73290500Y-33439309D01*
X73290500Y-33439306D01*
X73290499Y-33439304D01*
X73255896Y-33265341D01*
X73255894Y-33265336D01*
X73255894Y-33265334D01*
X73225497Y-33191949D01*
X73218029Y-33122483D01*
X73249304Y-33060004D01*
X73309393Y-33024352D01*
X73340059Y-33020500D01*
X148345500Y-33020500D01*
X148412539Y-33040185D01*
X148458294Y-33092989D01*
X148469500Y-33144500D01*
X148469500Y-119255500D01*
X148449815Y-119322539D01*
X148397011Y-119368294D01*
X148345500Y-119379500D01*
X49654500Y-119379500D01*
X49587461Y-119359815D01*
X49541706Y-119307011D01*
X49530500Y-119255500D01*
X49530500Y-117368713D01*
X50206500Y-117368713D01*
X50206500Y-117581286D01*
X50239735Y-117791127D01*
X50239754Y-117791243D01*
X50303633Y-117987842D01*
X50305444Y-117993414D01*
X50401951Y-118182820D01*
X50526890Y-118354786D01*
X50677213Y-118505109D01*
X50849179Y-118630048D01*
X50849181Y-118630049D01*
X50849184Y-118630051D01*
X51038588Y-118726557D01*
X51240757Y-118792246D01*
X51450713Y-118825500D01*
X51450714Y-118825500D01*
X51663286Y-118825500D01*
X51663287Y-118825500D01*
X51873243Y-118792246D01*
X52075412Y-118726557D01*
X52264816Y-118630051D01*
X52319572Y-118590269D01*
X52436786Y-118505109D01*
X52436788Y-118505106D01*
X52436792Y-118505104D01*
X52587104Y-118354792D01*
X52587106Y-118354788D01*
X52587109Y-118354786D01*
X52712048Y-118182820D01*
X52712047Y-118182820D01*
X52712051Y-118182816D01*
X52716514Y-118174054D01*
X52764488Y-118123259D01*
X52832308Y-118106463D01*
X52898444Y-118128999D01*
X52937486Y-118174056D01*
X52941951Y-118182820D01*
X53066890Y-118354786D01*
X53217213Y-118505109D01*
X53389179Y-118630048D01*
X53389181Y-118630049D01*
X53389184Y-118630051D01*
X53578588Y-118726557D01*
X53780757Y-118792246D01*
X53990713Y-118825500D01*
X53990714Y-118825500D01*
X54203286Y-118825500D01*
X54203287Y-118825500D01*
X54413243Y-118792246D01*
X54615412Y-118726557D01*
X54804816Y-118630051D01*
X54859572Y-118590269D01*
X54976786Y-118505109D01*
X54976788Y-118505106D01*
X54976792Y-118505104D01*
X55127104Y-118354792D01*
X55127106Y-118354788D01*
X55127109Y-118354786D01*
X55252048Y-118182820D01*
X55252047Y-118182820D01*
X55252051Y-118182816D01*
X55348557Y-117993412D01*
X55414246Y-117791243D01*
X55447500Y-117581287D01*
X55447500Y-117368713D01*
X56434500Y-117368713D01*
X56434500Y-117581286D01*
X56467735Y-117791127D01*
X56467754Y-117791243D01*
X56531633Y-117987842D01*
X56533444Y-117993414D01*
X56629951Y-118182820D01*
X56754890Y-118354786D01*
X56905213Y-118505109D01*
X57077179Y-118630048D01*
X57077181Y-118630049D01*
X57077184Y-118630051D01*
X57266588Y-118726557D01*
X57468757Y-118792246D01*
X57678713Y-118825500D01*
X57678714Y-118825500D01*
X57891286Y-118825500D01*
X57891287Y-118825500D01*
X58101243Y-118792246D01*
X58303412Y-118726557D01*
X58492816Y-118630051D01*
X58547572Y-118590269D01*
X58664786Y-118505109D01*
X58664788Y-118505106D01*
X58664792Y-118505104D01*
X58815104Y-118354792D01*
X58815106Y-118354788D01*
X58815109Y-118354786D01*
X58940048Y-118182820D01*
X58940047Y-118182820D01*
X58940051Y-118182816D01*
X58944514Y-118174054D01*
X58992488Y-118123259D01*
X59060308Y-118106463D01*
X59126444Y-118128999D01*
X59165486Y-118174056D01*
X59169951Y-118182820D01*
X59294890Y-118354786D01*
X59445213Y-118505109D01*
X59617179Y-118630048D01*
X59617181Y-118630049D01*
X59617184Y-118630051D01*
X59806588Y-118726557D01*
X60008757Y-118792246D01*
X60218713Y-118825500D01*
X60218714Y-118825500D01*
X60431286Y-118825500D01*
X60431287Y-118825500D01*
X60641243Y-118792246D01*
X60843412Y-118726557D01*
X61032816Y-118630051D01*
X61087572Y-118590269D01*
X61204786Y-118505109D01*
X61204788Y-118505106D01*
X61204792Y-118505104D01*
X61355104Y-118354792D01*
X61355106Y-118354788D01*
X61355109Y-118354786D01*
X61480048Y-118182820D01*
X61480047Y-118182820D01*
X61480051Y-118182816D01*
X61576557Y-117993412D01*
X61642246Y-117791243D01*
X61675500Y-117581287D01*
X61675500Y-117395759D01*
X63965500Y-117395759D01*
X63965500Y-117554240D01*
X63996414Y-117709656D01*
X63996416Y-117709664D01*
X64057059Y-117856071D01*
X64057064Y-117856080D01*
X64145103Y-117987838D01*
X64145106Y-117987842D01*
X64257157Y-118099893D01*
X64257161Y-118099896D01*
X64388919Y-118187935D01*
X64388925Y-118187938D01*
X64388926Y-118187939D01*
X64535336Y-118248584D01*
X64690759Y-118279499D01*
X64690763Y-118279500D01*
X64690764Y-118279500D01*
X64849237Y-118279500D01*
X64849238Y-118279499D01*
X65004664Y-118248584D01*
X65151074Y-118187939D01*
X65282839Y-118099896D01*
X65394896Y-117987839D01*
X65482939Y-117856074D01*
X65543584Y-117709664D01*
X65574500Y-117554236D01*
X65574500Y-117395764D01*
X65574499Y-117395759D01*
X66505500Y-117395759D01*
X66505500Y-117554240D01*
X66536414Y-117709656D01*
X66536416Y-117709664D01*
X66597059Y-117856071D01*
X66597064Y-117856080D01*
X66685103Y-117987838D01*
X66685106Y-117987842D01*
X66797157Y-118099893D01*
X66797161Y-118099896D01*
X66928919Y-118187935D01*
X66928925Y-118187938D01*
X66928926Y-118187939D01*
X67075336Y-118248584D01*
X67230759Y-118279499D01*
X67230763Y-118279500D01*
X67230764Y-118279500D01*
X67389237Y-118279500D01*
X67389238Y-118279499D01*
X67544664Y-118248584D01*
X67691074Y-118187939D01*
X67822839Y-118099896D01*
X67934896Y-117987839D01*
X68022939Y-117856074D01*
X68083584Y-117709664D01*
X68114500Y-117554236D01*
X68114500Y-117395764D01*
X68083584Y-117240336D01*
X68027283Y-117104414D01*
X68022940Y-117093928D01*
X68022935Y-117093919D01*
X67934896Y-116962161D01*
X67934893Y-116962157D01*
X67822842Y-116850106D01*
X67822838Y-116850103D01*
X67691080Y-116762064D01*
X67691071Y-116762059D01*
X67544664Y-116701416D01*
X67544656Y-116701414D01*
X67389240Y-116670500D01*
X67389236Y-116670500D01*
X67230764Y-116670500D01*
X67230759Y-116670500D01*
X67075343Y-116701414D01*
X67075335Y-116701416D01*
X66928928Y-116762059D01*
X66928919Y-116762064D01*
X66797161Y-116850103D01*
X66797157Y-116850106D01*
X66685106Y-116962157D01*
X66685103Y-116962161D01*
X66597064Y-117093919D01*
X66597059Y-117093928D01*
X66536416Y-117240335D01*
X66536414Y-117240343D01*
X66505500Y-117395759D01*
X65574499Y-117395759D01*
X65543584Y-117240336D01*
X65487283Y-117104414D01*
X65482940Y-117093928D01*
X65482935Y-117093919D01*
X65394896Y-116962161D01*
X65394893Y-116962157D01*
X65282842Y-116850106D01*
X65282838Y-116850103D01*
X65151080Y-116762064D01*
X65151071Y-116762059D01*
X65004664Y-116701416D01*
X65004656Y-116701414D01*
X64849240Y-116670500D01*
X64849236Y-116670500D01*
X64690764Y-116670500D01*
X64690759Y-116670500D01*
X64535343Y-116701414D01*
X64535335Y-116701416D01*
X64388928Y-116762059D01*
X64388919Y-116762064D01*
X64257161Y-116850103D01*
X64257157Y-116850106D01*
X64145106Y-116962157D01*
X64145103Y-116962161D01*
X64057064Y-117093919D01*
X64057059Y-117093928D01*
X63996416Y-117240335D01*
X63996414Y-117240343D01*
X63965500Y-117395759D01*
X61675500Y-117395759D01*
X61675500Y-117368713D01*
X61642246Y-117158757D01*
X61576557Y-116956588D01*
X61480051Y-116767184D01*
X61480049Y-116767181D01*
X61480048Y-116767179D01*
X61355109Y-116595213D01*
X61204786Y-116444890D01*
X61032820Y-116319951D01*
X60843414Y-116223444D01*
X60843413Y-116223443D01*
X60843412Y-116223443D01*
X60641243Y-116157754D01*
X60641241Y-116157753D01*
X60641240Y-116157753D01*
X60479957Y-116132208D01*
X60431287Y-116124500D01*
X60218713Y-116124500D01*
X60170042Y-116132208D01*
X60008760Y-116157753D01*
X59806585Y-116223444D01*
X59617179Y-116319951D01*
X59445213Y-116444890D01*
X59294890Y-116595213D01*
X59169949Y-116767182D01*
X59165484Y-116775946D01*
X59117509Y-116826742D01*
X59049688Y-116843536D01*
X58983553Y-116820998D01*
X58944516Y-116775946D01*
X58940050Y-116767182D01*
X58815109Y-116595213D01*
X58664786Y-116444890D01*
X58492820Y-116319951D01*
X58303414Y-116223444D01*
X58303413Y-116223443D01*
X58303412Y-116223443D01*
X58101243Y-116157754D01*
X58101241Y-116157753D01*
X58101240Y-116157753D01*
X57939957Y-116132208D01*
X57891287Y-116124500D01*
X57678713Y-116124500D01*
X57630042Y-116132208D01*
X57468760Y-116157753D01*
X57266585Y-116223444D01*
X57077179Y-116319951D01*
X56905213Y-116444890D01*
X56754890Y-116595213D01*
X56629951Y-116767179D01*
X56533444Y-116956585D01*
X56467753Y-117158760D01*
X56434500Y-117368713D01*
X55447500Y-117368713D01*
X55414246Y-117158757D01*
X55348557Y-116956588D01*
X55252051Y-116767184D01*
X55252049Y-116767181D01*
X55252048Y-116767179D01*
X55127109Y-116595213D01*
X54976786Y-116444890D01*
X54804820Y-116319951D01*
X54615414Y-116223444D01*
X54615413Y-116223443D01*
X54615412Y-116223443D01*
X54413243Y-116157754D01*
X54413241Y-116157753D01*
X54413240Y-116157753D01*
X54251957Y-116132208D01*
X54203287Y-116124500D01*
X53990713Y-116124500D01*
X53942042Y-116132208D01*
X53780760Y-116157753D01*
X53578585Y-116223444D01*
X53389179Y-116319951D01*
X53217213Y-116444890D01*
X53066890Y-116595213D01*
X52941949Y-116767182D01*
X52937484Y-116775946D01*
X52889509Y-116826742D01*
X52821688Y-116843536D01*
X52755553Y-116820998D01*
X52716516Y-116775946D01*
X52712050Y-116767182D01*
X52587109Y-116595213D01*
X52436786Y-116444890D01*
X52264820Y-116319951D01*
X52075414Y-116223444D01*
X52075413Y-116223443D01*
X52075412Y-116223443D01*
X51873243Y-116157754D01*
X51873241Y-116157753D01*
X51873240Y-116157753D01*
X51711957Y-116132208D01*
X51663287Y-116124500D01*
X51450713Y-116124500D01*
X51402042Y-116132208D01*
X51240760Y-116157753D01*
X51038585Y-116223444D01*
X50849179Y-116319951D01*
X50677213Y-116444890D01*
X50526890Y-116595213D01*
X50401951Y-116767179D01*
X50305444Y-116956585D01*
X50239753Y-117158760D01*
X50206500Y-117368713D01*
X49530500Y-117368713D01*
X49530500Y-114062135D01*
X63444500Y-114062135D01*
X63444500Y-115807870D01*
X63444501Y-115807876D01*
X63450908Y-115867483D01*
X63501202Y-116002328D01*
X63501206Y-116002335D01*
X63587452Y-116117544D01*
X63587455Y-116117547D01*
X63702664Y-116203793D01*
X63702671Y-116203797D01*
X63837517Y-116254091D01*
X63837516Y-116254091D01*
X63844444Y-116254835D01*
X63897127Y-116260500D01*
X65642872Y-116260499D01*
X65702483Y-116254091D01*
X65837331Y-116203796D01*
X65952546Y-116117546D01*
X66038796Y-116002331D01*
X66089091Y-115867483D01*
X66095500Y-115807873D01*
X66095499Y-115789587D01*
X66098686Y-115775809D01*
X66109163Y-115757201D01*
X66115175Y-115736718D01*
X66125961Y-115727368D01*
X66132967Y-115714927D01*
X66151839Y-115704938D01*
X66167972Y-115690956D01*
X66183421Y-115688224D01*
X66194721Y-115682244D01*
X66208073Y-115683373D01*
X66786212Y-115105234D01*
X66797482Y-115147292D01*
X66869890Y-115272708D01*
X66972292Y-115375110D01*
X67097708Y-115447518D01*
X67139765Y-115458787D01*
X66566179Y-116032371D01*
X66566180Y-116032372D01*
X66615543Y-116068236D01*
X66615556Y-116068244D01*
X66801372Y-116162924D01*
X66999727Y-116227373D01*
X67205721Y-116260000D01*
X67414279Y-116260000D01*
X67620272Y-116227373D01*
X67818627Y-116162924D01*
X68004451Y-116068240D01*
X68053818Y-116032372D01*
X68053818Y-116032371D01*
X67480234Y-115458787D01*
X67522292Y-115447518D01*
X67647708Y-115375110D01*
X67750110Y-115272708D01*
X67822518Y-115147292D01*
X67833787Y-115105234D01*
X68407371Y-115678818D01*
X68407372Y-115678818D01*
X68443240Y-115629451D01*
X68537924Y-115443627D01*
X68602373Y-115245272D01*
X68635000Y-115039279D01*
X68635000Y-114830720D01*
X68602373Y-114624727D01*
X68537924Y-114426372D01*
X68443244Y-114240556D01*
X68443236Y-114240543D01*
X68407372Y-114191180D01*
X68407371Y-114191179D01*
X67833787Y-114764764D01*
X67822518Y-114722708D01*
X67750110Y-114597292D01*
X67647708Y-114494890D01*
X67522292Y-114422482D01*
X67480233Y-114411212D01*
X68053819Y-113837627D01*
X68004451Y-113801759D01*
X67818627Y-113707075D01*
X67620272Y-113642626D01*
X67414279Y-113610000D01*
X67205721Y-113610000D01*
X66999727Y-113642626D01*
X66801372Y-113707075D01*
X66615552Y-113801757D01*
X66566180Y-113837627D01*
X67139766Y-114411212D01*
X67097708Y-114422482D01*
X66972292Y-114494890D01*
X66869890Y-114597292D01*
X66797482Y-114722708D01*
X66786212Y-114764765D01*
X66206557Y-114185110D01*
X66160849Y-114175508D01*
X66111093Y-114126456D01*
X66098687Y-114094190D01*
X66095499Y-114080402D01*
X66095499Y-114062128D01*
X66089091Y-114002517D01*
X66038796Y-113867669D01*
X66038795Y-113867668D01*
X66038793Y-113867664D01*
X65952547Y-113752455D01*
X65952544Y-113752452D01*
X65837335Y-113666206D01*
X65837328Y-113666202D01*
X65702482Y-113615908D01*
X65702483Y-113615908D01*
X65642883Y-113609501D01*
X65642881Y-113609500D01*
X65642873Y-113609500D01*
X65642864Y-113609500D01*
X63897129Y-113609500D01*
X63897123Y-113609501D01*
X63837516Y-113615908D01*
X63702671Y-113666202D01*
X63702664Y-113666206D01*
X63587455Y-113752452D01*
X63587452Y-113752455D01*
X63501206Y-113867664D01*
X63501202Y-113867671D01*
X63450908Y-114002517D01*
X63444501Y-114062116D01*
X63444500Y-114062135D01*
X49530500Y-114062135D01*
X49530500Y-110850641D01*
X51340500Y-110850641D01*
X51340500Y-111149358D01*
X51373943Y-111446172D01*
X51373945Y-111446184D01*
X51440413Y-111737403D01*
X51440417Y-111737415D01*
X51539072Y-112019353D01*
X51668674Y-112288474D01*
X51827600Y-112541403D01*
X51827601Y-112541405D01*
X52013833Y-112774934D01*
X52225065Y-112986166D01*
X52458594Y-113172398D01*
X52458597Y-113172399D01*
X52458599Y-113172401D01*
X52711523Y-113331324D01*
X52980650Y-113460929D01*
X53192400Y-113535023D01*
X53262584Y-113559582D01*
X53262596Y-113559586D01*
X53553815Y-113626055D01*
X53850642Y-113659499D01*
X53850643Y-113659500D01*
X53850646Y-113659500D01*
X54149357Y-113659500D01*
X54149357Y-113659499D01*
X54446185Y-113626055D01*
X54737404Y-113559586D01*
X55019350Y-113460929D01*
X55288477Y-113331324D01*
X55541401Y-113172401D01*
X55586688Y-113136286D01*
X55774934Y-112986166D01*
X55774936Y-112986163D01*
X55774941Y-112986160D01*
X55886558Y-112874543D01*
X69103499Y-112874543D01*
X69141947Y-113067829D01*
X69141950Y-113067839D01*
X69217364Y-113249907D01*
X69217371Y-113249920D01*
X69326860Y-113413781D01*
X69326863Y-113413785D01*
X69466214Y-113553136D01*
X69466218Y-113553139D01*
X69630079Y-113662628D01*
X69630092Y-113662635D01*
X69811607Y-113737820D01*
X69812165Y-113738051D01*
X69812169Y-113738051D01*
X69812170Y-113738052D01*
X70005456Y-113776500D01*
X70005459Y-113776500D01*
X70202543Y-113776500D01*
X70332582Y-113750632D01*
X70395835Y-113738051D01*
X70569286Y-113666206D01*
X70577907Y-113662635D01*
X70577907Y-113662634D01*
X70577914Y-113662632D01*
X70741782Y-113553139D01*
X70881139Y-113413782D01*
X70990632Y-113249914D01*
X71066051Y-113067835D01*
X71104500Y-112874541D01*
X71104500Y-94445782D01*
X71124185Y-94378743D01*
X71140819Y-94358101D01*
X75181102Y-90317819D01*
X75242425Y-90284334D01*
X75268783Y-90281500D01*
X75282543Y-90281500D01*
X75412582Y-90255632D01*
X75475835Y-90243051D01*
X75657914Y-90167632D01*
X75821782Y-90058139D01*
X75961139Y-89918782D01*
X76070632Y-89754914D01*
X76146051Y-89572835D01*
X76166713Y-89468961D01*
X76184500Y-89379543D01*
X76184500Y-89182456D01*
X76146052Y-88989170D01*
X76146051Y-88989169D01*
X76146051Y-88989165D01*
X76139602Y-88973596D01*
X76070635Y-88807092D01*
X76070628Y-88807079D01*
X75961139Y-88643218D01*
X75961136Y-88643214D01*
X75821785Y-88503863D01*
X75821781Y-88503860D01*
X75657920Y-88394371D01*
X75657907Y-88394364D01*
X75475839Y-88318950D01*
X75475829Y-88318947D01*
X75282543Y-88280500D01*
X75282541Y-88280500D01*
X74907675Y-88280500D01*
X74907655Y-88280499D01*
X74901541Y-88280499D01*
X74704460Y-88280499D01*
X74704457Y-88280499D01*
X74511172Y-88318946D01*
X74511164Y-88318948D01*
X74329088Y-88394366D01*
X74329079Y-88394371D01*
X74165219Y-88503859D01*
X74165215Y-88503862D01*
X70617186Y-92051893D01*
X69466220Y-93202859D01*
X69466218Y-93202861D01*
X69396538Y-93272540D01*
X69326859Y-93342219D01*
X69217371Y-93506079D01*
X69217366Y-93506089D01*
X69203562Y-93539416D01*
X69172099Y-93615375D01*
X69164038Y-93634835D01*
X69141952Y-93688154D01*
X69141947Y-93688169D01*
X69133869Y-93728784D01*
X69103500Y-93881456D01*
X69103500Y-93881459D01*
X69103500Y-112874541D01*
X69103500Y-112874543D01*
X69103499Y-112874543D01*
X55886558Y-112874543D01*
X55986160Y-112774941D01*
X56034953Y-112713757D01*
X56172398Y-112541405D01*
X56172399Y-112541403D01*
X56172401Y-112541401D01*
X56331324Y-112288477D01*
X56460929Y-112019350D01*
X56559586Y-111737404D01*
X56626055Y-111446185D01*
X56659500Y-111149354D01*
X56659500Y-110850646D01*
X56626055Y-110553815D01*
X56559586Y-110262596D01*
X56460929Y-109980650D01*
X56331324Y-109711523D01*
X56172401Y-109458599D01*
X56172399Y-109458596D01*
X56172398Y-109458594D01*
X55986166Y-109225065D01*
X55774934Y-109013833D01*
X55541405Y-108827601D01*
X55541403Y-108827600D01*
X55288474Y-108668674D01*
X55019353Y-108539072D01*
X54737415Y-108440417D01*
X54737403Y-108440413D01*
X54511795Y-108388920D01*
X54446185Y-108373945D01*
X54446181Y-108373944D01*
X54446172Y-108373943D01*
X54149358Y-108340500D01*
X54149354Y-108340500D01*
X53850646Y-108340500D01*
X53850641Y-108340500D01*
X53553827Y-108373943D01*
X53553815Y-108373945D01*
X53262596Y-108440413D01*
X53262584Y-108440417D01*
X52980646Y-108539072D01*
X52711525Y-108668674D01*
X52458596Y-108827600D01*
X52458594Y-108827601D01*
X52225065Y-109013833D01*
X52013833Y-109225065D01*
X51827601Y-109458594D01*
X51827600Y-109458596D01*
X51668674Y-109711525D01*
X51539072Y-109980646D01*
X51440417Y-110262584D01*
X51440413Y-110262596D01*
X51373945Y-110553815D01*
X51373943Y-110553827D01*
X51340500Y-110850641D01*
X49530500Y-110850641D01*
X49530500Y-103242135D01*
X50079500Y-103242135D01*
X50079500Y-105037870D01*
X50079501Y-105037876D01*
X50085908Y-105097483D01*
X50136202Y-105232328D01*
X50136206Y-105232335D01*
X50222452Y-105347544D01*
X50222455Y-105347547D01*
X50337664Y-105433793D01*
X50337671Y-105433797D01*
X50472517Y-105484091D01*
X50472516Y-105484091D01*
X50479444Y-105484835D01*
X50532127Y-105490500D01*
X52327872Y-105490499D01*
X52387483Y-105484091D01*
X52522331Y-105433796D01*
X52637546Y-105347546D01*
X52723796Y-105232331D01*
X52772810Y-105100916D01*
X52814681Y-105044984D01*
X52880145Y-105020566D01*
X52948418Y-105035417D01*
X52976673Y-105056569D01*
X53090213Y-105170109D01*
X53262179Y-105295048D01*
X53262181Y-105295049D01*
X53262184Y-105295051D01*
X53451588Y-105391557D01*
X53653757Y-105457246D01*
X53863713Y-105490500D01*
X53863714Y-105490500D01*
X54076286Y-105490500D01*
X54076287Y-105490500D01*
X54286243Y-105457246D01*
X54488412Y-105391557D01*
X54677816Y-105295051D01*
X54764138Y-105232335D01*
X54849786Y-105170109D01*
X54849788Y-105170106D01*
X54849792Y-105170104D01*
X55000104Y-105019792D01*
X55000106Y-105019788D01*
X55000109Y-105019786D01*
X55125048Y-104847820D01*
X55125047Y-104847820D01*
X55125051Y-104847816D01*
X55221557Y-104658412D01*
X55287246Y-104456243D01*
X55320500Y-104246287D01*
X55320500Y-104033713D01*
X55287246Y-103823757D01*
X55221557Y-103621588D01*
X55125051Y-103432184D01*
X55125049Y-103432181D01*
X55125048Y-103432179D01*
X55000109Y-103260213D01*
X54849786Y-103109890D01*
X54677820Y-102984951D01*
X54488414Y-102888444D01*
X54488413Y-102888443D01*
X54488412Y-102888443D01*
X54286243Y-102822754D01*
X54286241Y-102822753D01*
X54286240Y-102822753D01*
X54124957Y-102797208D01*
X54076287Y-102789500D01*
X53863713Y-102789500D01*
X53815042Y-102797208D01*
X53653760Y-102822753D01*
X53451585Y-102888444D01*
X53262179Y-102984951D01*
X53090215Y-103109889D01*
X52976673Y-103223431D01*
X52915350Y-103256915D01*
X52845658Y-103251931D01*
X52789725Y-103210059D01*
X52772810Y-103179082D01*
X52723797Y-103047671D01*
X52723793Y-103047664D01*
X52637547Y-102932455D01*
X52637544Y-102932452D01*
X52522335Y-102846206D01*
X52522328Y-102846202D01*
X52387482Y-102795908D01*
X52387483Y-102795908D01*
X52327883Y-102789501D01*
X52327881Y-102789500D01*
X52327873Y-102789500D01*
X52327864Y-102789500D01*
X50532129Y-102789500D01*
X50532123Y-102789501D01*
X50472516Y-102795908D01*
X50337671Y-102846202D01*
X50337664Y-102846206D01*
X50222455Y-102932452D01*
X50222452Y-102932455D01*
X50136206Y-103047664D01*
X50136202Y-103047671D01*
X50085908Y-103182517D01*
X50079501Y-103242116D01*
X50079500Y-103242135D01*
X49530500Y-103242135D01*
X49530500Y-100241304D01*
X59424500Y-100241304D01*
X59424500Y-100418695D01*
X59459103Y-100592658D01*
X59459106Y-100592667D01*
X59526983Y-100756540D01*
X59526990Y-100756553D01*
X59625535Y-100904034D01*
X59625538Y-100904038D01*
X59750961Y-101029461D01*
X59750965Y-101029464D01*
X59898446Y-101128009D01*
X59898459Y-101128016D01*
X60021363Y-101178923D01*
X60062334Y-101195894D01*
X60062336Y-101195894D01*
X60062341Y-101195896D01*
X60236304Y-101230499D01*
X60236307Y-101230500D01*
X60236309Y-101230500D01*
X60413693Y-101230500D01*
X60413694Y-101230499D01*
X60471682Y-101218964D01*
X60587658Y-101195896D01*
X60587661Y-101195894D01*
X60587666Y-101195894D01*
X60751547Y-101128013D01*
X60751550Y-101128010D01*
X60751552Y-101128010D01*
X60791378Y-101101399D01*
X60858055Y-101080520D01*
X60860270Y-101080500D01*
X64488730Y-101080500D01*
X64555769Y-101100185D01*
X64557622Y-101101399D01*
X64597447Y-101128010D01*
X64597450Y-101128011D01*
X64597453Y-101128013D01*
X64761334Y-101195894D01*
X64761336Y-101195894D01*
X64761341Y-101195896D01*
X64935304Y-101230499D01*
X64935307Y-101230500D01*
X64935309Y-101230500D01*
X65112693Y-101230500D01*
X65112694Y-101230499D01*
X65170682Y-101218964D01*
X65286658Y-101195896D01*
X65286661Y-101195894D01*
X65286666Y-101195894D01*
X65450547Y-101128013D01*
X65598035Y-101029464D01*
X65723464Y-100904035D01*
X65822013Y-100756547D01*
X65889894Y-100592666D01*
X65924500Y-100418691D01*
X65924500Y-100241309D01*
X65924500Y-100241306D01*
X65924499Y-100241304D01*
X65889896Y-100067341D01*
X65889893Y-100067332D01*
X65822016Y-99903459D01*
X65822009Y-99903446D01*
X65723464Y-99755965D01*
X65723461Y-99755961D01*
X65598038Y-99630538D01*
X65598034Y-99630535D01*
X65450553Y-99531990D01*
X65450540Y-99531983D01*
X65286667Y-99464106D01*
X65286658Y-99464103D01*
X65112694Y-99429500D01*
X65112691Y-99429500D01*
X64935309Y-99429500D01*
X64935306Y-99429500D01*
X64761341Y-99464103D01*
X64761332Y-99464106D01*
X64597452Y-99531987D01*
X64597447Y-99531989D01*
X64557622Y-99558601D01*
X64490945Y-99579480D01*
X64488730Y-99579500D01*
X60860270Y-99579500D01*
X60793231Y-99559815D01*
X60791378Y-99558601D01*
X60751552Y-99531989D01*
X60751547Y-99531987D01*
X60587667Y-99464106D01*
X60587658Y-99464103D01*
X60413694Y-99429500D01*
X60413691Y-99429500D01*
X60236309Y-99429500D01*
X60236306Y-99429500D01*
X60062341Y-99464103D01*
X60062332Y-99464106D01*
X59898459Y-99531983D01*
X59898446Y-99531990D01*
X59750965Y-99630535D01*
X59750961Y-99630538D01*
X59625538Y-99755961D01*
X59625535Y-99755965D01*
X59526990Y-99903446D01*
X59526983Y-99903459D01*
X59459106Y-100067332D01*
X59459103Y-100067341D01*
X59424500Y-100241304D01*
X49530500Y-100241304D01*
X49530500Y-95136643D01*
X54218500Y-95136643D01*
X54218500Y-95409356D01*
X54218501Y-95409372D01*
X54254097Y-95679754D01*
X54324684Y-95943188D01*
X54429047Y-96195144D01*
X54429054Y-96195159D01*
X54565415Y-96431343D01*
X54731439Y-96647710D01*
X54731445Y-96647717D01*
X54924282Y-96840554D01*
X54924289Y-96840560D01*
X55140656Y-97006584D01*
X55376840Y-97142945D01*
X55376855Y-97142952D01*
X55507154Y-97196923D01*
X55628810Y-97247315D01*
X55892244Y-97317902D01*
X56162637Y-97353500D01*
X56162644Y-97353500D01*
X57375356Y-97353500D01*
X57375363Y-97353500D01*
X57645756Y-97317902D01*
X57909190Y-97247315D01*
X58161156Y-97142947D01*
X58397344Y-97006584D01*
X58613712Y-96840559D01*
X58806559Y-96647712D01*
X58972584Y-96431344D01*
X59108947Y-96195156D01*
X59213315Y-95943190D01*
X59283902Y-95679756D01*
X59319500Y-95409363D01*
X59319500Y-95136637D01*
X59283902Y-94866244D01*
X59213315Y-94602810D01*
X59126997Y-94394420D01*
X59108952Y-94350855D01*
X59108945Y-94350840D01*
X58972584Y-94114656D01*
X58846894Y-93950853D01*
X58806560Y-93898289D01*
X58806554Y-93898282D01*
X58613717Y-93705445D01*
X58613710Y-93705439D01*
X58496336Y-93615375D01*
X58455133Y-93558947D01*
X58450978Y-93489201D01*
X58485190Y-93428281D01*
X58546907Y-93395528D01*
X58571822Y-93392999D01*
X58618972Y-93392999D01*
X58618986Y-93392998D01*
X58721697Y-93382505D01*
X58888119Y-93327358D01*
X58888124Y-93327356D01*
X59037345Y-93235315D01*
X59161315Y-93111345D01*
X59253356Y-92962124D01*
X59253358Y-92962119D01*
X59308505Y-92795697D01*
X59308506Y-92795690D01*
X59318999Y-92692986D01*
X59319000Y-92692973D01*
X59319000Y-91563000D01*
X57585480Y-91563000D01*
X57586335Y-91560936D01*
X57619000Y-91396718D01*
X57619000Y-91229282D01*
X57586335Y-91065064D01*
X57585480Y-91063000D01*
X59318999Y-91063000D01*
X59318999Y-89933028D01*
X59318998Y-89933013D01*
X59308505Y-89830302D01*
X59253358Y-89663880D01*
X59253356Y-89663875D01*
X59161315Y-89514654D01*
X59037345Y-89390684D01*
X58888124Y-89298643D01*
X58888119Y-89298641D01*
X58721697Y-89243494D01*
X58721690Y-89243493D01*
X58618986Y-89233000D01*
X57019000Y-89233000D01*
X57019000Y-90496519D01*
X57016936Y-90495665D01*
X56852718Y-90463000D01*
X56685282Y-90463000D01*
X56521064Y-90495665D01*
X56519000Y-90496519D01*
X56519000Y-89233000D01*
X54919028Y-89233000D01*
X54919012Y-89233001D01*
X54816302Y-89243494D01*
X54649880Y-89298641D01*
X54649875Y-89298643D01*
X54500654Y-89390684D01*
X54376684Y-89514654D01*
X54284643Y-89663875D01*
X54284641Y-89663880D01*
X54229494Y-89830302D01*
X54229493Y-89830309D01*
X54219000Y-89933013D01*
X54219000Y-91063000D01*
X55952520Y-91063000D01*
X55951665Y-91065064D01*
X55919000Y-91229282D01*
X55919000Y-91396718D01*
X55951665Y-91560936D01*
X55952520Y-91563000D01*
X54219001Y-91563000D01*
X54219001Y-92692986D01*
X54229494Y-92795697D01*
X54284641Y-92962119D01*
X54284643Y-92962124D01*
X54376684Y-93111345D01*
X54500654Y-93235315D01*
X54649875Y-93327356D01*
X54649880Y-93327358D01*
X54816302Y-93382505D01*
X54816309Y-93382506D01*
X54919019Y-93392999D01*
X54966174Y-93392999D01*
X55033213Y-93412682D01*
X55078969Y-93465485D01*
X55088914Y-93534644D01*
X55059891Y-93598200D01*
X55041663Y-93615374D01*
X54924292Y-93705437D01*
X54924282Y-93705445D01*
X54731445Y-93898282D01*
X54731439Y-93898289D01*
X54565415Y-94114656D01*
X54429054Y-94350840D01*
X54429047Y-94350855D01*
X54324684Y-94602811D01*
X54254097Y-94866245D01*
X54218501Y-95136627D01*
X54218500Y-95136643D01*
X49530500Y-95136643D01*
X49530500Y-83454713D01*
X50719500Y-83454713D01*
X50719500Y-83667286D01*
X50746608Y-83838443D01*
X50752754Y-83877243D01*
X50787865Y-83985304D01*
X50818444Y-84079414D01*
X50914951Y-84268820D01*
X51039890Y-84440786D01*
X51190213Y-84591109D01*
X51362179Y-84716048D01*
X51362181Y-84716049D01*
X51362184Y-84716051D01*
X51551588Y-84812557D01*
X51753757Y-84878246D01*
X51963713Y-84911500D01*
X51963714Y-84911500D01*
X52176286Y-84911500D01*
X52176287Y-84911500D01*
X52386243Y-84878246D01*
X52588412Y-84812557D01*
X52777816Y-84716051D01*
X52871434Y-84648034D01*
X52949786Y-84591109D01*
X52949788Y-84591106D01*
X52949792Y-84591104D01*
X53100104Y-84440792D01*
X53100106Y-84440788D01*
X53100109Y-84440786D01*
X53225048Y-84268820D01*
X53225047Y-84268820D01*
X53225051Y-84268816D01*
X53321557Y-84079412D01*
X53387246Y-83877243D01*
X53420500Y-83667287D01*
X53420500Y-83454713D01*
X53387246Y-83244757D01*
X53321557Y-83042588D01*
X53225051Y-82853184D01*
X53225049Y-82853181D01*
X53225048Y-82853179D01*
X53100109Y-82681213D01*
X52986181Y-82567285D01*
X52952696Y-82505962D01*
X52957680Y-82436270D01*
X52999552Y-82380337D01*
X53030529Y-82363422D01*
X53162086Y-82314354D01*
X53162093Y-82314350D01*
X53277187Y-82228190D01*
X53277190Y-82228187D01*
X53363350Y-82113093D01*
X53363354Y-82113086D01*
X53413596Y-81978379D01*
X53413598Y-81978372D01*
X53419999Y-81918844D01*
X53420000Y-81918827D01*
X53420000Y-81271000D01*
X52503012Y-81271000D01*
X52535925Y-81213993D01*
X52570000Y-81086826D01*
X52570000Y-80955174D01*
X52535925Y-80828007D01*
X52503012Y-80771000D01*
X53420000Y-80771000D01*
X53420000Y-80123172D01*
X53419999Y-80123155D01*
X53413598Y-80063627D01*
X53413596Y-80063620D01*
X53363354Y-79928913D01*
X53363350Y-79928906D01*
X53277190Y-79813812D01*
X53277187Y-79813809D01*
X53162093Y-79727649D01*
X53162086Y-79727645D01*
X53027379Y-79677403D01*
X53027372Y-79677401D01*
X52967844Y-79671000D01*
X52320000Y-79671000D01*
X52320000Y-80587988D01*
X52262993Y-80555075D01*
X52135826Y-80521000D01*
X52004174Y-80521000D01*
X51877007Y-80555075D01*
X51820000Y-80587988D01*
X51820000Y-79671000D01*
X51172155Y-79671000D01*
X51112627Y-79677401D01*
X51112620Y-79677403D01*
X50977913Y-79727645D01*
X50977906Y-79727649D01*
X50862812Y-79813809D01*
X50862809Y-79813812D01*
X50776649Y-79928906D01*
X50776645Y-79928913D01*
X50726403Y-80063620D01*
X50726401Y-80063627D01*
X50720000Y-80123155D01*
X50720000Y-80771000D01*
X51636988Y-80771000D01*
X51604075Y-80828007D01*
X51570000Y-80955174D01*
X51570000Y-81086826D01*
X51604075Y-81213993D01*
X51636988Y-81271000D01*
X50720000Y-81271000D01*
X50720000Y-81918844D01*
X50726401Y-81978372D01*
X50726403Y-81978379D01*
X50776645Y-82113086D01*
X50776649Y-82113093D01*
X50862809Y-82228187D01*
X50862812Y-82228190D01*
X50977906Y-82314350D01*
X50977913Y-82314354D01*
X51109470Y-82363422D01*
X51165404Y-82405293D01*
X51189821Y-82470758D01*
X51174969Y-82539031D01*
X51153819Y-82567285D01*
X51039889Y-82681215D01*
X50914951Y-82853179D01*
X50818444Y-83042585D01*
X50752753Y-83244760D01*
X50719500Y-83454713D01*
X49530500Y-83454713D01*
X49530500Y-59601304D01*
X66663500Y-59601304D01*
X66663500Y-59778695D01*
X66698103Y-59952658D01*
X66698106Y-59952667D01*
X66765983Y-60116540D01*
X66765990Y-60116553D01*
X66864535Y-60264034D01*
X66864538Y-60264038D01*
X66989961Y-60389461D01*
X66989965Y-60389464D01*
X67137446Y-60488009D01*
X67137459Y-60488016D01*
X67209928Y-60518033D01*
X67301334Y-60555894D01*
X67348318Y-60565239D01*
X67410227Y-60597622D01*
X67411807Y-60599175D01*
X68101585Y-61288953D01*
X68123242Y-61303423D01*
X68144900Y-61317894D01*
X68224505Y-61371084D01*
X68361087Y-61427658D01*
X68361091Y-61427658D01*
X68361092Y-61427659D01*
X68506079Y-61456500D01*
X68506082Y-61456500D01*
X68506083Y-61456500D01*
X68653917Y-61456500D01*
X85870770Y-61456500D01*
X85937809Y-61476185D01*
X85958451Y-61492819D01*
X86208181Y-61742549D01*
X86241666Y-61803872D01*
X86244500Y-61830230D01*
X86244500Y-74440770D01*
X86224815Y-74507809D01*
X86208181Y-74528451D01*
X85831451Y-74905181D01*
X85770128Y-74938666D01*
X85743770Y-74941500D01*
X84000080Y-74941500D01*
X83855092Y-74970340D01*
X83855082Y-74970343D01*
X83718511Y-75026912D01*
X83718498Y-75026919D01*
X83595584Y-75109048D01*
X83595580Y-75109051D01*
X81635621Y-77069010D01*
X81574298Y-77102495D01*
X81565822Y-77103830D01*
X81369170Y-77142947D01*
X81369160Y-77142950D01*
X81187092Y-77218364D01*
X81187079Y-77218371D01*
X81023218Y-77327860D01*
X81023214Y-77327863D01*
X80883863Y-77467214D01*
X80883860Y-77467218D01*
X80774371Y-77631079D01*
X80774364Y-77631092D01*
X80698950Y-77813160D01*
X80698947Y-77813170D01*
X80660500Y-78006456D01*
X80660500Y-88053217D01*
X80640815Y-88120256D01*
X80624181Y-88140898D01*
X73430181Y-95334897D01*
X73368858Y-95368382D01*
X73299166Y-95363398D01*
X73254819Y-95334897D01*
X73154785Y-95234863D01*
X73154781Y-95234860D01*
X72990920Y-95125371D01*
X72990907Y-95125364D01*
X72808839Y-95049950D01*
X72808829Y-95049947D01*
X72615543Y-95011500D01*
X72615541Y-95011500D01*
X72418459Y-95011500D01*
X72418457Y-95011500D01*
X72225170Y-95049947D01*
X72225160Y-95049950D01*
X72043092Y-95125364D01*
X72043079Y-95125371D01*
X71879218Y-95234860D01*
X71879214Y-95234863D01*
X71739863Y-95374214D01*
X71739860Y-95374218D01*
X71630371Y-95538079D01*
X71630364Y-95538092D01*
X71554950Y-95720160D01*
X71554947Y-95720170D01*
X71516500Y-95913456D01*
X71516500Y-108810544D01*
X71554947Y-109003828D01*
X71554950Y-109003840D01*
X71572722Y-109046744D01*
X71630366Y-109185911D01*
X71630371Y-109185920D01*
X71710510Y-109305856D01*
X71731388Y-109372534D01*
X71723590Y-109418079D01*
X71680909Y-109532514D01*
X71680908Y-109532516D01*
X71674501Y-109592115D01*
X71674500Y-109592135D01*
X71674500Y-111387870D01*
X71674501Y-111387876D01*
X71680908Y-111447483D01*
X71731202Y-111582328D01*
X71731206Y-111582335D01*
X71817452Y-111697544D01*
X71817455Y-111697547D01*
X71932664Y-111783793D01*
X71932671Y-111783797D01*
X72064082Y-111832810D01*
X72120016Y-111874681D01*
X72144433Y-111940145D01*
X72129582Y-112008418D01*
X72108431Y-112036673D01*
X71994889Y-112150215D01*
X71869951Y-112322179D01*
X71773444Y-112511585D01*
X71707753Y-112713760D01*
X71682288Y-112874541D01*
X71674500Y-112923713D01*
X71674500Y-113136287D01*
X71707754Y-113346243D01*
X71758357Y-113501983D01*
X71773444Y-113548414D01*
X71869951Y-113737820D01*
X71994890Y-113909786D01*
X72145213Y-114060109D01*
X72317182Y-114185050D01*
X72325946Y-114189516D01*
X72376742Y-114237491D01*
X72393536Y-114305312D01*
X72370998Y-114371447D01*
X72325946Y-114410484D01*
X72317182Y-114414949D01*
X72145213Y-114539890D01*
X71994890Y-114690213D01*
X71869951Y-114862179D01*
X71773444Y-115051585D01*
X71707753Y-115253760D01*
X71694974Y-115334444D01*
X71674500Y-115463713D01*
X71674500Y-115676287D01*
X71684071Y-115736718D01*
X71706477Y-115878184D01*
X71707754Y-115886243D01*
X71766887Y-116068236D01*
X71773444Y-116088414D01*
X71869951Y-116277820D01*
X71994890Y-116449786D01*
X72145213Y-116600109D01*
X72317179Y-116725048D01*
X72317181Y-116725049D01*
X72317184Y-116725051D01*
X72506588Y-116821557D01*
X72708757Y-116887246D01*
X72918713Y-116920500D01*
X72918714Y-116920500D01*
X73131286Y-116920500D01*
X73131287Y-116920500D01*
X73341243Y-116887246D01*
X73543412Y-116821557D01*
X73732816Y-116725051D01*
X73777912Y-116692287D01*
X73904786Y-116600109D01*
X73904788Y-116600106D01*
X73904792Y-116600104D01*
X74025183Y-116479713D01*
X79675500Y-116479713D01*
X79675500Y-116692286D01*
X79706378Y-116887246D01*
X79708754Y-116902243D01*
X79764854Y-117074901D01*
X79774444Y-117104414D01*
X79870951Y-117293820D01*
X79995890Y-117465786D01*
X80146213Y-117616109D01*
X80318179Y-117741048D01*
X80318181Y-117741049D01*
X80318184Y-117741051D01*
X80507588Y-117837557D01*
X80709757Y-117903246D01*
X80919713Y-117936500D01*
X80919714Y-117936500D01*
X81132286Y-117936500D01*
X81132287Y-117936500D01*
X81342243Y-117903246D01*
X81544412Y-117837557D01*
X81733816Y-117741051D01*
X81777028Y-117709656D01*
X81905786Y-117616109D01*
X81905788Y-117616106D01*
X81905792Y-117616104D01*
X82056104Y-117465792D01*
X82126636Y-117368713D01*
X127173500Y-117368713D01*
X127173500Y-117581286D01*
X127206735Y-117791127D01*
X127206754Y-117791243D01*
X127270633Y-117987842D01*
X127272444Y-117993414D01*
X127368951Y-118182820D01*
X127493890Y-118354786D01*
X127644213Y-118505109D01*
X127816179Y-118630048D01*
X127816181Y-118630049D01*
X127816184Y-118630051D01*
X128005588Y-118726557D01*
X128207757Y-118792246D01*
X128417713Y-118825500D01*
X128417714Y-118825500D01*
X128630286Y-118825500D01*
X128630287Y-118825500D01*
X128840243Y-118792246D01*
X129042412Y-118726557D01*
X129231816Y-118630051D01*
X129286572Y-118590269D01*
X129403786Y-118505109D01*
X129403788Y-118505106D01*
X129403792Y-118505104D01*
X129554104Y-118354792D01*
X129554106Y-118354788D01*
X129554109Y-118354786D01*
X129679048Y-118182820D01*
X129679047Y-118182820D01*
X129679051Y-118182816D01*
X129683514Y-118174054D01*
X129731488Y-118123259D01*
X129799308Y-118106463D01*
X129865444Y-118128999D01*
X129904486Y-118174056D01*
X129908951Y-118182820D01*
X130033890Y-118354786D01*
X130184213Y-118505109D01*
X130356179Y-118630048D01*
X130356181Y-118630049D01*
X130356184Y-118630051D01*
X130545588Y-118726557D01*
X130747757Y-118792246D01*
X130957713Y-118825500D01*
X130957714Y-118825500D01*
X131170286Y-118825500D01*
X131170287Y-118825500D01*
X131380243Y-118792246D01*
X131582412Y-118726557D01*
X131771816Y-118630051D01*
X131826572Y-118590269D01*
X131943786Y-118505109D01*
X131943788Y-118505106D01*
X131943792Y-118505104D01*
X132094104Y-118354792D01*
X132094106Y-118354788D01*
X132094109Y-118354786D01*
X132219048Y-118182820D01*
X132219047Y-118182820D01*
X132219051Y-118182816D01*
X132315557Y-117993412D01*
X132381246Y-117791243D01*
X132414500Y-117581287D01*
X132414500Y-117368753D01*
X135175000Y-117368753D01*
X135175000Y-117581246D01*
X135208242Y-117791127D01*
X135208242Y-117791130D01*
X135273904Y-117993217D01*
X135370375Y-118182550D01*
X135409728Y-118236716D01*
X136042037Y-117604408D01*
X136059075Y-117667993D01*
X136124901Y-117782007D01*
X136217993Y-117875099D01*
X136332007Y-117940925D01*
X136395590Y-117957962D01*
X135763282Y-118590269D01*
X135763282Y-118590270D01*
X135817449Y-118629624D01*
X136006782Y-118726095D01*
X136208870Y-118791757D01*
X136418754Y-118825000D01*
X136631246Y-118825000D01*
X136841127Y-118791757D01*
X136841130Y-118791757D01*
X137043217Y-118726095D01*
X137232554Y-118629622D01*
X137286716Y-118590270D01*
X137286717Y-118590270D01*
X136654408Y-117957962D01*
X136717993Y-117940925D01*
X136832007Y-117875099D01*
X136925099Y-117782007D01*
X136990925Y-117667993D01*
X137007962Y-117604408D01*
X137640270Y-118236717D01*
X137640270Y-118236716D01*
X137679622Y-118182554D01*
X137684514Y-118172954D01*
X137732488Y-118122157D01*
X137800308Y-118105361D01*
X137866444Y-118127897D01*
X137905486Y-118172954D01*
X137910379Y-118182558D01*
X138035272Y-118354459D01*
X138035276Y-118354464D01*
X138185535Y-118504723D01*
X138185540Y-118504727D01*
X138357442Y-118629620D01*
X138546782Y-118726095D01*
X138748871Y-118791757D01*
X138815000Y-118802231D01*
X138815000Y-117908012D01*
X138872007Y-117940925D01*
X138999174Y-117975000D01*
X139130826Y-117975000D01*
X139257993Y-117940925D01*
X139315000Y-117908012D01*
X139315000Y-118802230D01*
X139381126Y-118791757D01*
X139381129Y-118791757D01*
X139583217Y-118726095D01*
X139772557Y-118629620D01*
X139944459Y-118504727D01*
X139944464Y-118504723D01*
X140094723Y-118354464D01*
X140094727Y-118354459D01*
X140219620Y-118182557D01*
X140316095Y-117993217D01*
X140381757Y-117791129D01*
X140381757Y-117791126D01*
X140392231Y-117725000D01*
X139498012Y-117725000D01*
X139530925Y-117667993D01*
X139565000Y-117540826D01*
X139565000Y-117409174D01*
X139530925Y-117282007D01*
X139498012Y-117225000D01*
X140392231Y-117225000D01*
X140381757Y-117158873D01*
X140381757Y-117158870D01*
X140316095Y-116956782D01*
X140219620Y-116767442D01*
X140094727Y-116595540D01*
X140094723Y-116595535D01*
X139944464Y-116445276D01*
X139944459Y-116445272D01*
X139772557Y-116320379D01*
X139583215Y-116223903D01*
X139381124Y-116158241D01*
X139315000Y-116147768D01*
X139315000Y-117041988D01*
X139257993Y-117009075D01*
X139130826Y-116975000D01*
X138999174Y-116975000D01*
X138872007Y-117009075D01*
X138815000Y-117041988D01*
X138815000Y-116147768D01*
X138814999Y-116147768D01*
X138748875Y-116158241D01*
X138546784Y-116223903D01*
X138357442Y-116320379D01*
X138185540Y-116445272D01*
X138185535Y-116445276D01*
X138035276Y-116595535D01*
X138035272Y-116595540D01*
X137910377Y-116767444D01*
X137905484Y-116777048D01*
X137857509Y-116827844D01*
X137789688Y-116844638D01*
X137723553Y-116822100D01*
X137684516Y-116777048D01*
X137679626Y-116767452D01*
X137640270Y-116713282D01*
X137640269Y-116713282D01*
X137007962Y-117345590D01*
X136990925Y-117282007D01*
X136925099Y-117167993D01*
X136832007Y-117074901D01*
X136717993Y-117009075D01*
X136654409Y-116992037D01*
X137286716Y-116359728D01*
X137232550Y-116320375D01*
X137043217Y-116223904D01*
X136841129Y-116158242D01*
X136631246Y-116125000D01*
X136418754Y-116125000D01*
X136208872Y-116158242D01*
X136208869Y-116158242D01*
X136006782Y-116223904D01*
X135817439Y-116320380D01*
X135763282Y-116359727D01*
X135763282Y-116359728D01*
X136395591Y-116992037D01*
X136332007Y-117009075D01*
X136217993Y-117074901D01*
X136124901Y-117167993D01*
X136059075Y-117282007D01*
X136042037Y-117345590D01*
X135409728Y-116713282D01*
X135409727Y-116713282D01*
X135370380Y-116767439D01*
X135273904Y-116956782D01*
X135208242Y-117158869D01*
X135208242Y-117158872D01*
X135175000Y-117368753D01*
X132414500Y-117368753D01*
X132414500Y-117368713D01*
X132381246Y-117158757D01*
X132315557Y-116956588D01*
X132219051Y-116767184D01*
X132219049Y-116767181D01*
X132219048Y-116767179D01*
X132094109Y-116595213D01*
X131943786Y-116444890D01*
X131771820Y-116319951D01*
X131582414Y-116223444D01*
X131582413Y-116223443D01*
X131582412Y-116223443D01*
X131380243Y-116157754D01*
X131380241Y-116157753D01*
X131380240Y-116157753D01*
X131218957Y-116132208D01*
X131170287Y-116124500D01*
X130957713Y-116124500D01*
X130909042Y-116132208D01*
X130747760Y-116157753D01*
X130545585Y-116223444D01*
X130356179Y-116319951D01*
X130184213Y-116444890D01*
X130033890Y-116595213D01*
X129908949Y-116767182D01*
X129904484Y-116775946D01*
X129856509Y-116826742D01*
X129788688Y-116843536D01*
X129722553Y-116820998D01*
X129683516Y-116775946D01*
X129679050Y-116767182D01*
X129554109Y-116595213D01*
X129403786Y-116444890D01*
X129231820Y-116319951D01*
X129042414Y-116223444D01*
X129042413Y-116223443D01*
X129042412Y-116223443D01*
X128840243Y-116157754D01*
X128840241Y-116157753D01*
X128840240Y-116157753D01*
X128678957Y-116132208D01*
X128630287Y-116124500D01*
X128417713Y-116124500D01*
X128369042Y-116132208D01*
X128207760Y-116157753D01*
X128005585Y-116223444D01*
X127816179Y-116319951D01*
X127644213Y-116444890D01*
X127493890Y-116595213D01*
X127368951Y-116767179D01*
X127272444Y-116956585D01*
X127206753Y-117158760D01*
X127173500Y-117368713D01*
X82126636Y-117368713D01*
X82181051Y-117293816D01*
X82277557Y-117104412D01*
X82343246Y-116902243D01*
X82376500Y-116692287D01*
X82376500Y-116479713D01*
X82343246Y-116269757D01*
X82277557Y-116067588D01*
X82181051Y-115878184D01*
X82181049Y-115878181D01*
X82181048Y-115878179D01*
X82056109Y-115706213D01*
X81905786Y-115555890D01*
X81733820Y-115430951D01*
X81544414Y-115334444D01*
X81544413Y-115334443D01*
X81544412Y-115334443D01*
X81342243Y-115268754D01*
X81342241Y-115268753D01*
X81342240Y-115268753D01*
X81180957Y-115243208D01*
X81132287Y-115235500D01*
X80919713Y-115235500D01*
X80871042Y-115243208D01*
X80709760Y-115268753D01*
X80507585Y-115334444D01*
X80318179Y-115430951D01*
X80146213Y-115555890D01*
X79995890Y-115706213D01*
X79870951Y-115878179D01*
X79774444Y-116067585D01*
X79708753Y-116269760D01*
X79675500Y-116479713D01*
X74025183Y-116479713D01*
X74055104Y-116449792D01*
X74059906Y-116443181D01*
X74089857Y-116401959D01*
X74089859Y-116401956D01*
X74120540Y-116359727D01*
X74180051Y-116277816D01*
X74276557Y-116088412D01*
X74342246Y-115886243D01*
X74375500Y-115676287D01*
X74375500Y-115463713D01*
X74342246Y-115253757D01*
X74276557Y-115051588D01*
X74180051Y-114862184D01*
X74180049Y-114862181D01*
X74180048Y-114862179D01*
X74055109Y-114690213D01*
X73904786Y-114539890D01*
X73732820Y-114414951D01*
X73732115Y-114414591D01*
X73724054Y-114410485D01*
X73673259Y-114362512D01*
X73656463Y-114294692D01*
X73678999Y-114228556D01*
X73724054Y-114189515D01*
X73732816Y-114185051D01*
X73819921Y-114121766D01*
X73904786Y-114060109D01*
X73904788Y-114060106D01*
X73904792Y-114060104D01*
X74055104Y-113909792D01*
X74055106Y-113909788D01*
X74055109Y-113909786D01*
X74169417Y-113752452D01*
X74180051Y-113737816D01*
X74276557Y-113548412D01*
X74342246Y-113346243D01*
X74375500Y-113136287D01*
X74375500Y-113050713D01*
X82850500Y-113050713D01*
X82850500Y-113263286D01*
X82881803Y-113460929D01*
X82883754Y-113473243D01*
X82946450Y-113666202D01*
X82949444Y-113675414D01*
X83045951Y-113864820D01*
X83170890Y-114036786D01*
X83321213Y-114187109D01*
X83493179Y-114312048D01*
X83493181Y-114312049D01*
X83493184Y-114312051D01*
X83682588Y-114408557D01*
X83884757Y-114474246D01*
X84094713Y-114507500D01*
X84094714Y-114507500D01*
X84307286Y-114507500D01*
X84307287Y-114507500D01*
X84517243Y-114474246D01*
X84719412Y-114408557D01*
X84908816Y-114312051D01*
X84969262Y-114268135D01*
X85080786Y-114187109D01*
X85080788Y-114187106D01*
X85080792Y-114187104D01*
X85231104Y-114036792D01*
X85231106Y-114036788D01*
X85231109Y-114036786D01*
X85340086Y-113886789D01*
X85356051Y-113864816D01*
X85452557Y-113675412D01*
X85518246Y-113473243D01*
X85551500Y-113263287D01*
X85551500Y-113050713D01*
X85518246Y-112840757D01*
X85452557Y-112638588D01*
X85382271Y-112500643D01*
X86034500Y-112500643D01*
X86034500Y-113813356D01*
X86034501Y-113813372D01*
X86070097Y-114083754D01*
X86140684Y-114347188D01*
X86245047Y-114599144D01*
X86245054Y-114599159D01*
X86381415Y-114835343D01*
X86547439Y-115051710D01*
X86547445Y-115051717D01*
X86740282Y-115244554D01*
X86740289Y-115244560D01*
X86956656Y-115410584D01*
X87192840Y-115546945D01*
X87192855Y-115546952D01*
X87320225Y-115599710D01*
X87444810Y-115651315D01*
X87708244Y-115721902D01*
X87978637Y-115757500D01*
X87978644Y-115757500D01*
X88251356Y-115757500D01*
X88251363Y-115757500D01*
X88521756Y-115721902D01*
X88785190Y-115651315D01*
X89037156Y-115546947D01*
X89273344Y-115410584D01*
X89489712Y-115244559D01*
X89682559Y-115051712D01*
X89772126Y-114934985D01*
X89828551Y-114893784D01*
X89898297Y-114889629D01*
X89959218Y-114923841D01*
X89991971Y-114985557D01*
X89994500Y-115010471D01*
X89994500Y-115056999D01*
X89994501Y-115057019D01*
X90005000Y-115159796D01*
X90005001Y-115159799D01*
X90060185Y-115326331D01*
X90060187Y-115326336D01*
X90065188Y-115334444D01*
X90152288Y-115475656D01*
X90276344Y-115599712D01*
X90425666Y-115691814D01*
X90592203Y-115746999D01*
X90694991Y-115757500D01*
X93455008Y-115757499D01*
X93557797Y-115746999D01*
X93724334Y-115691814D01*
X93873656Y-115599712D01*
X93997712Y-115475656D01*
X94089814Y-115326334D01*
X94144999Y-115159797D01*
X94155500Y-115057009D01*
X94155499Y-113050713D01*
X94534500Y-113050713D01*
X94534500Y-113263286D01*
X94565803Y-113460929D01*
X94567754Y-113473243D01*
X94630450Y-113666202D01*
X94633444Y-113675414D01*
X94729951Y-113864820D01*
X94854890Y-114036786D01*
X95005213Y-114187109D01*
X95177179Y-114312048D01*
X95177181Y-114312049D01*
X95177184Y-114312051D01*
X95366588Y-114408557D01*
X95568757Y-114474246D01*
X95778713Y-114507500D01*
X95778714Y-114507500D01*
X95991286Y-114507500D01*
X95991287Y-114507500D01*
X96201243Y-114474246D01*
X96403412Y-114408557D01*
X96592816Y-114312051D01*
X96653262Y-114268135D01*
X96764786Y-114187109D01*
X96764788Y-114187106D01*
X96764792Y-114187104D01*
X96915104Y-114036792D01*
X96915106Y-114036788D01*
X96915109Y-114036786D01*
X97024086Y-113886789D01*
X97040051Y-113864816D01*
X97136557Y-113675412D01*
X97202246Y-113473243D01*
X97235500Y-113263287D01*
X97235500Y-113050713D01*
X97202246Y-112840757D01*
X97136557Y-112638588D01*
X97040051Y-112449184D01*
X97040049Y-112449181D01*
X97040048Y-112449179D01*
X96915109Y-112277213D01*
X96764786Y-112126890D01*
X96592820Y-112001951D01*
X96403414Y-111905444D01*
X96403413Y-111905443D01*
X96403412Y-111905443D01*
X96201243Y-111839754D01*
X96201241Y-111839753D01*
X96201240Y-111839753D01*
X96039957Y-111814208D01*
X95991287Y-111806500D01*
X95778713Y-111806500D01*
X95730042Y-111814208D01*
X95568760Y-111839753D01*
X95366585Y-111905444D01*
X95177179Y-112001951D01*
X95005213Y-112126890D01*
X94854890Y-112277213D01*
X94729951Y-112449179D01*
X94633444Y-112638585D01*
X94567753Y-112840760D01*
X94534500Y-113050713D01*
X94155499Y-113050713D01*
X94155499Y-111256992D01*
X94144999Y-111154203D01*
X94089814Y-110987666D01*
X93997712Y-110838344D01*
X93873656Y-110714288D01*
X93724334Y-110622186D01*
X93557797Y-110567001D01*
X93557795Y-110567000D01*
X93455010Y-110556500D01*
X90694998Y-110556500D01*
X90694981Y-110556501D01*
X90592203Y-110567000D01*
X90592200Y-110567001D01*
X90425668Y-110622185D01*
X90425663Y-110622187D01*
X90276342Y-110714289D01*
X90152289Y-110838342D01*
X90060187Y-110987663D01*
X90060186Y-110987666D01*
X90005001Y-111154203D01*
X90005001Y-111154204D01*
X90005000Y-111154204D01*
X89994500Y-111256983D01*
X89994500Y-111303524D01*
X89974815Y-111370563D01*
X89922011Y-111416318D01*
X89852853Y-111426262D01*
X89789297Y-111397237D01*
X89772124Y-111379011D01*
X89704056Y-111290304D01*
X89682559Y-111262288D01*
X89682557Y-111262286D01*
X89682554Y-111262282D01*
X89489717Y-111069445D01*
X89489710Y-111069439D01*
X89273343Y-110903415D01*
X89037159Y-110767054D01*
X89037144Y-110767047D01*
X88785188Y-110662684D01*
X88521754Y-110592097D01*
X88251372Y-110556501D01*
X88251369Y-110556500D01*
X88251363Y-110556500D01*
X87978637Y-110556500D01*
X87978631Y-110556500D01*
X87978627Y-110556501D01*
X87708245Y-110592097D01*
X87444811Y-110662684D01*
X87192855Y-110767047D01*
X87192840Y-110767054D01*
X86956656Y-110903415D01*
X86740289Y-111069439D01*
X86740282Y-111069445D01*
X86547445Y-111262282D01*
X86547439Y-111262289D01*
X86381415Y-111478656D01*
X86245054Y-111714840D01*
X86245047Y-111714855D01*
X86140684Y-111966811D01*
X86070097Y-112230245D01*
X86034501Y-112500627D01*
X86034500Y-112500643D01*
X85382271Y-112500643D01*
X85356051Y-112449184D01*
X85356049Y-112449181D01*
X85356048Y-112449179D01*
X85231109Y-112277213D01*
X85080786Y-112126890D01*
X84908820Y-112001951D01*
X84719414Y-111905444D01*
X84719413Y-111905443D01*
X84719412Y-111905443D01*
X84517243Y-111839754D01*
X84517241Y-111839753D01*
X84517240Y-111839753D01*
X84355957Y-111814208D01*
X84307287Y-111806500D01*
X84094713Y-111806500D01*
X84046042Y-111814208D01*
X83884760Y-111839753D01*
X83682585Y-111905444D01*
X83493179Y-112001951D01*
X83321213Y-112126890D01*
X83170890Y-112277213D01*
X83045951Y-112449179D01*
X82949444Y-112638585D01*
X82883753Y-112840760D01*
X82850500Y-113050713D01*
X74375500Y-113050713D01*
X74375500Y-112923713D01*
X74342246Y-112713757D01*
X74276557Y-112511588D01*
X74180051Y-112322184D01*
X74180049Y-112322181D01*
X74180048Y-112322179D01*
X74055109Y-112150213D01*
X73941569Y-112036673D01*
X73908084Y-111975350D01*
X73913068Y-111905658D01*
X73954940Y-111849725D01*
X73985915Y-111832810D01*
X74117331Y-111783796D01*
X74232546Y-111697546D01*
X74318796Y-111582331D01*
X74369091Y-111447483D01*
X74375500Y-111387873D01*
X74375499Y-109592128D01*
X74369091Y-109532517D01*
X74351706Y-109485906D01*
X74318797Y-109397671D01*
X74318793Y-109397664D01*
X74232547Y-109282455D01*
X74232544Y-109282452D01*
X74117335Y-109196206D01*
X74117332Y-109196205D01*
X74117331Y-109196204D01*
X74098988Y-109189362D01*
X74090853Y-109183272D01*
X74080966Y-109180936D01*
X74063359Y-109162689D01*
X74043057Y-109147490D01*
X74038214Y-109136629D01*
X74032451Y-109130657D01*
X74020709Y-109097373D01*
X74010638Y-109046743D01*
X73987052Y-108928171D01*
X73987051Y-108928164D01*
X73955811Y-108852745D01*
X73946816Y-108831030D01*
X73911635Y-108746093D01*
X73911634Y-108746092D01*
X73911632Y-108746086D01*
X73823014Y-108613460D01*
X73802140Y-108582219D01*
X73758992Y-108539071D01*
X73662782Y-108442861D01*
X73662781Y-108442860D01*
X73553819Y-108333898D01*
X73520334Y-108272575D01*
X73517500Y-108246217D01*
X73517500Y-107096671D01*
X73537185Y-107029632D01*
X73589989Y-106983877D01*
X73659147Y-106973933D01*
X73688948Y-106982108D01*
X73749165Y-107007051D01*
X73749169Y-107007051D01*
X73749170Y-107007052D01*
X73942456Y-107045500D01*
X73942459Y-107045500D01*
X74139543Y-107045500D01*
X74269582Y-107019632D01*
X74332835Y-107007051D01*
X74481025Y-106945669D01*
X74514907Y-106931635D01*
X74514907Y-106931634D01*
X74514914Y-106931632D01*
X74678782Y-106822139D01*
X74818139Y-106682782D01*
X74927632Y-106518914D01*
X75003051Y-106336835D01*
X75041500Y-106143541D01*
X75041500Y-102908304D01*
X100699500Y-102908304D01*
X100699500Y-103085695D01*
X100734103Y-103259658D01*
X100734106Y-103259667D01*
X100801983Y-103423540D01*
X100801990Y-103423553D01*
X100900534Y-103571033D01*
X100900535Y-103571034D01*
X100900536Y-103571035D01*
X100988182Y-103658681D01*
X101021666Y-103720002D01*
X101024500Y-103746361D01*
X101024500Y-110629638D01*
X101004815Y-110696677D01*
X100988181Y-110717319D01*
X100900538Y-110804961D01*
X100900535Y-110804965D01*
X100801990Y-110952446D01*
X100801983Y-110952459D01*
X100734106Y-111116332D01*
X100734103Y-111116341D01*
X100699500Y-111290304D01*
X100699500Y-111467695D01*
X100734103Y-111641658D01*
X100734106Y-111641667D01*
X100801983Y-111805540D01*
X100801990Y-111805553D01*
X100900535Y-111953034D01*
X100900538Y-111953038D01*
X101025961Y-112078461D01*
X101025965Y-112078464D01*
X101173446Y-112177009D01*
X101173459Y-112177016D01*
X101257203Y-112211703D01*
X101337334Y-112244894D01*
X101337336Y-112244894D01*
X101337341Y-112244896D01*
X101511304Y-112279499D01*
X101511307Y-112279500D01*
X101511309Y-112279500D01*
X101688693Y-112279500D01*
X101688694Y-112279499D01*
X101746682Y-112267964D01*
X101862658Y-112244896D01*
X101862661Y-112244894D01*
X101862666Y-112244894D01*
X102026547Y-112177013D01*
X102174035Y-112078464D01*
X102299464Y-111953035D01*
X102398013Y-111805547D01*
X102465894Y-111641666D01*
X102474030Y-111600767D01*
X102500499Y-111467695D01*
X102500500Y-111467693D01*
X102500500Y-111290306D01*
X102500499Y-111290304D01*
X102465896Y-111116341D01*
X102465893Y-111116332D01*
X102398016Y-110952459D01*
X102398009Y-110952446D01*
X102299464Y-110804965D01*
X102299461Y-110804961D01*
X102211819Y-110717319D01*
X102178334Y-110655996D01*
X102175500Y-110629638D01*
X102175500Y-103746361D01*
X102195185Y-103679322D01*
X102211814Y-103658684D01*
X102299464Y-103571035D01*
X102398013Y-103423547D01*
X102465894Y-103259666D01*
X102466442Y-103256915D01*
X102500499Y-103085695D01*
X102500500Y-103085693D01*
X102500500Y-102908306D01*
X102500499Y-102908304D01*
X103239500Y-102908304D01*
X103239500Y-103085695D01*
X103274103Y-103259658D01*
X103274106Y-103259667D01*
X103341983Y-103423540D01*
X103341990Y-103423553D01*
X103440534Y-103571033D01*
X103440535Y-103571034D01*
X103440536Y-103571035D01*
X103528182Y-103658681D01*
X103561666Y-103720002D01*
X103564500Y-103746361D01*
X103564500Y-114121765D01*
X103603719Y-114268136D01*
X103622116Y-114300000D01*
X103679485Y-114399365D01*
X105564635Y-116284515D01*
X105695865Y-116360281D01*
X105842234Y-116399500D01*
X105842236Y-116399500D01*
X114502764Y-116399500D01*
X114502766Y-116399500D01*
X114649135Y-116360281D01*
X114780365Y-116284515D01*
X116284514Y-114780366D01*
X116284515Y-114780362D01*
X116284518Y-114780360D01*
X116304044Y-114746542D01*
X116336567Y-114690208D01*
X116360281Y-114649135D01*
X116393177Y-114526365D01*
X116399500Y-114502767D01*
X116399500Y-114351234D01*
X116399500Y-111959228D01*
X116419185Y-111892189D01*
X116467204Y-111848743D01*
X116552257Y-111805407D01*
X116582006Y-111783793D01*
X116729193Y-111676857D01*
X116729195Y-111676854D01*
X116729199Y-111676852D01*
X116883852Y-111522199D01*
X116883854Y-111522195D01*
X116883857Y-111522193D01*
X116953554Y-111426262D01*
X117012407Y-111345257D01*
X117111701Y-111150383D01*
X117179286Y-110942375D01*
X117193815Y-110850641D01*
X141340500Y-110850641D01*
X141340500Y-111149358D01*
X141373943Y-111446172D01*
X141373945Y-111446184D01*
X141440413Y-111737403D01*
X141440417Y-111737415D01*
X141539072Y-112019353D01*
X141668674Y-112288474D01*
X141827600Y-112541403D01*
X141827601Y-112541405D01*
X142013833Y-112774934D01*
X142225065Y-112986166D01*
X142458594Y-113172398D01*
X142458597Y-113172399D01*
X142458599Y-113172401D01*
X142711523Y-113331324D01*
X142980650Y-113460929D01*
X143192400Y-113535023D01*
X143262584Y-113559582D01*
X143262596Y-113559586D01*
X143553815Y-113626055D01*
X143850642Y-113659499D01*
X143850643Y-113659500D01*
X143850646Y-113659500D01*
X144149357Y-113659500D01*
X144149357Y-113659499D01*
X144446185Y-113626055D01*
X144737404Y-113559586D01*
X145019350Y-113460929D01*
X145288477Y-113331324D01*
X145541401Y-113172401D01*
X145586688Y-113136286D01*
X145774934Y-112986166D01*
X145774936Y-112986163D01*
X145774941Y-112986160D01*
X145986160Y-112774941D01*
X146034953Y-112713757D01*
X146172398Y-112541405D01*
X146172399Y-112541403D01*
X146172401Y-112541401D01*
X146331324Y-112288477D01*
X146460929Y-112019350D01*
X146559586Y-111737404D01*
X146626055Y-111446185D01*
X146659500Y-111149354D01*
X146659500Y-110850646D01*
X146626055Y-110553815D01*
X146559586Y-110262596D01*
X146460929Y-109980650D01*
X146331324Y-109711523D01*
X146172401Y-109458599D01*
X146172399Y-109458596D01*
X146172398Y-109458594D01*
X145986166Y-109225065D01*
X145774934Y-109013833D01*
X145541405Y-108827601D01*
X145541403Y-108827600D01*
X145288474Y-108668674D01*
X145019353Y-108539072D01*
X144737415Y-108440417D01*
X144737403Y-108440413D01*
X144511795Y-108388920D01*
X144446185Y-108373945D01*
X144446181Y-108373944D01*
X144446172Y-108373943D01*
X144149358Y-108340500D01*
X144149354Y-108340500D01*
X143850646Y-108340500D01*
X143850641Y-108340500D01*
X143553827Y-108373943D01*
X143553815Y-108373945D01*
X143262596Y-108440413D01*
X143262584Y-108440417D01*
X142980646Y-108539072D01*
X142711525Y-108668674D01*
X142458596Y-108827600D01*
X142458594Y-108827601D01*
X142225065Y-109013833D01*
X142013833Y-109225065D01*
X141827601Y-109458594D01*
X141827600Y-109458596D01*
X141668674Y-109711525D01*
X141539072Y-109980646D01*
X141440417Y-110262584D01*
X141440413Y-110262596D01*
X141373945Y-110553815D01*
X141373943Y-110553827D01*
X141340500Y-110850641D01*
X117193815Y-110850641D01*
X117207054Y-110767054D01*
X117213500Y-110726360D01*
X117213500Y-110507638D01*
X117191224Y-110367000D01*
X117179286Y-110291625D01*
X117131197Y-110143619D01*
X117111702Y-110083619D01*
X117111701Y-110083616D01*
X117024060Y-109911614D01*
X117012407Y-109888743D01*
X116993681Y-109862969D01*
X116883857Y-109711806D01*
X116729199Y-109557148D01*
X116695297Y-109532517D01*
X116578028Y-109447316D01*
X116535364Y-109391989D01*
X116529385Y-109322376D01*
X116561990Y-109260580D01*
X116578023Y-109246686D01*
X116729199Y-109136852D01*
X116883852Y-108982199D01*
X116883854Y-108982195D01*
X116883857Y-108982193D01*
X116940229Y-108904601D01*
X117012407Y-108805257D01*
X117111701Y-108610383D01*
X117179286Y-108402375D01*
X117204019Y-108246217D01*
X117213500Y-108186361D01*
X117213500Y-107967638D01*
X117193595Y-107841971D01*
X117179286Y-107751625D01*
X117124866Y-107584136D01*
X117111702Y-107543619D01*
X117111701Y-107543616D01*
X117067638Y-107457139D01*
X117012407Y-107348743D01*
X116967810Y-107287360D01*
X116883857Y-107171806D01*
X116729193Y-107017142D01*
X116552260Y-106888595D01*
X116552259Y-106888594D01*
X116552257Y-106888593D01*
X116403610Y-106812853D01*
X116357383Y-106789298D01*
X116357380Y-106789297D01*
X116149376Y-106721714D01*
X116065663Y-106708455D01*
X125491500Y-106708455D01*
X125491500Y-106905544D01*
X125529947Y-107098828D01*
X125529949Y-107098836D01*
X125605367Y-107280910D01*
X125605372Y-107280920D01*
X125714860Y-107444780D01*
X125714863Y-107444784D01*
X125854215Y-107584136D01*
X125854219Y-107584139D01*
X126018079Y-107693627D01*
X126018083Y-107693629D01*
X126018086Y-107693631D01*
X126200164Y-107769051D01*
X126393455Y-107807499D01*
X126393458Y-107807500D01*
X126393460Y-107807500D01*
X126590542Y-107807500D01*
X126590543Y-107807499D01*
X126783836Y-107769051D01*
X126965914Y-107693631D01*
X127129781Y-107584139D01*
X127256778Y-107457141D01*
X127256782Y-107457139D01*
X127396139Y-107317782D01*
X127505632Y-107153914D01*
X127581051Y-106971835D01*
X127586290Y-106945500D01*
X127619500Y-106778540D01*
X127619500Y-106581460D01*
X127619500Y-97302713D01*
X144064500Y-97302713D01*
X144064500Y-97515286D01*
X144093962Y-97701306D01*
X144097754Y-97725243D01*
X144147613Y-97878693D01*
X144163444Y-97927414D01*
X144259951Y-98116820D01*
X144384890Y-98288786D01*
X144498430Y-98402326D01*
X144531915Y-98463649D01*
X144526931Y-98533341D01*
X144485059Y-98589274D01*
X144454083Y-98606189D01*
X144322669Y-98655203D01*
X144322664Y-98655206D01*
X144207455Y-98741452D01*
X144207452Y-98741455D01*
X144121206Y-98856664D01*
X144121202Y-98856671D01*
X144070908Y-98991517D01*
X144064501Y-99051116D01*
X144064501Y-99051123D01*
X144064500Y-99051135D01*
X144064500Y-100846870D01*
X144064501Y-100846876D01*
X144070908Y-100906483D01*
X144121202Y-101041328D01*
X144121206Y-101041335D01*
X144207452Y-101156544D01*
X144207455Y-101156547D01*
X144322664Y-101242793D01*
X144322671Y-101242797D01*
X144457517Y-101293091D01*
X144457516Y-101293091D01*
X144464444Y-101293835D01*
X144517127Y-101299500D01*
X146312872Y-101299499D01*
X146372483Y-101293091D01*
X146507331Y-101242796D01*
X146622546Y-101156546D01*
X146708796Y-101041331D01*
X146759091Y-100906483D01*
X146765500Y-100846873D01*
X146765499Y-99051128D01*
X146759091Y-98991517D01*
X146708796Y-98856669D01*
X146708795Y-98856668D01*
X146708793Y-98856664D01*
X146622547Y-98741455D01*
X146622544Y-98741452D01*
X146507335Y-98655206D01*
X146507328Y-98655202D01*
X146375917Y-98606189D01*
X146319983Y-98564318D01*
X146295566Y-98498853D01*
X146310418Y-98430580D01*
X146331563Y-98402332D01*
X146445104Y-98288792D01*
X146570051Y-98116816D01*
X146666557Y-97927412D01*
X146732246Y-97725243D01*
X146765500Y-97515287D01*
X146765500Y-97302713D01*
X146732246Y-97092757D01*
X146666557Y-96890588D01*
X146570051Y-96701184D01*
X146570049Y-96701181D01*
X146570048Y-96701179D01*
X146445109Y-96529213D01*
X146294786Y-96378890D01*
X146122820Y-96253951D01*
X145933414Y-96157444D01*
X145933413Y-96157443D01*
X145933412Y-96157443D01*
X145731243Y-96091754D01*
X145731241Y-96091753D01*
X145731240Y-96091753D01*
X145569957Y-96066208D01*
X145521287Y-96058500D01*
X145308713Y-96058500D01*
X145260042Y-96066208D01*
X145098760Y-96091753D01*
X144896585Y-96157444D01*
X144707179Y-96253951D01*
X144535213Y-96378890D01*
X144384890Y-96529213D01*
X144259951Y-96701179D01*
X144163444Y-96890585D01*
X144097753Y-97092760D01*
X144064500Y-97302713D01*
X127619500Y-97302713D01*
X127619500Y-92984713D01*
X137206500Y-92984713D01*
X137206500Y-93197286D01*
X137237898Y-93395528D01*
X137239754Y-93407243D01*
X137281149Y-93534644D01*
X137305444Y-93609414D01*
X137401951Y-93798820D01*
X137526890Y-93970786D01*
X137677213Y-94121109D01*
X137849179Y-94246048D01*
X137849181Y-94246049D01*
X137849184Y-94246051D01*
X138038588Y-94342557D01*
X138240757Y-94408246D01*
X138450713Y-94441500D01*
X138450714Y-94441500D01*
X138663286Y-94441500D01*
X138663287Y-94441500D01*
X138873243Y-94408246D01*
X139075412Y-94342557D01*
X139264816Y-94246051D01*
X139336320Y-94194101D01*
X139436786Y-94121109D01*
X139436788Y-94121106D01*
X139436792Y-94121104D01*
X139587104Y-93970792D01*
X139587106Y-93970788D01*
X139587109Y-93970786D01*
X139712048Y-93798820D01*
X139712047Y-93798820D01*
X139712051Y-93798816D01*
X139808557Y-93609412D01*
X139874246Y-93407243D01*
X139907500Y-93197287D01*
X139907500Y-92984713D01*
X139874246Y-92774757D01*
X139808557Y-92572588D01*
X139712051Y-92383184D01*
X139712049Y-92383181D01*
X139712048Y-92383179D01*
X139587109Y-92211213D01*
X139436786Y-92060890D01*
X139264820Y-91935951D01*
X139075414Y-91839444D01*
X139075413Y-91839443D01*
X139075412Y-91839443D01*
X138873243Y-91773754D01*
X138873241Y-91773753D01*
X138873240Y-91773753D01*
X138711957Y-91748208D01*
X138663287Y-91740500D01*
X138450713Y-91740500D01*
X138402042Y-91748208D01*
X138240760Y-91773753D01*
X138038585Y-91839444D01*
X137849179Y-91935951D01*
X137677213Y-92060890D01*
X137526890Y-92211213D01*
X137401951Y-92383179D01*
X137305444Y-92572585D01*
X137239753Y-92774760D01*
X137206500Y-92984713D01*
X127619500Y-92984713D01*
X127619500Y-85301782D01*
X127639185Y-85234743D01*
X127655819Y-85214101D01*
X127886207Y-84983713D01*
X144064500Y-84983713D01*
X144064500Y-85196287D01*
X144070591Y-85234743D01*
X144097753Y-85406239D01*
X144163444Y-85608414D01*
X144259951Y-85797820D01*
X144384890Y-85969786D01*
X144498818Y-86083714D01*
X144532303Y-86145037D01*
X144527319Y-86214729D01*
X144485447Y-86270662D01*
X144454471Y-86287577D01*
X144322912Y-86336646D01*
X144322906Y-86336649D01*
X144207812Y-86422809D01*
X144207809Y-86422812D01*
X144121649Y-86537906D01*
X144121645Y-86537913D01*
X144071403Y-86672620D01*
X144071401Y-86672627D01*
X144065000Y-86732155D01*
X144065000Y-87380000D01*
X144981988Y-87380000D01*
X144949075Y-87437007D01*
X144915000Y-87564174D01*
X144915000Y-87695826D01*
X144949075Y-87822993D01*
X144981988Y-87880000D01*
X144065000Y-87880000D01*
X144065000Y-88527844D01*
X144071401Y-88587372D01*
X144071403Y-88587379D01*
X144121645Y-88722086D01*
X144121649Y-88722093D01*
X144207809Y-88837187D01*
X144207812Y-88837190D01*
X144322906Y-88923350D01*
X144322913Y-88923354D01*
X144457620Y-88973596D01*
X144457627Y-88973598D01*
X144517155Y-88979999D01*
X144517172Y-88980000D01*
X145165000Y-88980000D01*
X145165000Y-88063012D01*
X145222007Y-88095925D01*
X145349174Y-88130000D01*
X145480826Y-88130000D01*
X145607993Y-88095925D01*
X145665000Y-88063012D01*
X145665000Y-88980000D01*
X146312828Y-88980000D01*
X146312844Y-88979999D01*
X146372372Y-88973598D01*
X146372379Y-88973596D01*
X146507086Y-88923354D01*
X146507093Y-88923350D01*
X146622187Y-88837190D01*
X146622190Y-88837187D01*
X146708350Y-88722093D01*
X146708354Y-88722086D01*
X146758596Y-88587379D01*
X146758598Y-88587372D01*
X146764999Y-88527844D01*
X146765000Y-88527827D01*
X146765000Y-87880000D01*
X145848012Y-87880000D01*
X145880925Y-87822993D01*
X145915000Y-87695826D01*
X145915000Y-87564174D01*
X145880925Y-87437007D01*
X145848012Y-87380000D01*
X146765000Y-87380000D01*
X146765000Y-86732172D01*
X146764999Y-86732155D01*
X146758598Y-86672627D01*
X146758596Y-86672620D01*
X146708354Y-86537913D01*
X146708350Y-86537906D01*
X146622190Y-86422812D01*
X146622187Y-86422809D01*
X146507093Y-86336649D01*
X146507088Y-86336646D01*
X146375528Y-86287577D01*
X146319595Y-86245705D01*
X146295178Y-86180241D01*
X146310030Y-86111968D01*
X146331175Y-86083720D01*
X146445104Y-85969792D01*
X146570051Y-85797816D01*
X146666557Y-85608412D01*
X146732246Y-85406243D01*
X146765500Y-85196287D01*
X146765500Y-84983713D01*
X146732246Y-84773757D01*
X146666557Y-84571588D01*
X146570051Y-84382184D01*
X146570049Y-84382181D01*
X146570048Y-84382179D01*
X146445109Y-84210213D01*
X146294786Y-84059890D01*
X146122820Y-83934951D01*
X145933414Y-83838444D01*
X145933413Y-83838443D01*
X145933412Y-83838443D01*
X145731243Y-83772754D01*
X145731241Y-83772753D01*
X145731240Y-83772753D01*
X145569957Y-83747208D01*
X145521287Y-83739500D01*
X145308713Y-83739500D01*
X145260042Y-83747208D01*
X145098760Y-83772753D01*
X144896585Y-83838444D01*
X144707179Y-83934951D01*
X144535213Y-84059890D01*
X144384890Y-84210213D01*
X144259951Y-84382179D01*
X144163444Y-84571585D01*
X144097753Y-84773760D01*
X144082191Y-84872016D01*
X144064500Y-84983713D01*
X127886207Y-84983713D01*
X128884617Y-83985304D01*
X137402500Y-83985304D01*
X137402500Y-84162695D01*
X137437103Y-84336658D01*
X137437106Y-84336667D01*
X137504983Y-84500540D01*
X137504990Y-84500553D01*
X137603535Y-84648034D01*
X137603538Y-84648038D01*
X137728961Y-84773461D01*
X137728965Y-84773464D01*
X137876446Y-84872009D01*
X137876459Y-84872016D01*
X137971784Y-84911500D01*
X138040334Y-84939894D01*
X138040336Y-84939894D01*
X138040341Y-84939896D01*
X138214304Y-84974499D01*
X138214307Y-84974500D01*
X138214309Y-84974500D01*
X138391693Y-84974500D01*
X138391694Y-84974499D01*
X138449682Y-84962964D01*
X138565658Y-84939896D01*
X138565661Y-84939894D01*
X138565666Y-84939894D01*
X138729547Y-84872013D01*
X138877035Y-84773464D01*
X139002464Y-84648035D01*
X139101013Y-84500547D01*
X139168894Y-84336666D01*
X139182390Y-84268820D01*
X139203499Y-84162695D01*
X139203500Y-84162693D01*
X139203500Y-83985306D01*
X139203499Y-83985304D01*
X139168896Y-83811341D01*
X139168893Y-83811332D01*
X139101016Y-83647459D01*
X139101009Y-83647446D01*
X139002464Y-83499965D01*
X139002461Y-83499961D01*
X138939819Y-83437319D01*
X138906334Y-83375996D01*
X138903500Y-83349638D01*
X138903500Y-78379713D01*
X139746500Y-78379713D01*
X139746500Y-78592286D01*
X139769454Y-78737215D01*
X139779754Y-78802243D01*
X139811870Y-78901086D01*
X139845444Y-79004414D01*
X139941951Y-79193820D01*
X140066890Y-79365786D01*
X140217213Y-79516109D01*
X140389179Y-79641048D01*
X140389181Y-79641049D01*
X140389184Y-79641051D01*
X140578588Y-79737557D01*
X140780757Y-79803246D01*
X140990713Y-79836500D01*
X140990714Y-79836500D01*
X141203286Y-79836500D01*
X141203287Y-79836500D01*
X141413243Y-79803246D01*
X141615412Y-79737557D01*
X141804816Y-79641051D01*
X141891138Y-79578335D01*
X141976786Y-79516109D01*
X141976788Y-79516106D01*
X141976792Y-79516104D01*
X142127104Y-79365792D01*
X142127106Y-79365788D01*
X142127109Y-79365786D01*
X142252048Y-79193820D01*
X142252047Y-79193820D01*
X142252051Y-79193816D01*
X142348557Y-79004412D01*
X142414246Y-78802243D01*
X142447500Y-78592287D01*
X142447500Y-78379713D01*
X142414246Y-78169757D01*
X142348557Y-77967588D01*
X142252051Y-77778184D01*
X142252049Y-77778181D01*
X142252048Y-77778179D01*
X142127109Y-77606213D01*
X141976786Y-77455890D01*
X141804820Y-77330951D01*
X141615414Y-77234444D01*
X141615413Y-77234443D01*
X141615412Y-77234443D01*
X141413243Y-77168754D01*
X141413241Y-77168753D01*
X141413240Y-77168753D01*
X141250305Y-77142947D01*
X141203287Y-77135500D01*
X140990713Y-77135500D01*
X140943695Y-77142947D01*
X140780760Y-77168753D01*
X140578585Y-77234444D01*
X140389179Y-77330951D01*
X140217213Y-77455890D01*
X140066890Y-77606213D01*
X139941951Y-77778179D01*
X139845444Y-77967585D01*
X139779753Y-78169760D01*
X139746500Y-78379713D01*
X138903500Y-78379713D01*
X138903500Y-75839713D01*
X144064500Y-75839713D01*
X144064500Y-76052287D01*
X144097754Y-76262243D01*
X144156323Y-76442500D01*
X144163444Y-76464414D01*
X144259951Y-76653820D01*
X144384890Y-76825786D01*
X144498430Y-76939326D01*
X144531915Y-77000649D01*
X144526931Y-77070341D01*
X144485059Y-77126274D01*
X144454083Y-77143189D01*
X144322669Y-77192203D01*
X144322664Y-77192206D01*
X144207455Y-77278452D01*
X144207452Y-77278455D01*
X144121206Y-77393664D01*
X144121202Y-77393671D01*
X144070908Y-77528517D01*
X144064501Y-77588116D01*
X144064501Y-77588123D01*
X144064500Y-77588135D01*
X144064500Y-79383870D01*
X144064501Y-79383876D01*
X144070908Y-79443483D01*
X144121202Y-79578328D01*
X144121206Y-79578335D01*
X144207452Y-79693544D01*
X144207455Y-79693547D01*
X144322664Y-79779793D01*
X144322671Y-79779797D01*
X144457517Y-79830091D01*
X144457516Y-79830091D01*
X144464444Y-79830835D01*
X144517127Y-79836500D01*
X146312872Y-79836499D01*
X146372483Y-79830091D01*
X146507331Y-79779796D01*
X146622546Y-79693546D01*
X146708796Y-79578331D01*
X146759091Y-79443483D01*
X146765500Y-79383873D01*
X146765499Y-77588128D01*
X146759091Y-77528517D01*
X146736226Y-77467214D01*
X146708797Y-77393671D01*
X146708793Y-77393664D01*
X146622547Y-77278455D01*
X146622544Y-77278452D01*
X146507335Y-77192206D01*
X146507328Y-77192202D01*
X146375917Y-77143189D01*
X146319983Y-77101318D01*
X146295566Y-77035853D01*
X146310418Y-76967580D01*
X146331563Y-76939332D01*
X146445104Y-76825792D01*
X146570051Y-76653816D01*
X146666557Y-76464412D01*
X146732246Y-76262243D01*
X146765500Y-76052287D01*
X146765500Y-75839713D01*
X146732246Y-75629757D01*
X146666557Y-75427588D01*
X146570051Y-75238184D01*
X146570049Y-75238181D01*
X146570048Y-75238179D01*
X146445109Y-75066213D01*
X146294786Y-74915890D01*
X146122817Y-74790949D01*
X146113504Y-74786204D01*
X146062707Y-74738230D01*
X146045912Y-74670409D01*
X146068449Y-74604274D01*
X146113507Y-74565232D01*
X146122558Y-74560620D01*
X146294459Y-74435727D01*
X146294464Y-74435723D01*
X146444723Y-74285464D01*
X146444727Y-74285459D01*
X146569620Y-74113557D01*
X146666095Y-73924217D01*
X146731757Y-73722129D01*
X146731757Y-73722126D01*
X146742231Y-73656000D01*
X145848012Y-73656000D01*
X145880925Y-73598993D01*
X145915000Y-73471826D01*
X145915000Y-73340174D01*
X145880925Y-73213007D01*
X145848012Y-73156000D01*
X146742231Y-73156000D01*
X146731757Y-73089873D01*
X146731757Y-73089870D01*
X146666095Y-72887782D01*
X146569620Y-72698442D01*
X146444727Y-72526540D01*
X146444723Y-72526535D01*
X146294464Y-72376276D01*
X146294459Y-72376272D01*
X146122557Y-72251379D01*
X145933215Y-72154903D01*
X145731124Y-72089241D01*
X145665000Y-72078768D01*
X145665000Y-72972988D01*
X145607993Y-72940075D01*
X145480826Y-72906000D01*
X145349174Y-72906000D01*
X145222007Y-72940075D01*
X145165000Y-72972988D01*
X145165000Y-72078768D01*
X145164999Y-72078768D01*
X145098875Y-72089241D01*
X144896784Y-72154903D01*
X144707442Y-72251379D01*
X144535540Y-72376272D01*
X144535535Y-72376276D01*
X144385276Y-72526535D01*
X144385272Y-72526540D01*
X144260379Y-72698442D01*
X144163904Y-72887782D01*
X144098242Y-73089870D01*
X144098242Y-73089873D01*
X144087769Y-73156000D01*
X144981988Y-73156000D01*
X144949075Y-73213007D01*
X144915000Y-73340174D01*
X144915000Y-73471826D01*
X144949075Y-73598993D01*
X144981988Y-73656000D01*
X144087769Y-73656000D01*
X144098242Y-73722126D01*
X144098242Y-73722129D01*
X144163904Y-73924217D01*
X144260379Y-74113557D01*
X144385272Y-74285459D01*
X144385276Y-74285464D01*
X144535535Y-74435723D01*
X144535540Y-74435727D01*
X144707444Y-74560622D01*
X144716495Y-74565234D01*
X144767292Y-74613208D01*
X144784087Y-74681029D01*
X144761550Y-74747164D01*
X144716499Y-74786202D01*
X144707182Y-74790949D01*
X144535213Y-74915890D01*
X144384890Y-75066213D01*
X144259951Y-75238179D01*
X144163444Y-75427585D01*
X144097753Y-75629760D01*
X144064500Y-75839713D01*
X138903500Y-75839713D01*
X138903500Y-65856918D01*
X138923185Y-65789879D01*
X138958611Y-65753815D01*
X138963393Y-65750620D01*
X139004035Y-65723464D01*
X139129464Y-65598035D01*
X139228013Y-65450547D01*
X139295894Y-65286666D01*
X139299341Y-65269341D01*
X139330499Y-65112695D01*
X139330500Y-65112693D01*
X139330500Y-64935306D01*
X139330499Y-64935304D01*
X139295896Y-64761341D01*
X139295893Y-64761332D01*
X139290947Y-64749392D01*
X139256450Y-64666106D01*
X139228016Y-64597459D01*
X139228009Y-64597446D01*
X139129464Y-64449965D01*
X139129461Y-64449961D01*
X139004038Y-64324538D01*
X139004034Y-64324535D01*
X138856553Y-64225990D01*
X138856540Y-64225983D01*
X138692667Y-64158106D01*
X138692658Y-64158103D01*
X138518694Y-64123500D01*
X138518691Y-64123500D01*
X138341309Y-64123500D01*
X138341306Y-64123500D01*
X138167341Y-64158103D01*
X138167332Y-64158106D01*
X138003459Y-64225983D01*
X138003446Y-64225990D01*
X137855965Y-64324535D01*
X137855961Y-64324538D01*
X137730538Y-64449961D01*
X137730535Y-64449965D01*
X137631990Y-64597446D01*
X137631983Y-64597459D01*
X137564106Y-64761332D01*
X137564103Y-64761341D01*
X137529500Y-64935304D01*
X137529500Y-65112695D01*
X137564103Y-65286658D01*
X137564106Y-65286667D01*
X137631984Y-65450542D01*
X137631985Y-65450543D01*
X137631987Y-65450547D01*
X137680621Y-65523332D01*
X137681602Y-65524800D01*
X137702480Y-65591477D01*
X137702500Y-65593691D01*
X137702500Y-83349638D01*
X137682815Y-83416677D01*
X137666181Y-83437319D01*
X137603538Y-83499961D01*
X137603535Y-83499965D01*
X137504990Y-83647446D01*
X137504983Y-83647459D01*
X137437106Y-83811332D01*
X137437103Y-83811341D01*
X137402500Y-83985304D01*
X128884617Y-83985304D01*
X128978385Y-83891536D01*
X131206137Y-81663784D01*
X131206137Y-81663783D01*
X131206140Y-81663781D01*
X131315632Y-81499914D01*
X131391052Y-81317835D01*
X131429500Y-81124540D01*
X131429500Y-80927459D01*
X131429500Y-67602304D01*
X131941500Y-67602304D01*
X131941500Y-67779695D01*
X131976103Y-67953658D01*
X131976106Y-67953667D01*
X132043983Y-68117540D01*
X132043990Y-68117553D01*
X132142535Y-68265034D01*
X132142538Y-68265038D01*
X132267961Y-68390461D01*
X132267965Y-68390464D01*
X132415446Y-68489009D01*
X132415459Y-68489016D01*
X132538363Y-68539923D01*
X132579334Y-68556894D01*
X132579336Y-68556894D01*
X132579341Y-68556896D01*
X132753304Y-68591499D01*
X132753307Y-68591500D01*
X132753309Y-68591500D01*
X132930693Y-68591500D01*
X132930694Y-68591499D01*
X132988682Y-68579964D01*
X133104658Y-68556896D01*
X133104661Y-68556894D01*
X133104666Y-68556894D01*
X133268547Y-68489013D01*
X133416035Y-68390464D01*
X133541464Y-68265035D01*
X133640013Y-68117547D01*
X133707894Y-67953666D01*
X133742500Y-67779691D01*
X133742500Y-67602309D01*
X133742500Y-67602306D01*
X133742499Y-67602304D01*
X133707896Y-67428341D01*
X133707893Y-67428332D01*
X133640016Y-67264459D01*
X133640009Y-67264446D01*
X133541464Y-67116965D01*
X133541461Y-67116961D01*
X133453819Y-67029319D01*
X133420334Y-66967996D01*
X133417500Y-66941638D01*
X133417500Y-66381623D01*
X133437185Y-66314584D01*
X133472608Y-66278521D01*
X133543035Y-66231464D01*
X133668464Y-66106035D01*
X133767013Y-65958547D01*
X133834894Y-65794666D01*
X133835847Y-65789879D01*
X133869499Y-65620695D01*
X133869500Y-65620693D01*
X133869500Y-65443306D01*
X133869499Y-65443304D01*
X133834896Y-65269341D01*
X133834893Y-65269332D01*
X133767016Y-65105459D01*
X133767009Y-65105446D01*
X133668464Y-64957965D01*
X133668461Y-64957961D01*
X133543038Y-64832538D01*
X133543034Y-64832535D01*
X133395553Y-64733990D01*
X133395540Y-64733983D01*
X133231667Y-64666106D01*
X133231658Y-64666103D01*
X133057694Y-64631500D01*
X133057691Y-64631500D01*
X132880309Y-64631500D01*
X132880306Y-64631500D01*
X132706341Y-64666103D01*
X132706332Y-64666106D01*
X132542459Y-64733983D01*
X132542446Y-64733990D01*
X132394965Y-64832535D01*
X132394961Y-64832538D01*
X132269538Y-64957961D01*
X132269535Y-64957965D01*
X132170990Y-65105446D01*
X132170983Y-65105459D01*
X132103106Y-65269332D01*
X132103103Y-65269341D01*
X132068500Y-65443304D01*
X132068500Y-65620695D01*
X132103103Y-65794658D01*
X132103106Y-65794667D01*
X132170984Y-65958542D01*
X132170985Y-65958543D01*
X132170987Y-65958547D01*
X132217958Y-66028843D01*
X132245602Y-66070215D01*
X132266480Y-66136892D01*
X132266500Y-66139106D01*
X132266500Y-66941638D01*
X132246815Y-67008677D01*
X132230181Y-67029319D01*
X132142538Y-67116961D01*
X132142535Y-67116965D01*
X132043990Y-67264446D01*
X132043983Y-67264459D01*
X131976106Y-67428332D01*
X131976103Y-67428341D01*
X131941500Y-67602304D01*
X131429500Y-67602304D01*
X131429500Y-49423713D01*
X144064500Y-49423713D01*
X144064500Y-49636286D01*
X144097753Y-49846239D01*
X144163444Y-50048414D01*
X144259951Y-50237820D01*
X144384890Y-50409786D01*
X144498818Y-50523714D01*
X144532303Y-50585037D01*
X144527319Y-50654729D01*
X144485447Y-50710662D01*
X144454471Y-50727577D01*
X144322912Y-50776646D01*
X144322906Y-50776649D01*
X144207812Y-50862809D01*
X144207809Y-50862812D01*
X144121649Y-50977906D01*
X144121645Y-50977913D01*
X144071403Y-51112620D01*
X144071401Y-51112627D01*
X144065000Y-51172155D01*
X144065000Y-51820000D01*
X144981988Y-51820000D01*
X144949075Y-51877007D01*
X144915000Y-52004174D01*
X144915000Y-52135826D01*
X144949075Y-52262993D01*
X144981988Y-52320000D01*
X144065000Y-52320000D01*
X144065000Y-52967844D01*
X144071401Y-53027372D01*
X144071403Y-53027379D01*
X144121645Y-53162086D01*
X144121649Y-53162093D01*
X144207809Y-53277187D01*
X144207812Y-53277190D01*
X144322906Y-53363350D01*
X144322913Y-53363354D01*
X144457620Y-53413596D01*
X144457627Y-53413598D01*
X144517155Y-53419999D01*
X144517172Y-53420000D01*
X145165000Y-53420000D01*
X145165000Y-52503012D01*
X145222007Y-52535925D01*
X145349174Y-52570000D01*
X145480826Y-52570000D01*
X145607993Y-52535925D01*
X145665000Y-52503012D01*
X145665000Y-53420000D01*
X146312828Y-53420000D01*
X146312844Y-53419999D01*
X146372372Y-53413598D01*
X146372379Y-53413596D01*
X146507086Y-53363354D01*
X146507093Y-53363350D01*
X146622187Y-53277190D01*
X146622190Y-53277187D01*
X146708350Y-53162093D01*
X146708354Y-53162086D01*
X146758596Y-53027379D01*
X146758598Y-53027372D01*
X146764999Y-52967844D01*
X146765000Y-52967827D01*
X146765000Y-52320000D01*
X145848012Y-52320000D01*
X145880925Y-52262993D01*
X145915000Y-52135826D01*
X145915000Y-52004174D01*
X145880925Y-51877007D01*
X145848012Y-51820000D01*
X146765000Y-51820000D01*
X146765000Y-51172172D01*
X146764999Y-51172155D01*
X146758598Y-51112627D01*
X146758596Y-51112620D01*
X146708354Y-50977913D01*
X146708350Y-50977906D01*
X146622190Y-50862812D01*
X146622187Y-50862809D01*
X146507093Y-50776649D01*
X146507088Y-50776646D01*
X146375528Y-50727577D01*
X146319595Y-50685705D01*
X146295178Y-50620241D01*
X146310030Y-50551968D01*
X146331175Y-50523720D01*
X146445104Y-50409792D01*
X146570051Y-50237816D01*
X146666557Y-50048412D01*
X146732246Y-49846243D01*
X146765500Y-49636287D01*
X146765500Y-49423713D01*
X146732246Y-49213757D01*
X146666557Y-49011588D01*
X146570051Y-48822184D01*
X146570049Y-48822181D01*
X146570048Y-48822179D01*
X146445109Y-48650213D01*
X146294786Y-48499890D01*
X146122820Y-48374951D01*
X145933414Y-48278444D01*
X145933413Y-48278443D01*
X145933412Y-48278443D01*
X145731243Y-48212754D01*
X145731241Y-48212753D01*
X145731240Y-48212753D01*
X145569957Y-48187208D01*
X145521287Y-48179500D01*
X145308713Y-48179500D01*
X145260042Y-48187208D01*
X145098760Y-48212753D01*
X144896585Y-48278444D01*
X144707179Y-48374951D01*
X144535213Y-48499890D01*
X144384890Y-48650213D01*
X144259951Y-48822179D01*
X144163444Y-49011585D01*
X144097753Y-49213760D01*
X144064500Y-49423713D01*
X131429500Y-49423713D01*
X131429500Y-41176459D01*
X131429500Y-41176456D01*
X131391052Y-40983170D01*
X131391051Y-40983169D01*
X131391051Y-40983165D01*
X131380941Y-40958757D01*
X131354375Y-40894619D01*
X131336159Y-40850641D01*
X141340500Y-40850641D01*
X141340500Y-41149358D01*
X141373943Y-41446172D01*
X141373945Y-41446184D01*
X141440413Y-41737403D01*
X141440417Y-41737415D01*
X141539072Y-42019353D01*
X141668674Y-42288474D01*
X141827600Y-42541403D01*
X141827601Y-42541405D01*
X142013833Y-42774934D01*
X142225065Y-42986166D01*
X142458594Y-43172398D01*
X142458597Y-43172399D01*
X142458599Y-43172401D01*
X142711523Y-43331324D01*
X142980650Y-43460929D01*
X143175572Y-43529135D01*
X143262584Y-43559582D01*
X143262596Y-43559586D01*
X143553815Y-43626055D01*
X143850642Y-43659499D01*
X143850643Y-43659500D01*
X143850646Y-43659500D01*
X144149357Y-43659500D01*
X144149357Y-43659499D01*
X144446185Y-43626055D01*
X144737404Y-43559586D01*
X145019350Y-43460929D01*
X145288477Y-43331324D01*
X145541401Y-43172401D01*
X145541405Y-43172398D01*
X145774934Y-42986166D01*
X145774936Y-42986163D01*
X145774941Y-42986160D01*
X145986160Y-42774941D01*
X146104576Y-42626452D01*
X146172398Y-42541405D01*
X146172399Y-42541403D01*
X146172401Y-42541401D01*
X146331324Y-42288477D01*
X146460929Y-42019350D01*
X146559586Y-41737404D01*
X146626055Y-41446185D01*
X146659500Y-41149354D01*
X146659500Y-40850646D01*
X146626055Y-40553815D01*
X146559586Y-40262596D01*
X146556374Y-40253418D01*
X146520417Y-40150658D01*
X146460929Y-39980650D01*
X146331324Y-39711523D01*
X146172401Y-39458599D01*
X146172399Y-39458596D01*
X146172398Y-39458594D01*
X145986166Y-39225065D01*
X145774934Y-39013833D01*
X145541405Y-38827601D01*
X145541403Y-38827600D01*
X145288474Y-38668674D01*
X145019353Y-38539072D01*
X144737415Y-38440417D01*
X144737403Y-38440413D01*
X144512653Y-38389115D01*
X144446185Y-38373945D01*
X144446181Y-38373944D01*
X144446172Y-38373943D01*
X144149358Y-38340500D01*
X144149354Y-38340500D01*
X143850646Y-38340500D01*
X143850641Y-38340500D01*
X143553827Y-38373943D01*
X143553815Y-38373945D01*
X143262596Y-38440413D01*
X143262584Y-38440417D01*
X142980646Y-38539072D01*
X142711525Y-38668674D01*
X142458596Y-38827600D01*
X142458594Y-38827601D01*
X142225065Y-39013833D01*
X142013833Y-39225065D01*
X141827601Y-39458594D01*
X141827600Y-39458596D01*
X141668674Y-39711525D01*
X141539072Y-39980646D01*
X141440417Y-40262584D01*
X141440413Y-40262596D01*
X141373945Y-40553815D01*
X141373943Y-40553827D01*
X141340500Y-40850641D01*
X131336159Y-40850641D01*
X131315633Y-40801088D01*
X131315628Y-40801079D01*
X131206139Y-40637218D01*
X131206136Y-40637214D01*
X131066785Y-40497863D01*
X131066781Y-40497860D01*
X130902920Y-40388371D01*
X130902907Y-40388364D01*
X130720839Y-40312950D01*
X130720829Y-40312947D01*
X130527543Y-40274500D01*
X130527541Y-40274500D01*
X130330459Y-40274500D01*
X130330457Y-40274500D01*
X130137170Y-40312947D01*
X130137160Y-40312950D01*
X129955092Y-40388364D01*
X129955079Y-40388371D01*
X129791218Y-40497860D01*
X129791214Y-40497863D01*
X129651863Y-40637214D01*
X129651860Y-40637218D01*
X129542371Y-40801079D01*
X129542364Y-40801092D01*
X129466950Y-40983160D01*
X129466947Y-40983170D01*
X129428500Y-41176456D01*
X129428500Y-80560217D01*
X129408815Y-80627256D01*
X129392181Y-80647898D01*
X125981220Y-84058859D01*
X125981218Y-84058861D01*
X125911538Y-84128540D01*
X125841859Y-84198219D01*
X125732371Y-84362079D01*
X125732366Y-84362089D01*
X125679037Y-84490837D01*
X125665695Y-84523051D01*
X125665692Y-84523058D01*
X125656950Y-84544160D01*
X125656947Y-84544169D01*
X125618500Y-84737456D01*
X125618500Y-106277459D01*
X125606140Y-106326812D01*
X125607700Y-106327459D01*
X125605369Y-106333085D01*
X125605369Y-106333086D01*
X125582826Y-106387508D01*
X125529949Y-106515163D01*
X125529947Y-106515171D01*
X125491500Y-106708455D01*
X116065663Y-106708455D01*
X115933361Y-106687500D01*
X115933356Y-106687500D01*
X115714644Y-106687500D01*
X115714639Y-106687500D01*
X115498623Y-106721714D01*
X115290619Y-106789297D01*
X115290616Y-106789298D01*
X115095739Y-106888595D01*
X114918806Y-107017142D01*
X114764142Y-107171806D01*
X114654318Y-107322969D01*
X114598989Y-107365635D01*
X114529375Y-107371614D01*
X114467580Y-107339009D01*
X114453682Y-107322969D01*
X114343857Y-107171806D01*
X114189193Y-107017142D01*
X114012260Y-106888595D01*
X114012259Y-106888594D01*
X114012257Y-106888593D01*
X113898150Y-106830452D01*
X113817383Y-106789298D01*
X113817380Y-106789297D01*
X113609376Y-106721714D01*
X113393361Y-106687500D01*
X113393356Y-106687500D01*
X113174644Y-106687500D01*
X113174639Y-106687500D01*
X112958623Y-106721714D01*
X112750619Y-106789297D01*
X112750616Y-106789298D01*
X112555739Y-106888595D01*
X112378806Y-107017142D01*
X112224146Y-107171802D01*
X112224142Y-107171807D01*
X112114008Y-107323394D01*
X112058678Y-107366060D01*
X111989065Y-107372039D01*
X111927270Y-107339433D01*
X111913372Y-107323394D01*
X111887192Y-107287360D01*
X111887191Y-107287360D01*
X111233494Y-107941057D01*
X111217381Y-107880919D01*
X111150502Y-107765080D01*
X111055920Y-107670498D01*
X110940081Y-107603619D01*
X110879940Y-107587504D01*
X111533638Y-106933807D01*
X111533638Y-106933806D01*
X111471995Y-106889021D01*
X111471993Y-106889020D01*
X111277191Y-106789762D01*
X111277188Y-106789761D01*
X111069259Y-106722202D01*
X110853316Y-106688000D01*
X110634684Y-106688000D01*
X110418740Y-106722202D01*
X110210811Y-106789761D01*
X110210808Y-106789762D01*
X110016001Y-106889023D01*
X109954360Y-106933806D01*
X109954360Y-106933807D01*
X110608057Y-107587504D01*
X110547919Y-107603619D01*
X110432080Y-107670498D01*
X110337498Y-107765080D01*
X110270619Y-107880919D01*
X110254504Y-107941057D01*
X109629818Y-107316370D01*
X109596333Y-107255047D01*
X109593499Y-107228689D01*
X109593499Y-107140129D01*
X109593498Y-107140123D01*
X109587091Y-107080517D01*
X109574031Y-107045500D01*
X109566161Y-107024398D01*
X109536797Y-106945671D01*
X109536793Y-106945664D01*
X109450547Y-106830455D01*
X109450544Y-106830452D01*
X109335335Y-106744206D01*
X109335328Y-106744202D01*
X109200482Y-106693908D01*
X109200483Y-106693908D01*
X109140883Y-106687501D01*
X109140881Y-106687500D01*
X109140873Y-106687500D01*
X109140864Y-106687500D01*
X107267129Y-106687500D01*
X107267123Y-106687501D01*
X107207516Y-106693908D01*
X107072671Y-106744202D01*
X107072664Y-106744206D01*
X106957455Y-106830452D01*
X106957452Y-106830455D01*
X106871206Y-106945664D01*
X106871202Y-106945671D01*
X106820908Y-107080517D01*
X106818940Y-107098828D01*
X106814501Y-107140123D01*
X106814500Y-107140135D01*
X106814500Y-109013870D01*
X106814501Y-109013876D01*
X106820908Y-109073483D01*
X106871202Y-109208328D01*
X106871203Y-109208330D01*
X106919694Y-109273105D01*
X106944111Y-109338569D01*
X106929260Y-109406842D01*
X106919694Y-109421726D01*
X106871649Y-109485906D01*
X106871645Y-109485913D01*
X106821403Y-109620620D01*
X106821401Y-109620627D01*
X106815000Y-109680155D01*
X106815000Y-110367000D01*
X107761749Y-110367000D01*
X107730619Y-110420919D01*
X107696000Y-110550120D01*
X107696000Y-110683880D01*
X107730619Y-110813081D01*
X107761749Y-110867000D01*
X106815000Y-110867000D01*
X106815000Y-111553844D01*
X106821401Y-111613372D01*
X106821403Y-111613379D01*
X106871645Y-111748086D01*
X106871649Y-111748093D01*
X106957809Y-111863187D01*
X106957812Y-111863190D01*
X107072906Y-111949350D01*
X107072913Y-111949354D01*
X107207620Y-111999596D01*
X107207627Y-111999598D01*
X107267155Y-112005999D01*
X107267172Y-112006000D01*
X107954000Y-112006000D01*
X107954000Y-111059251D01*
X108007919Y-111090381D01*
X108137120Y-111125000D01*
X108270880Y-111125000D01*
X108400081Y-111090381D01*
X108454000Y-111059251D01*
X108454000Y-112006000D01*
X109140828Y-112006000D01*
X109140844Y-112005999D01*
X109200372Y-111999598D01*
X109200379Y-111999596D01*
X109335086Y-111949354D01*
X109335093Y-111949350D01*
X109450187Y-111863190D01*
X109450190Y-111863187D01*
X109536350Y-111748093D01*
X109536354Y-111748086D01*
X109570439Y-111656701D01*
X109612310Y-111600767D01*
X109677774Y-111576350D01*
X109746047Y-111591202D01*
X109774302Y-111612353D01*
X109838806Y-111676857D01*
X109985998Y-111783796D01*
X110015743Y-111805407D01*
X110129142Y-111863187D01*
X110210616Y-111904701D01*
X110210619Y-111904702D01*
X110255570Y-111919307D01*
X110418625Y-111972286D01*
X110518672Y-111988132D01*
X110634639Y-112006500D01*
X110781257Y-112006500D01*
X110848296Y-112026185D01*
X110894051Y-112078989D01*
X110903995Y-112148147D01*
X110874970Y-112211703D01*
X110868938Y-112218181D01*
X109723939Y-113363181D01*
X109662616Y-113396666D01*
X109645331Y-113398524D01*
X109645369Y-113398903D01*
X109639304Y-113399500D01*
X109465341Y-113434103D01*
X109465332Y-113434106D01*
X109301459Y-113501983D01*
X109301446Y-113501990D01*
X109153965Y-113600535D01*
X109153961Y-113600538D01*
X109028538Y-113725961D01*
X109028535Y-113725965D01*
X108929990Y-113873446D01*
X108929983Y-113873459D01*
X108862106Y-114037332D01*
X108862103Y-114037341D01*
X108827500Y-114211304D01*
X108827500Y-114388695D01*
X108862103Y-114562658D01*
X108862106Y-114562667D01*
X108929983Y-114726540D01*
X108929990Y-114726553D01*
X109028535Y-114874034D01*
X109028538Y-114874038D01*
X109153961Y-114999461D01*
X109153965Y-114999464D01*
X109186791Y-115021398D01*
X109231596Y-115075010D01*
X109240303Y-115144335D01*
X109210149Y-115207363D01*
X109150706Y-115244082D01*
X109117900Y-115248500D01*
X106207742Y-115248500D01*
X106140703Y-115228815D01*
X106120061Y-115212181D01*
X104751819Y-113843939D01*
X104718334Y-113782616D01*
X104715500Y-113756258D01*
X104715500Y-104168455D01*
X109997500Y-104168455D01*
X109997500Y-104365544D01*
X110035947Y-104558828D01*
X110035949Y-104558836D01*
X110111367Y-104740910D01*
X110111372Y-104740920D01*
X110220859Y-104904779D01*
X110220860Y-104904780D01*
X110220861Y-104904781D01*
X110344749Y-105028669D01*
X110344776Y-105028698D01*
X110487214Y-105171136D01*
X110487218Y-105171139D01*
X110651079Y-105280628D01*
X110651092Y-105280635D01*
X110779833Y-105333961D01*
X110808998Y-105346041D01*
X110833164Y-105356051D01*
X110910429Y-105371420D01*
X110939436Y-105377190D01*
X111026456Y-105394500D01*
X111026459Y-105394500D01*
X122145543Y-105394500D01*
X122173755Y-105388887D01*
X122261571Y-105371420D01*
X122338836Y-105356051D01*
X122392165Y-105333961D01*
X122520914Y-105280632D01*
X122684782Y-105171139D01*
X122824139Y-105031782D01*
X122824139Y-105031780D01*
X122834347Y-105021573D01*
X122834348Y-105021570D01*
X124221139Y-103634782D01*
X124266071Y-103567536D01*
X124330632Y-103470914D01*
X124389493Y-103328811D01*
X124406051Y-103288836D01*
X124411746Y-103260208D01*
X124431683Y-103159972D01*
X124444500Y-103095541D01*
X124444500Y-102898460D01*
X124444500Y-62949781D01*
X124464185Y-62882742D01*
X124480814Y-62862105D01*
X127002778Y-60340141D01*
X127002782Y-60340139D01*
X127142139Y-60200782D01*
X127251632Y-60036914D01*
X127310693Y-59894328D01*
X127327051Y-59854836D01*
X127332854Y-59825666D01*
X127365499Y-59661544D01*
X127365500Y-59661542D01*
X127365500Y-52733456D01*
X127327052Y-52540170D01*
X127327051Y-52540169D01*
X127327051Y-52540165D01*
X127298029Y-52470099D01*
X127251635Y-52358092D01*
X127251628Y-52358079D01*
X127142139Y-52194218D01*
X127142136Y-52194214D01*
X127002785Y-52054863D01*
X127002781Y-52054860D01*
X126838920Y-51945371D01*
X126838907Y-51945364D01*
X126656839Y-51869950D01*
X126656829Y-51869947D01*
X126463543Y-51831500D01*
X126463541Y-51831500D01*
X126266459Y-51831500D01*
X126266457Y-51831500D01*
X126073170Y-51869947D01*
X126073160Y-51869950D01*
X125891092Y-51945364D01*
X125891079Y-51945371D01*
X125727218Y-52054860D01*
X125727214Y-52054863D01*
X125587863Y-52194214D01*
X125587860Y-52194218D01*
X125478371Y-52358079D01*
X125478364Y-52358092D01*
X125402950Y-52540160D01*
X125402947Y-52540170D01*
X125364500Y-52733456D01*
X125364500Y-59097217D01*
X125344815Y-59164256D01*
X125328181Y-59184898D01*
X124025070Y-60488009D01*
X122806221Y-61706858D01*
X122806218Y-61706861D01*
X122770530Y-61742549D01*
X122666859Y-61846219D01*
X122557371Y-62010079D01*
X122557364Y-62010092D01*
X122506421Y-62133083D01*
X122506421Y-62133084D01*
X122481950Y-62192161D01*
X122481947Y-62192170D01*
X122476146Y-62221336D01*
X122443500Y-62385454D01*
X122443500Y-102531217D01*
X122423815Y-102598256D01*
X122407181Y-102618898D01*
X121668899Y-103357181D01*
X121607576Y-103390666D01*
X121581218Y-103393500D01*
X111527541Y-103393500D01*
X111478189Y-103381137D01*
X111477542Y-103382700D01*
X111289836Y-103304949D01*
X111289828Y-103304947D01*
X111096543Y-103266500D01*
X111096540Y-103266500D01*
X110899460Y-103266500D01*
X110899457Y-103266500D01*
X110706171Y-103304947D01*
X110706163Y-103304949D01*
X110524089Y-103380367D01*
X110524079Y-103380372D01*
X110360219Y-103489860D01*
X110360215Y-103489863D01*
X110220863Y-103629215D01*
X110220860Y-103629219D01*
X110111372Y-103793079D01*
X110111367Y-103793089D01*
X110035949Y-103975163D01*
X110035947Y-103975171D01*
X109997500Y-104168455D01*
X104715500Y-104168455D01*
X104715500Y-103746361D01*
X104735185Y-103679322D01*
X104751814Y-103658684D01*
X104839464Y-103571035D01*
X104938013Y-103423547D01*
X105005894Y-103259666D01*
X105006442Y-103256915D01*
X105040499Y-103085695D01*
X105040500Y-103085693D01*
X105040500Y-102908306D01*
X105040499Y-102908304D01*
X105005896Y-102734341D01*
X105005893Y-102734332D01*
X104938016Y-102570459D01*
X104938009Y-102570446D01*
X104839464Y-102422965D01*
X104839461Y-102422961D01*
X104714038Y-102297538D01*
X104714034Y-102297535D01*
X104566553Y-102198990D01*
X104566540Y-102198983D01*
X104402667Y-102131106D01*
X104402658Y-102131103D01*
X104228694Y-102096500D01*
X104228691Y-102096500D01*
X104051309Y-102096500D01*
X104051306Y-102096500D01*
X103877341Y-102131103D01*
X103877332Y-102131106D01*
X103713459Y-102198983D01*
X103713446Y-102198990D01*
X103565965Y-102297535D01*
X103565961Y-102297538D01*
X103440538Y-102422961D01*
X103440535Y-102422965D01*
X103341990Y-102570446D01*
X103341983Y-102570459D01*
X103274106Y-102734332D01*
X103274103Y-102734341D01*
X103239500Y-102908304D01*
X102500499Y-102908304D01*
X102465896Y-102734341D01*
X102465893Y-102734332D01*
X102398016Y-102570459D01*
X102398009Y-102570446D01*
X102299464Y-102422965D01*
X102299461Y-102422961D01*
X102174038Y-102297538D01*
X102174034Y-102297535D01*
X102026553Y-102198990D01*
X102026540Y-102198983D01*
X101862667Y-102131106D01*
X101862658Y-102131103D01*
X101688694Y-102096500D01*
X101688691Y-102096500D01*
X101511309Y-102096500D01*
X101511306Y-102096500D01*
X101337341Y-102131103D01*
X101337332Y-102131106D01*
X101173459Y-102198983D01*
X101173446Y-102198990D01*
X101025965Y-102297535D01*
X101025961Y-102297538D01*
X100900538Y-102422961D01*
X100900535Y-102422965D01*
X100801990Y-102570446D01*
X100801983Y-102570459D01*
X100734106Y-102734332D01*
X100734103Y-102734341D01*
X100699500Y-102908304D01*
X75041500Y-102908304D01*
X75041500Y-96604782D01*
X75061185Y-96537743D01*
X75077819Y-96517101D01*
X77400819Y-94194101D01*
X77462142Y-94160616D01*
X77531834Y-94165600D01*
X77587767Y-94207472D01*
X77612184Y-94272936D01*
X77612500Y-94281782D01*
X77612500Y-98269541D01*
X77612500Y-98269543D01*
X77612499Y-98269543D01*
X77650947Y-98462829D01*
X77650950Y-98462839D01*
X77726364Y-98644907D01*
X77726371Y-98644920D01*
X77835860Y-98808781D01*
X77835863Y-98808785D01*
X77975214Y-98948136D01*
X77975218Y-98948139D01*
X78139079Y-99057628D01*
X78139092Y-99057635D01*
X78321160Y-99133049D01*
X78321165Y-99133051D01*
X78321169Y-99133051D01*
X78321170Y-99133052D01*
X78514456Y-99171500D01*
X78514459Y-99171500D01*
X78711543Y-99171500D01*
X78841582Y-99145632D01*
X78904835Y-99133051D01*
X79086914Y-99057632D01*
X79250782Y-98948139D01*
X79390139Y-98808782D01*
X79499632Y-98644914D01*
X79575051Y-98462835D01*
X79588876Y-98393334D01*
X79613500Y-98269543D01*
X79613500Y-97701304D01*
X97016500Y-97701304D01*
X97016500Y-97878695D01*
X97051103Y-98052658D01*
X97051106Y-98052667D01*
X97118983Y-98216540D01*
X97118990Y-98216553D01*
X97217535Y-98364034D01*
X97217538Y-98364038D01*
X97342961Y-98489461D01*
X97342965Y-98489464D01*
X97490446Y-98588009D01*
X97490459Y-98588016D01*
X97613363Y-98638923D01*
X97654334Y-98655894D01*
X97654336Y-98655894D01*
X97654341Y-98655896D01*
X97828304Y-98690499D01*
X97828307Y-98690500D01*
X97828309Y-98690500D01*
X98005693Y-98690500D01*
X98005694Y-98690499D01*
X98063682Y-98678964D01*
X98179658Y-98655896D01*
X98179661Y-98655894D01*
X98179666Y-98655894D01*
X98343547Y-98588013D01*
X98491035Y-98489464D01*
X98553681Y-98426817D01*
X98615002Y-98393334D01*
X98641361Y-98390500D01*
X106336639Y-98390500D01*
X106403678Y-98410185D01*
X106424315Y-98426814D01*
X106460330Y-98462829D01*
X106486966Y-98489465D01*
X106634446Y-98588009D01*
X106634459Y-98588016D01*
X106757363Y-98638923D01*
X106798334Y-98655894D01*
X106798336Y-98655894D01*
X106798341Y-98655896D01*
X106972304Y-98690499D01*
X106972307Y-98690500D01*
X106972309Y-98690500D01*
X107149693Y-98690500D01*
X107149694Y-98690499D01*
X107207682Y-98678964D01*
X107323658Y-98655896D01*
X107323661Y-98655894D01*
X107323666Y-98655894D01*
X107487547Y-98588013D01*
X107635035Y-98489464D01*
X107760464Y-98364035D01*
X107859013Y-98216547D01*
X107926894Y-98052666D01*
X107961500Y-97878691D01*
X107961500Y-97701309D01*
X107961500Y-97701306D01*
X107961499Y-97701304D01*
X107926896Y-97527341D01*
X107926893Y-97527332D01*
X107921903Y-97515286D01*
X107909923Y-97486363D01*
X107859016Y-97363459D01*
X107859009Y-97363446D01*
X107760464Y-97215965D01*
X107760461Y-97215961D01*
X107635038Y-97090538D01*
X107635034Y-97090535D01*
X107487553Y-96991990D01*
X107487540Y-96991983D01*
X107323667Y-96924106D01*
X107323658Y-96924103D01*
X107149694Y-96889500D01*
X107149691Y-96889500D01*
X106972309Y-96889500D01*
X106972306Y-96889500D01*
X106798341Y-96924103D01*
X106798332Y-96924106D01*
X106634459Y-96991983D01*
X106634446Y-96991990D01*
X106486966Y-97090534D01*
X106455643Y-97121857D01*
X106424318Y-97153182D01*
X106362998Y-97186666D01*
X106336639Y-97189500D01*
X98641361Y-97189500D01*
X98574322Y-97169815D01*
X98553684Y-97153185D01*
X98491035Y-97090536D01*
X98491034Y-97090535D01*
X98491033Y-97090534D01*
X98343553Y-96991990D01*
X98343540Y-96991983D01*
X98179667Y-96924106D01*
X98179658Y-96924103D01*
X98005694Y-96889500D01*
X98005691Y-96889500D01*
X97828309Y-96889500D01*
X97828306Y-96889500D01*
X97654341Y-96924103D01*
X97654332Y-96924106D01*
X97490459Y-96991983D01*
X97490446Y-96991990D01*
X97342965Y-97090535D01*
X97342961Y-97090538D01*
X97217538Y-97215961D01*
X97217535Y-97215965D01*
X97118990Y-97363446D01*
X97118983Y-97363459D01*
X97051106Y-97527332D01*
X97051103Y-97527341D01*
X97016500Y-97701304D01*
X79613500Y-97701304D01*
X79613500Y-93937781D01*
X79633185Y-93870742D01*
X79649814Y-93850105D01*
X85346778Y-88153141D01*
X85346782Y-88153139D01*
X85486139Y-88013782D01*
X85595632Y-87849914D01*
X85645564Y-87729367D01*
X85648961Y-87721166D01*
X85648961Y-87721165D01*
X85650245Y-87718064D01*
X85671051Y-87667836D01*
X85709500Y-87474540D01*
X85709500Y-87277460D01*
X85709500Y-80856782D01*
X85729185Y-80789743D01*
X85745819Y-80769101D01*
X86502136Y-80012784D01*
X86502139Y-80012781D01*
X86611631Y-79848914D01*
X86687051Y-79666836D01*
X86725500Y-79473540D01*
X86725500Y-79276460D01*
X86725500Y-79276457D01*
X86725499Y-79276455D01*
X86687052Y-79083171D01*
X86687051Y-79083164D01*
X86611631Y-78901086D01*
X86611629Y-78901083D01*
X86611627Y-78901079D01*
X86502139Y-78737219D01*
X86502136Y-78737215D01*
X86362784Y-78597863D01*
X86362780Y-78597860D01*
X86198920Y-78488372D01*
X86198910Y-78488367D01*
X86016836Y-78412949D01*
X86016828Y-78412947D01*
X85823543Y-78374500D01*
X85823540Y-78374500D01*
X85626460Y-78374500D01*
X85626457Y-78374500D01*
X85433171Y-78412947D01*
X85433163Y-78412949D01*
X85251089Y-78488367D01*
X85251079Y-78488372D01*
X85087219Y-78597860D01*
X85087215Y-78597863D01*
X84491263Y-79193816D01*
X84071221Y-79613858D01*
X84071218Y-79613861D01*
X84018251Y-79666828D01*
X83931859Y-79753219D01*
X83822371Y-79917079D01*
X83822364Y-79917092D01*
X83784655Y-80008131D01*
X83784651Y-80008142D01*
X83782730Y-80012781D01*
X83746949Y-80099164D01*
X83734827Y-80160106D01*
X83733431Y-80167120D01*
X83733429Y-80167129D01*
X83708500Y-80292456D01*
X83708500Y-86910218D01*
X83688815Y-86977257D01*
X83672181Y-86997899D01*
X82873181Y-87796899D01*
X82811858Y-87830384D01*
X82742166Y-87825400D01*
X82686233Y-87783528D01*
X82661816Y-87718064D01*
X82661500Y-87709218D01*
X82661500Y-78217229D01*
X82681185Y-78150190D01*
X82697819Y-78129548D01*
X84348548Y-76478819D01*
X84409871Y-76445334D01*
X84436229Y-76442500D01*
X86179920Y-76442500D01*
X86277462Y-76423096D01*
X86324913Y-76413658D01*
X86461495Y-76357084D01*
X86510729Y-76324186D01*
X86584416Y-76274952D01*
X87577952Y-75281416D01*
X87627186Y-75207729D01*
X87660084Y-75158495D01*
X87716658Y-75021913D01*
X87732654Y-74941500D01*
X87745500Y-74876920D01*
X87745500Y-61394079D01*
X87730345Y-61317893D01*
X87724588Y-61288951D01*
X87716659Y-61249088D01*
X87661222Y-61115255D01*
X87660423Y-61113013D01*
X87660084Y-61112505D01*
X87602307Y-61026035D01*
X87577952Y-60989584D01*
X87153606Y-60565238D01*
X86711421Y-60123052D01*
X86711420Y-60123051D01*
X86701675Y-60116540D01*
X86595346Y-60045494D01*
X86588495Y-60040916D01*
X86588496Y-60040916D01*
X86588491Y-60040913D01*
X86451917Y-59984343D01*
X86451907Y-59984340D01*
X86306920Y-59955500D01*
X86306918Y-59955500D01*
X68942230Y-59955500D01*
X68875191Y-59935815D01*
X68854549Y-59919181D01*
X68473175Y-59537807D01*
X68439690Y-59476484D01*
X68439262Y-59474432D01*
X68439237Y-59474304D01*
X87999500Y-59474304D01*
X87999500Y-59651695D01*
X88034103Y-59825658D01*
X88034106Y-59825667D01*
X88101983Y-59989540D01*
X88101990Y-59989553D01*
X88200534Y-60137033D01*
X88200535Y-60137034D01*
X88200536Y-60137035D01*
X88288182Y-60224681D01*
X88321666Y-60286002D01*
X88324500Y-60312361D01*
X88324500Y-66299806D01*
X88315061Y-66347258D01*
X88288106Y-66412332D01*
X88288103Y-66412341D01*
X88253500Y-66586304D01*
X88253500Y-66763695D01*
X88288103Y-66937658D01*
X88288106Y-66937667D01*
X88355983Y-67101540D01*
X88355990Y-67101553D01*
X88454535Y-67249034D01*
X88454538Y-67249038D01*
X88579961Y-67374461D01*
X88579965Y-67374464D01*
X88727446Y-67473009D01*
X88727459Y-67473016D01*
X88850363Y-67523923D01*
X88891334Y-67540894D01*
X88891336Y-67540894D01*
X88891341Y-67540896D01*
X89065304Y-67575499D01*
X89065307Y-67575500D01*
X89065309Y-67575500D01*
X89242693Y-67575500D01*
X89242694Y-67575499D01*
X89300682Y-67563964D01*
X89416658Y-67540896D01*
X89416661Y-67540894D01*
X89416666Y-67540894D01*
X89580547Y-67473013D01*
X89728035Y-67374464D01*
X89853464Y-67249035D01*
X89952013Y-67101547D01*
X90019894Y-66937666D01*
X90028782Y-66892987D01*
X90047133Y-66800727D01*
X90054500Y-66763691D01*
X90054500Y-66586309D01*
X90054500Y-66586306D01*
X90054499Y-66586304D01*
X90019896Y-66412341D01*
X90019893Y-66412332D01*
X89952016Y-66248459D01*
X89952009Y-66248446D01*
X89853464Y-66100965D01*
X89853461Y-66100961D01*
X89728038Y-65975538D01*
X89728034Y-65975535D01*
X89679315Y-65942982D01*
X89580547Y-65876987D01*
X89580544Y-65876985D01*
X89580543Y-65876985D01*
X89552045Y-65865180D01*
X89497643Y-65821338D01*
X89475579Y-65755044D01*
X89475500Y-65750620D01*
X89475500Y-63665304D01*
X91555500Y-63665304D01*
X91555500Y-63842695D01*
X91590103Y-64016658D01*
X91590106Y-64016667D01*
X91657983Y-64180540D01*
X91657990Y-64180553D01*
X91756534Y-64328033D01*
X91756535Y-64328034D01*
X91756536Y-64328035D01*
X91844182Y-64415681D01*
X91877666Y-64477002D01*
X91880500Y-64503361D01*
X91880500Y-80276638D01*
X91860815Y-80343677D01*
X91844181Y-80364319D01*
X91756538Y-80451961D01*
X91756535Y-80451965D01*
X91657990Y-80599446D01*
X91657983Y-80599459D01*
X91590106Y-80763332D01*
X91590103Y-80763341D01*
X91555500Y-80937304D01*
X91555500Y-81114695D01*
X91590103Y-81288658D01*
X91590106Y-81288667D01*
X91657983Y-81452540D01*
X91657990Y-81452553D01*
X91756535Y-81600034D01*
X91756538Y-81600038D01*
X91881961Y-81725461D01*
X91881965Y-81725464D01*
X92029446Y-81824009D01*
X92029459Y-81824016D01*
X92152363Y-81874923D01*
X92193334Y-81891894D01*
X92193336Y-81891894D01*
X92193341Y-81891896D01*
X92367304Y-81926499D01*
X92367307Y-81926500D01*
X92367309Y-81926500D01*
X92544693Y-81926500D01*
X92544694Y-81926499D01*
X92602682Y-81914964D01*
X92718658Y-81891896D01*
X92718661Y-81891894D01*
X92718666Y-81891894D01*
X92882547Y-81824013D01*
X93030035Y-81725464D01*
X93155464Y-81600035D01*
X93172486Y-81574558D01*
X93226096Y-81529755D01*
X93295421Y-81521046D01*
X93358449Y-81551200D01*
X93363269Y-81555769D01*
X93405961Y-81598461D01*
X93405965Y-81598464D01*
X93553446Y-81697009D01*
X93553459Y-81697016D01*
X93666500Y-81743838D01*
X93717334Y-81764894D01*
X93717336Y-81764894D01*
X93717341Y-81764896D01*
X93891304Y-81799499D01*
X93891307Y-81799500D01*
X93891309Y-81799500D01*
X94068693Y-81799500D01*
X94068694Y-81799499D01*
X94150943Y-81783139D01*
X94242658Y-81764896D01*
X94242661Y-81764894D01*
X94242666Y-81764894D01*
X94376048Y-81709646D01*
X94445517Y-81702177D01*
X94507996Y-81733453D01*
X94543648Y-81793542D01*
X94547500Y-81824207D01*
X94547500Y-87451765D01*
X94586719Y-87598136D01*
X94618500Y-87653181D01*
X94662485Y-87729365D01*
X95658635Y-88725515D01*
X95789865Y-88801281D01*
X95936234Y-88840500D01*
X96087767Y-88840500D01*
X97373258Y-88840500D01*
X97440297Y-88860185D01*
X97460939Y-88876819D01*
X98504181Y-89920061D01*
X98537666Y-89981384D01*
X98540500Y-90007742D01*
X98540500Y-90131695D01*
X98575103Y-90305658D01*
X98575106Y-90305667D01*
X98642983Y-90469540D01*
X98642990Y-90469553D01*
X98741535Y-90617034D01*
X98741538Y-90617038D01*
X98866961Y-90742461D01*
X98866965Y-90742464D01*
X99014446Y-90841009D01*
X99014459Y-90841016D01*
X99137363Y-90891923D01*
X99178334Y-90908894D01*
X99178336Y-90908894D01*
X99178341Y-90908896D01*
X99352304Y-90943499D01*
X99352307Y-90943500D01*
X99352309Y-90943500D01*
X99529693Y-90943500D01*
X99529694Y-90943499D01*
X99587682Y-90931964D01*
X99703658Y-90908896D01*
X99703661Y-90908894D01*
X99703666Y-90908894D01*
X99867547Y-90841013D01*
X100015035Y-90742464D01*
X100140464Y-90617035D01*
X100239013Y-90469547D01*
X100241727Y-90462996D01*
X100301860Y-90317819D01*
X100306894Y-90305666D01*
X100311138Y-90284334D01*
X100341499Y-90131695D01*
X100341500Y-90131693D01*
X100341500Y-89954306D01*
X100341499Y-89954304D01*
X100306896Y-89780341D01*
X100306893Y-89780332D01*
X100239016Y-89616459D01*
X100239009Y-89616446D01*
X100140464Y-89468965D01*
X100140461Y-89468961D01*
X100015038Y-89343538D01*
X100015034Y-89343535D01*
X99867553Y-89244990D01*
X99867540Y-89244983D01*
X99703667Y-89177106D01*
X99703658Y-89177103D01*
X99529694Y-89142500D01*
X99529691Y-89142500D01*
X99405742Y-89142500D01*
X99338703Y-89122815D01*
X99318061Y-89106181D01*
X98016367Y-87804487D01*
X98016365Y-87804485D01*
X97950750Y-87766602D01*
X97885136Y-87728719D01*
X97762375Y-87695826D01*
X97738766Y-87689500D01*
X97738765Y-87689500D01*
X96301742Y-87689500D01*
X96234703Y-87669815D01*
X96214061Y-87653181D01*
X95734819Y-87173939D01*
X95727374Y-87160304D01*
X103366500Y-87160304D01*
X103366500Y-87337695D01*
X103401103Y-87511658D01*
X103401106Y-87511667D01*
X103468983Y-87675540D01*
X103468990Y-87675553D01*
X103567534Y-87823033D01*
X103567535Y-87823034D01*
X103567536Y-87823035D01*
X103655182Y-87910681D01*
X103688666Y-87972002D01*
X103691500Y-87998361D01*
X103691500Y-90436638D01*
X103671815Y-90503677D01*
X103655181Y-90524319D01*
X103567538Y-90611961D01*
X103567535Y-90611965D01*
X103468990Y-90759446D01*
X103468983Y-90759459D01*
X103401106Y-90923332D01*
X103401103Y-90923341D01*
X103366500Y-91097304D01*
X103366500Y-91274695D01*
X103401103Y-91448658D01*
X103401106Y-91448667D01*
X103468983Y-91612540D01*
X103468990Y-91612553D01*
X103567535Y-91760034D01*
X103567538Y-91760038D01*
X103692961Y-91885461D01*
X103692965Y-91885464D01*
X103840446Y-91984009D01*
X103840459Y-91984016D01*
X103963363Y-92034923D01*
X104004334Y-92051894D01*
X104004336Y-92051894D01*
X104004341Y-92051896D01*
X104178304Y-92086499D01*
X104178307Y-92086500D01*
X104178309Y-92086500D01*
X104355693Y-92086500D01*
X104355694Y-92086499D01*
X104457444Y-92066260D01*
X104529658Y-92051896D01*
X104529661Y-92051894D01*
X104529666Y-92051894D01*
X104693547Y-91984013D01*
X104841035Y-91885464D01*
X104966464Y-91760035D01*
X105065013Y-91612547D01*
X105132894Y-91448666D01*
X105167500Y-91274691D01*
X105167500Y-91097309D01*
X105167500Y-91097306D01*
X105167499Y-91097304D01*
X105132896Y-90923341D01*
X105132893Y-90923332D01*
X105065016Y-90759459D01*
X105065009Y-90759446D01*
X104966464Y-90611965D01*
X104966461Y-90611961D01*
X104878819Y-90524319D01*
X104845334Y-90462996D01*
X104842500Y-90436638D01*
X104842500Y-87998361D01*
X104862185Y-87931322D01*
X104878814Y-87910684D01*
X104966464Y-87823035D01*
X105065013Y-87675547D01*
X105132894Y-87511666D01*
X105140279Y-87474542D01*
X105167499Y-87337695D01*
X105167500Y-87337693D01*
X105167500Y-87160306D01*
X105167499Y-87160304D01*
X105132896Y-86986341D01*
X105132893Y-86986332D01*
X105065016Y-86822459D01*
X105065009Y-86822446D01*
X104966464Y-86674965D01*
X104966461Y-86674961D01*
X104841038Y-86549538D01*
X104841034Y-86549535D01*
X104693553Y-86450990D01*
X104693540Y-86450983D01*
X104529667Y-86383106D01*
X104529658Y-86383103D01*
X104355694Y-86348500D01*
X104355691Y-86348500D01*
X104178309Y-86348500D01*
X104178306Y-86348500D01*
X104004341Y-86383103D01*
X104004332Y-86383106D01*
X103840459Y-86450983D01*
X103840446Y-86450990D01*
X103692965Y-86549535D01*
X103692961Y-86549538D01*
X103567538Y-86674961D01*
X103567535Y-86674965D01*
X103468990Y-86822446D01*
X103468983Y-86822459D01*
X103401106Y-86986332D01*
X103401103Y-86986341D01*
X103366500Y-87160304D01*
X95727374Y-87160304D01*
X95701334Y-87112616D01*
X95698500Y-87086258D01*
X95698500Y-81905877D01*
X95718185Y-81838838D01*
X95770989Y-81793083D01*
X95840147Y-81783139D01*
X95846692Y-81784260D01*
X95923306Y-81799500D01*
X95923309Y-81799500D01*
X96100693Y-81799500D01*
X96100694Y-81799499D01*
X96182943Y-81783139D01*
X96274658Y-81764896D01*
X96274661Y-81764894D01*
X96274666Y-81764894D01*
X96438547Y-81697013D01*
X96563113Y-81613780D01*
X96629788Y-81592903D01*
X96679454Y-81602322D01*
X96707119Y-81613781D01*
X96765334Y-81637894D01*
X96765336Y-81637894D01*
X96765341Y-81637896D01*
X96939304Y-81672499D01*
X96939307Y-81672500D01*
X96939309Y-81672500D01*
X97116693Y-81672500D01*
X97116694Y-81672499D01*
X97174682Y-81660964D01*
X97290658Y-81637896D01*
X97290661Y-81637894D01*
X97290666Y-81637894D01*
X97454547Y-81570013D01*
X97602035Y-81471464D01*
X97727464Y-81346035D01*
X97826013Y-81198547D01*
X97893894Y-81034666D01*
X97928500Y-80860691D01*
X97928500Y-80683309D01*
X97928500Y-80683306D01*
X97928499Y-80683304D01*
X97893896Y-80509341D01*
X97893893Y-80509332D01*
X97883528Y-80484309D01*
X97826013Y-80345453D01*
X97826011Y-80345451D01*
X97826011Y-80345449D01*
X97751398Y-80233783D01*
X97730520Y-80167105D01*
X97730500Y-80164892D01*
X97730500Y-68440361D01*
X97750185Y-68373322D01*
X97766814Y-68352684D01*
X97854464Y-68265035D01*
X97953013Y-68117547D01*
X98020894Y-67953666D01*
X98055500Y-67779691D01*
X98055500Y-67602309D01*
X98055500Y-67602306D01*
X98055499Y-67602304D01*
X98020896Y-67428341D01*
X98020893Y-67428332D01*
X97953016Y-67264459D01*
X97953009Y-67264446D01*
X97854464Y-67116965D01*
X97854461Y-67116961D01*
X97729038Y-66991538D01*
X97729034Y-66991535D01*
X97581553Y-66892990D01*
X97581540Y-66892983D01*
X97417667Y-66825106D01*
X97417658Y-66825103D01*
X97243694Y-66790500D01*
X97243691Y-66790500D01*
X97066309Y-66790500D01*
X97066306Y-66790500D01*
X96892341Y-66825103D01*
X96892337Y-66825105D01*
X96892335Y-66825105D01*
X96892334Y-66825106D01*
X96845689Y-66844426D01*
X96758951Y-66880354D01*
X96726314Y-66883862D01*
X96693853Y-66888530D01*
X96691765Y-66887576D01*
X96689482Y-66887822D01*
X96660139Y-66873133D01*
X96630297Y-66859505D01*
X96629055Y-66857573D01*
X96627003Y-66856546D01*
X96610257Y-66828323D01*
X96592523Y-66800727D01*
X96592087Y-66797698D01*
X96591351Y-66796457D01*
X96587500Y-66765792D01*
X96587500Y-66710378D01*
X96607185Y-66643339D01*
X96659989Y-66597584D01*
X96664021Y-66595828D01*
X96692547Y-66584013D01*
X96840035Y-66485464D01*
X96965464Y-66360035D01*
X97064013Y-66212547D01*
X97131894Y-66048666D01*
X97166500Y-65874691D01*
X97166500Y-65697309D01*
X97166500Y-65697306D01*
X97166499Y-65697304D01*
X97131896Y-65523341D01*
X97131893Y-65523332D01*
X97064016Y-65359459D01*
X97064009Y-65359446D01*
X96965464Y-65211965D01*
X96965461Y-65211961D01*
X96840038Y-65086538D01*
X96840034Y-65086535D01*
X96758895Y-65032319D01*
X96692553Y-64987990D01*
X96692540Y-64987983D01*
X96565359Y-64935304D01*
X107938500Y-64935304D01*
X107938500Y-65112695D01*
X107973103Y-65286658D01*
X107973106Y-65286667D01*
X108040983Y-65450540D01*
X108040990Y-65450553D01*
X108139535Y-65598034D01*
X108139538Y-65598038D01*
X108264961Y-65723461D01*
X108264965Y-65723464D01*
X108412446Y-65822009D01*
X108412459Y-65822016D01*
X108496722Y-65856918D01*
X108576334Y-65889894D01*
X108576336Y-65889894D01*
X108576341Y-65889896D01*
X108750304Y-65924499D01*
X108750307Y-65924500D01*
X108750309Y-65924500D01*
X108927693Y-65924500D01*
X108927694Y-65924499D01*
X108985682Y-65912964D01*
X109101658Y-65889896D01*
X109101661Y-65889894D01*
X109101666Y-65889894D01*
X109265547Y-65822013D01*
X109413035Y-65723464D01*
X109538464Y-65598035D01*
X109538466Y-65598031D01*
X109542328Y-65593327D01*
X109544445Y-65595064D01*
X109589001Y-65557823D01*
X109658326Y-65549110D01*
X109721355Y-65579260D01*
X109758079Y-65638700D01*
X109762500Y-65671515D01*
X109762500Y-70776638D01*
X109742815Y-70843677D01*
X109726181Y-70864319D01*
X109663538Y-70926961D01*
X109663535Y-70926965D01*
X109564990Y-71074446D01*
X109564983Y-71074459D01*
X109497106Y-71238332D01*
X109497103Y-71238341D01*
X109462500Y-71412304D01*
X109462500Y-71589695D01*
X109497103Y-71763658D01*
X109497106Y-71763667D01*
X109564983Y-71927540D01*
X109564990Y-71927553D01*
X109663535Y-72075034D01*
X109663538Y-72075038D01*
X109788961Y-72200461D01*
X109788965Y-72200464D01*
X109936446Y-72299009D01*
X109936459Y-72299016D01*
X110059363Y-72349923D01*
X110100334Y-72366894D01*
X110100336Y-72366894D01*
X110100341Y-72366896D01*
X110274304Y-72401499D01*
X110274307Y-72401500D01*
X110274309Y-72401500D01*
X110451693Y-72401500D01*
X110451694Y-72401499D01*
X110509682Y-72389964D01*
X110625658Y-72366896D01*
X110625661Y-72366894D01*
X110625666Y-72366894D01*
X110789547Y-72299013D01*
X110937035Y-72200464D01*
X111062464Y-72075035D01*
X111161013Y-71927547D01*
X111228894Y-71763666D01*
X111263500Y-71589691D01*
X111263500Y-71412309D01*
X111263500Y-71412306D01*
X111263499Y-71412304D01*
X111228896Y-71238341D01*
X111228893Y-71238332D01*
X111161016Y-71074459D01*
X111161009Y-71074446D01*
X111062464Y-70926965D01*
X111062461Y-70926961D01*
X110999819Y-70864319D01*
X110966334Y-70802996D01*
X110963500Y-70776638D01*
X110963500Y-66526664D01*
X110983185Y-66459625D01*
X111035989Y-66413870D01*
X111105147Y-66403926D01*
X111156392Y-66423563D01*
X111206445Y-66457008D01*
X111206447Y-66457009D01*
X111206453Y-66457013D01*
X111206455Y-66457014D01*
X111206459Y-66457016D01*
X111329363Y-66507923D01*
X111370334Y-66524894D01*
X111370336Y-66524894D01*
X111370341Y-66524896D01*
X111544304Y-66559499D01*
X111544307Y-66559500D01*
X111544309Y-66559500D01*
X111721693Y-66559500D01*
X111721694Y-66559499D01*
X111779682Y-66547964D01*
X111895658Y-66524896D01*
X111895661Y-66524894D01*
X111895666Y-66524894D01*
X112059547Y-66457013D01*
X112207035Y-66358464D01*
X112218241Y-66347258D01*
X112242819Y-66322681D01*
X112304142Y-66289196D01*
X112373834Y-66294180D01*
X112429767Y-66336052D01*
X112454184Y-66401516D01*
X112454500Y-66410362D01*
X112454500Y-67234234D01*
X112454500Y-67385766D01*
X112465906Y-67428334D01*
X112493719Y-67532136D01*
X112498775Y-67540893D01*
X112569485Y-67663365D01*
X112569487Y-67663367D01*
X119784181Y-74878061D01*
X119817666Y-74939384D01*
X119820500Y-74965742D01*
X119820500Y-81419638D01*
X119800815Y-81486677D01*
X119784181Y-81507319D01*
X119696538Y-81594961D01*
X119696535Y-81594965D01*
X119597990Y-81742446D01*
X119597983Y-81742459D01*
X119530106Y-81906332D01*
X119530103Y-81906341D01*
X119495500Y-82080304D01*
X119495500Y-82257695D01*
X119530103Y-82431658D01*
X119530106Y-82431667D01*
X119597983Y-82595540D01*
X119597990Y-82595553D01*
X119696535Y-82743034D01*
X119696538Y-82743038D01*
X119821961Y-82868461D01*
X119821965Y-82868464D01*
X119969446Y-82967009D01*
X119969459Y-82967016D01*
X120092363Y-83017923D01*
X120133334Y-83034894D01*
X120133336Y-83034894D01*
X120133341Y-83034896D01*
X120307304Y-83069499D01*
X120307307Y-83069500D01*
X120307309Y-83069500D01*
X120484693Y-83069500D01*
X120484694Y-83069499D01*
X120542682Y-83057964D01*
X120658658Y-83034896D01*
X120658661Y-83034894D01*
X120658666Y-83034894D01*
X120822547Y-82967013D01*
X120970035Y-82868464D01*
X121095464Y-82743035D01*
X121194013Y-82595547D01*
X121261894Y-82431666D01*
X121267010Y-82405949D01*
X121296499Y-82257695D01*
X121296500Y-82257693D01*
X121296500Y-82080306D01*
X121296499Y-82080304D01*
X121261896Y-81906341D01*
X121261893Y-81906332D01*
X121194016Y-81742459D01*
X121194009Y-81742446D01*
X121095464Y-81594965D01*
X121095461Y-81594961D01*
X121007819Y-81507319D01*
X120974334Y-81445996D01*
X120971500Y-81419638D01*
X120971500Y-74600234D01*
X120967173Y-74584088D01*
X120967172Y-74584084D01*
X120962121Y-74565232D01*
X120932281Y-74453865D01*
X120856515Y-74322635D01*
X113641819Y-67107939D01*
X113608334Y-67046616D01*
X113605500Y-67020258D01*
X113605500Y-61201361D01*
X113625185Y-61134322D01*
X113641814Y-61113684D01*
X113729464Y-61026035D01*
X113828013Y-60878547D01*
X113895894Y-60714666D01*
X113910349Y-60641999D01*
X113930499Y-60540695D01*
X113930500Y-60540693D01*
X113930500Y-60363306D01*
X113930499Y-60363304D01*
X113895896Y-60189341D01*
X113895893Y-60189332D01*
X113828016Y-60025459D01*
X113828014Y-60025455D01*
X113828013Y-60025453D01*
X113800542Y-59984340D01*
X113756287Y-59918108D01*
X113729464Y-59877965D01*
X113729461Y-59877961D01*
X113706804Y-59855304D01*
X115558500Y-59855304D01*
X115558500Y-60032695D01*
X115593103Y-60206658D01*
X115593106Y-60206667D01*
X115660983Y-60370540D01*
X115660990Y-60370553D01*
X115759534Y-60518033D01*
X115759535Y-60518034D01*
X115759536Y-60518035D01*
X115847182Y-60605681D01*
X115880666Y-60667002D01*
X115883500Y-60693361D01*
X115883500Y-61734638D01*
X115863815Y-61801677D01*
X115847181Y-61822319D01*
X115759538Y-61909961D01*
X115759535Y-61909965D01*
X115660990Y-62057446D01*
X115660983Y-62057459D01*
X115593106Y-62221332D01*
X115593103Y-62221341D01*
X115558500Y-62395304D01*
X115558500Y-62572695D01*
X115593103Y-62746658D01*
X115593106Y-62746667D01*
X115660983Y-62910540D01*
X115660990Y-62910553D01*
X115759535Y-63058034D01*
X115759538Y-63058038D01*
X115884961Y-63183461D01*
X115884965Y-63183464D01*
X116032446Y-63282009D01*
X116032459Y-63282016D01*
X116155363Y-63332923D01*
X116196334Y-63349894D01*
X116196336Y-63349894D01*
X116196341Y-63349896D01*
X116370304Y-63384499D01*
X116370307Y-63384500D01*
X116370309Y-63384500D01*
X116547693Y-63384500D01*
X116547694Y-63384499D01*
X116605682Y-63372964D01*
X116721658Y-63349896D01*
X116721661Y-63349894D01*
X116721666Y-63349894D01*
X116885547Y-63282013D01*
X117033035Y-63183464D01*
X117158464Y-63058035D01*
X117257013Y-62910547D01*
X117324894Y-62746666D01*
X117359500Y-62572691D01*
X117359500Y-62395309D01*
X117359500Y-62395306D01*
X117359499Y-62395304D01*
X117324896Y-62221341D01*
X117324893Y-62221332D01*
X117312811Y-62192164D01*
X117288340Y-62133083D01*
X117257016Y-62057459D01*
X117257009Y-62057446D01*
X117158464Y-61909965D01*
X117158461Y-61909961D01*
X117070819Y-61822319D01*
X117037334Y-61760996D01*
X117034500Y-61734638D01*
X117034500Y-60693361D01*
X117054185Y-60626322D01*
X117070814Y-60605684D01*
X117158464Y-60518035D01*
X117257013Y-60370547D01*
X117260140Y-60362999D01*
X117272691Y-60332696D01*
X117324894Y-60206666D01*
X117324950Y-60206387D01*
X117356953Y-60045494D01*
X117359500Y-60032691D01*
X117359500Y-59855309D01*
X117359500Y-59855306D01*
X117359499Y-59855304D01*
X117324896Y-59681341D01*
X117324893Y-59681332D01*
X117257016Y-59517459D01*
X117257009Y-59517446D01*
X117158464Y-59369965D01*
X117158461Y-59369961D01*
X117033038Y-59244538D01*
X117033034Y-59244535D01*
X116885553Y-59145990D01*
X116885540Y-59145983D01*
X116721667Y-59078106D01*
X116721658Y-59078103D01*
X116547694Y-59043500D01*
X116547691Y-59043500D01*
X116370309Y-59043500D01*
X116370306Y-59043500D01*
X116196341Y-59078103D01*
X116196332Y-59078106D01*
X116032459Y-59145983D01*
X116032446Y-59145990D01*
X115884965Y-59244535D01*
X115884961Y-59244538D01*
X115759538Y-59369961D01*
X115759535Y-59369965D01*
X115660990Y-59517446D01*
X115660983Y-59517459D01*
X115593106Y-59681332D01*
X115593103Y-59681341D01*
X115558500Y-59855304D01*
X113706804Y-59855304D01*
X113604038Y-59752538D01*
X113604034Y-59752535D01*
X113456553Y-59653990D01*
X113456540Y-59653983D01*
X113292667Y-59586106D01*
X113292658Y-59586103D01*
X113118694Y-59551500D01*
X113118691Y-59551500D01*
X112941309Y-59551500D01*
X112941306Y-59551500D01*
X112767341Y-59586103D01*
X112767329Y-59586107D01*
X112760947Y-59588751D01*
X112691477Y-59596217D01*
X112629000Y-59564939D01*
X112593350Y-59504848D01*
X112589500Y-59474188D01*
X112589500Y-51343740D01*
X112609185Y-51276701D01*
X112625814Y-51256064D01*
X117818155Y-46063722D01*
X117818160Y-46063719D01*
X117828363Y-46053515D01*
X117828365Y-46053515D01*
X117935515Y-45946365D01*
X118011281Y-45815135D01*
X118050500Y-45668766D01*
X118050500Y-43866234D01*
X118011281Y-43719865D01*
X117935515Y-43588635D01*
X117828365Y-43481485D01*
X117447365Y-43100485D01*
X117381750Y-43062602D01*
X117316136Y-43024719D01*
X117242950Y-43005109D01*
X117169766Y-42985500D01*
X117169765Y-42985500D01*
X116269500Y-42985500D01*
X116202461Y-42965815D01*
X116156706Y-42913011D01*
X116145500Y-42861500D01*
X116145500Y-42573456D01*
X116165185Y-42506417D01*
X116213205Y-42462971D01*
X116277816Y-42430051D01*
X116329255Y-42392678D01*
X116449786Y-42305109D01*
X116449788Y-42305106D01*
X116449792Y-42305104D01*
X116600104Y-42154792D01*
X116600106Y-42154788D01*
X116600109Y-42154786D01*
X116725048Y-41982820D01*
X116725047Y-41982820D01*
X116725051Y-41982816D01*
X116729514Y-41974054D01*
X116777488Y-41923259D01*
X116845308Y-41906463D01*
X116911444Y-41928999D01*
X116950486Y-41974056D01*
X116954951Y-41982820D01*
X117079890Y-42154786D01*
X117230213Y-42305109D01*
X117402179Y-42430048D01*
X117402181Y-42430049D01*
X117402184Y-42430051D01*
X117591588Y-42526557D01*
X117793757Y-42592246D01*
X118003713Y-42625500D01*
X118003714Y-42625500D01*
X118216286Y-42625500D01*
X118216287Y-42625500D01*
X118426243Y-42592246D01*
X118628412Y-42526557D01*
X118817816Y-42430051D01*
X118839789Y-42414086D01*
X118989786Y-42305109D01*
X118989788Y-42305106D01*
X118989792Y-42305104D01*
X119140104Y-42154792D01*
X119140106Y-42154788D01*
X119140109Y-42154786D01*
X119265048Y-41982820D01*
X119265047Y-41982820D01*
X119265051Y-41982816D01*
X119269514Y-41974054D01*
X119317488Y-41923259D01*
X119385308Y-41906463D01*
X119451444Y-41928999D01*
X119490486Y-41974056D01*
X119494951Y-41982820D01*
X119619890Y-42154786D01*
X119770213Y-42305109D01*
X119942179Y-42430048D01*
X119942181Y-42430049D01*
X119942184Y-42430051D01*
X120131588Y-42526557D01*
X120333757Y-42592246D01*
X120543713Y-42625500D01*
X120543714Y-42625500D01*
X120756286Y-42625500D01*
X120756287Y-42625500D01*
X120966243Y-42592246D01*
X121168412Y-42526557D01*
X121357816Y-42430051D01*
X121379789Y-42414086D01*
X121529786Y-42305109D01*
X121529788Y-42305106D01*
X121529792Y-42305104D01*
X121680104Y-42154792D01*
X121680106Y-42154788D01*
X121680109Y-42154786D01*
X121805048Y-41982820D01*
X121805047Y-41982820D01*
X121805051Y-41982816D01*
X121809514Y-41974054D01*
X121857488Y-41923259D01*
X121925308Y-41906463D01*
X121991444Y-41928999D01*
X122030486Y-41974056D01*
X122034951Y-41982820D01*
X122159890Y-42154786D01*
X122310213Y-42305109D01*
X122482179Y-42430048D01*
X122482181Y-42430049D01*
X122482184Y-42430051D01*
X122671588Y-42526557D01*
X122873757Y-42592246D01*
X123083713Y-42625500D01*
X123083714Y-42625500D01*
X123296286Y-42625500D01*
X123296287Y-42625500D01*
X123506243Y-42592246D01*
X123708412Y-42526557D01*
X123897816Y-42430051D01*
X123919789Y-42414086D01*
X124069786Y-42305109D01*
X124069788Y-42305106D01*
X124069792Y-42305104D01*
X124220104Y-42154792D01*
X124220106Y-42154788D01*
X124220109Y-42154786D01*
X124345048Y-41982820D01*
X124345047Y-41982820D01*
X124345051Y-41982816D01*
X124441557Y-41793412D01*
X124507246Y-41591243D01*
X124540500Y-41381287D01*
X124540500Y-41168713D01*
X124507246Y-40958757D01*
X124441557Y-40756588D01*
X124345051Y-40567184D01*
X124345049Y-40567181D01*
X124345048Y-40567179D01*
X124220109Y-40395213D01*
X124106569Y-40281673D01*
X124073084Y-40220350D01*
X124078068Y-40150658D01*
X124119940Y-40094725D01*
X124150915Y-40077810D01*
X124282331Y-40028796D01*
X124397546Y-39942546D01*
X124483796Y-39827331D01*
X124534091Y-39692483D01*
X124540500Y-39632873D01*
X124540499Y-37837128D01*
X124534091Y-37777517D01*
X124532810Y-37774083D01*
X124483797Y-37642671D01*
X124483793Y-37642664D01*
X124397547Y-37527455D01*
X124397544Y-37527452D01*
X124282335Y-37441206D01*
X124282328Y-37441202D01*
X124147482Y-37390908D01*
X124147483Y-37390908D01*
X124087883Y-37384501D01*
X124087881Y-37384500D01*
X124087873Y-37384500D01*
X124087864Y-37384500D01*
X122292129Y-37384500D01*
X122292123Y-37384501D01*
X122232516Y-37390908D01*
X122097671Y-37441202D01*
X122097664Y-37441206D01*
X121982455Y-37527452D01*
X121982452Y-37527455D01*
X121896206Y-37642664D01*
X121896203Y-37642669D01*
X121847189Y-37774083D01*
X121805317Y-37830016D01*
X121739853Y-37854433D01*
X121671580Y-37839581D01*
X121643326Y-37818430D01*
X121529786Y-37704890D01*
X121357820Y-37579951D01*
X121168414Y-37483444D01*
X121168413Y-37483443D01*
X121168412Y-37483443D01*
X120966243Y-37417754D01*
X120966241Y-37417753D01*
X120966240Y-37417753D01*
X120804957Y-37392208D01*
X120756287Y-37384500D01*
X120543713Y-37384500D01*
X120495042Y-37392208D01*
X120333760Y-37417753D01*
X120131585Y-37483444D01*
X119942179Y-37579951D01*
X119770213Y-37704890D01*
X119619890Y-37855213D01*
X119494949Y-38027182D01*
X119490484Y-38035946D01*
X119442509Y-38086742D01*
X119374688Y-38103536D01*
X119308553Y-38080998D01*
X119269516Y-38035946D01*
X119265050Y-38027182D01*
X119140109Y-37855213D01*
X118989786Y-37704890D01*
X118817820Y-37579951D01*
X118628414Y-37483444D01*
X118628413Y-37483443D01*
X118628412Y-37483443D01*
X118426243Y-37417754D01*
X118426241Y-37417753D01*
X118426240Y-37417753D01*
X118264957Y-37392208D01*
X118216287Y-37384500D01*
X118003713Y-37384500D01*
X117955042Y-37392208D01*
X117793760Y-37417753D01*
X117591585Y-37483444D01*
X117402179Y-37579951D01*
X117230213Y-37704890D01*
X117079890Y-37855213D01*
X116954949Y-38027182D01*
X116950202Y-38036499D01*
X116902227Y-38087293D01*
X116834405Y-38104087D01*
X116768271Y-38081548D01*
X116729234Y-38036495D01*
X116724622Y-38027444D01*
X116599727Y-37855540D01*
X116599723Y-37855535D01*
X116449464Y-37705276D01*
X116449459Y-37705272D01*
X116277557Y-37580379D01*
X116088215Y-37483903D01*
X115886124Y-37418241D01*
X115820000Y-37407768D01*
X115820000Y-38301988D01*
X115762993Y-38269075D01*
X115635826Y-38235000D01*
X115504174Y-38235000D01*
X115377007Y-38269075D01*
X115320000Y-38301988D01*
X115320000Y-37407768D01*
X115319999Y-37407768D01*
X115253875Y-37418241D01*
X115051784Y-37483903D01*
X114862442Y-37580379D01*
X114690540Y-37705272D01*
X114690535Y-37705276D01*
X114540276Y-37855535D01*
X114540272Y-37855540D01*
X114415379Y-38027442D01*
X114318904Y-38216782D01*
X114253242Y-38418870D01*
X114253242Y-38418873D01*
X114242769Y-38485000D01*
X115136988Y-38485000D01*
X115104075Y-38542007D01*
X115070000Y-38669174D01*
X115070000Y-38800826D01*
X115104075Y-38927993D01*
X115136988Y-38985000D01*
X114242769Y-38985000D01*
X114253242Y-39051126D01*
X114253242Y-39051129D01*
X114318904Y-39253217D01*
X114381570Y-39376205D01*
X114382078Y-39378910D01*
X114383879Y-39380989D01*
X114388487Y-39413038D01*
X114394466Y-39444874D01*
X114393431Y-39447423D01*
X114393823Y-39450147D01*
X114380369Y-39479605D01*
X114368190Y-39509615D01*
X114365940Y-39511200D01*
X114364798Y-39513703D01*
X114337554Y-39531211D01*
X114311083Y-39549872D01*
X114307626Y-39550444D01*
X114306020Y-39551477D01*
X114271085Y-39556500D01*
X114033361Y-39556500D01*
X113966322Y-39536815D01*
X113945684Y-39520185D01*
X113858035Y-39432536D01*
X113858034Y-39432535D01*
X113858033Y-39432534D01*
X113710553Y-39333990D01*
X113710540Y-39333983D01*
X113546667Y-39266106D01*
X113546658Y-39266103D01*
X113372694Y-39231500D01*
X113372691Y-39231500D01*
X113195309Y-39231500D01*
X113195306Y-39231500D01*
X113021341Y-39266103D01*
X113021332Y-39266106D01*
X112857459Y-39333983D01*
X112857446Y-39333990D01*
X112709965Y-39432535D01*
X112709961Y-39432538D01*
X112584538Y-39557961D01*
X112584535Y-39557965D01*
X112485990Y-39705446D01*
X112485983Y-39705459D01*
X112418106Y-39869332D01*
X112418103Y-39869341D01*
X112383500Y-40043304D01*
X112383500Y-40220695D01*
X112418103Y-40394658D01*
X112418106Y-40394667D01*
X112485983Y-40558540D01*
X112485990Y-40558553D01*
X112584535Y-40706034D01*
X112584538Y-40706038D01*
X112709961Y-40831461D01*
X112709965Y-40831464D01*
X112857446Y-40930009D01*
X112857459Y-40930016D01*
X112952726Y-40969476D01*
X113021334Y-40997894D01*
X113021336Y-40997894D01*
X113021341Y-40997896D01*
X113195304Y-41032499D01*
X113195307Y-41032500D01*
X113195309Y-41032500D01*
X113372693Y-41032500D01*
X113372694Y-41032499D01*
X113430682Y-41020964D01*
X113546658Y-40997896D01*
X113546661Y-40997894D01*
X113546666Y-40997894D01*
X113710547Y-40930013D01*
X113858035Y-40831464D01*
X113945681Y-40743817D01*
X113972612Y-40729111D01*
X113998426Y-40712523D01*
X114004625Y-40711631D01*
X114007002Y-40710334D01*
X114033361Y-40707500D01*
X114163722Y-40707500D01*
X114230761Y-40727185D01*
X114276516Y-40779989D01*
X114286460Y-40849147D01*
X114281655Y-40869806D01*
X114252754Y-40958757D01*
X114252753Y-40958760D01*
X114252753Y-40958762D01*
X114219500Y-41168713D01*
X114219500Y-41381286D01*
X114247601Y-41558712D01*
X114252754Y-41591243D01*
X114300248Y-41737415D01*
X114318444Y-41793414D01*
X114414951Y-41982820D01*
X114539890Y-42154786D01*
X114690213Y-42305109D01*
X114862182Y-42430050D01*
X114862184Y-42430051D01*
X114926794Y-42462971D01*
X114977590Y-42510945D01*
X114994500Y-42573456D01*
X114994500Y-43382765D01*
X115033719Y-43529136D01*
X115051300Y-43559586D01*
X115109485Y-43660365D01*
X115109486Y-43660366D01*
X115109487Y-43660367D01*
X115356414Y-43907293D01*
X115356417Y-43907297D01*
X115363485Y-43914365D01*
X115470635Y-44021515D01*
X115470637Y-44021516D01*
X115470641Y-44021519D01*
X115532962Y-44057500D01*
X115532963Y-44057500D01*
X115601865Y-44097281D01*
X115744863Y-44135597D01*
X115804520Y-44171960D01*
X115835050Y-44234806D01*
X115826756Y-44304182D01*
X115800449Y-44343050D01*
X115759539Y-44383960D01*
X115759535Y-44383965D01*
X115660990Y-44531446D01*
X115660983Y-44531459D01*
X115593106Y-44695332D01*
X115593103Y-44695341D01*
X115558500Y-44869304D01*
X115558500Y-44993258D01*
X115538815Y-45060297D01*
X115522181Y-45080939D01*
X108378487Y-52224632D01*
X108378485Y-52224635D01*
X108302719Y-52355863D01*
X108263500Y-52502234D01*
X108263500Y-64274638D01*
X108243815Y-64341677D01*
X108227181Y-64362319D01*
X108139538Y-64449961D01*
X108139535Y-64449965D01*
X108040990Y-64597446D01*
X108040983Y-64597459D01*
X107973106Y-64761332D01*
X107973103Y-64761341D01*
X107938500Y-64935304D01*
X96565359Y-64935304D01*
X96528667Y-64920106D01*
X96528658Y-64920103D01*
X96354694Y-64885500D01*
X96354691Y-64885500D01*
X96177309Y-64885500D01*
X96177306Y-64885500D01*
X96003341Y-64920103D01*
X96003337Y-64920105D01*
X96003335Y-64920105D01*
X96003334Y-64920106D01*
X95966638Y-64935306D01*
X95869951Y-64975354D01*
X95800482Y-64982822D01*
X95738003Y-64951546D01*
X95702351Y-64891457D01*
X95698500Y-64860792D01*
X95698500Y-60312361D01*
X95718185Y-60245322D01*
X95734814Y-60224684D01*
X95822464Y-60137035D01*
X95921013Y-59989547D01*
X95988894Y-59825666D01*
X96023500Y-59651691D01*
X96023500Y-59474309D01*
X96023500Y-59474306D01*
X96023499Y-59474304D01*
X95988896Y-59300341D01*
X95988893Y-59300332D01*
X95921016Y-59136459D01*
X95921009Y-59136446D01*
X95822464Y-58988965D01*
X95822461Y-58988961D01*
X95697038Y-58863538D01*
X95697034Y-58863535D01*
X95549553Y-58764990D01*
X95549540Y-58764983D01*
X95385667Y-58697106D01*
X95385658Y-58697103D01*
X95211694Y-58662500D01*
X95211691Y-58662500D01*
X95034309Y-58662500D01*
X95034306Y-58662500D01*
X94860341Y-58697103D01*
X94860332Y-58697106D01*
X94696459Y-58764983D01*
X94696446Y-58764990D01*
X94548965Y-58863535D01*
X94548961Y-58863538D01*
X94423538Y-58988961D01*
X94423535Y-58988965D01*
X94324990Y-59136446D01*
X94324983Y-59136459D01*
X94257106Y-59300332D01*
X94257103Y-59300341D01*
X94222500Y-59474304D01*
X94222500Y-59651695D01*
X94257103Y-59825658D01*
X94257106Y-59825667D01*
X94324983Y-59989540D01*
X94324990Y-59989553D01*
X94423534Y-60137033D01*
X94423535Y-60137034D01*
X94423536Y-60137035D01*
X94511182Y-60224681D01*
X94544666Y-60286002D01*
X94547500Y-60312361D01*
X94547500Y-64046188D01*
X94527815Y-64113227D01*
X94475011Y-64158982D01*
X94405853Y-64168926D01*
X94376053Y-64160751D01*
X94369670Y-64158107D01*
X94369658Y-64158103D01*
X94195694Y-64123500D01*
X94195691Y-64123500D01*
X94018309Y-64123500D01*
X94018306Y-64123500D01*
X93844341Y-64158103D01*
X93844332Y-64158106D01*
X93680459Y-64225983D01*
X93680446Y-64225990D01*
X93532965Y-64324535D01*
X93532961Y-64324538D01*
X93407538Y-64449961D01*
X93407535Y-64449965D01*
X93308990Y-64597446D01*
X93308983Y-64597459D01*
X93270061Y-64691429D01*
X93262989Y-64700204D01*
X93259815Y-64711016D01*
X93241463Y-64726917D01*
X93226221Y-64745833D01*
X93215526Y-64749392D01*
X93207011Y-64756771D01*
X93182973Y-64760227D01*
X93159927Y-64767898D01*
X93149007Y-64765111D01*
X93137853Y-64766715D01*
X93115759Y-64756625D01*
X93092227Y-64750619D01*
X93084548Y-64742371D01*
X93074297Y-64737690D01*
X93061166Y-64717257D01*
X93044616Y-64699482D01*
X93041634Y-64686866D01*
X93036523Y-64678912D01*
X93031500Y-64643977D01*
X93031500Y-64503361D01*
X93051185Y-64436322D01*
X93067814Y-64415684D01*
X93155464Y-64328035D01*
X93254013Y-64180547D01*
X93321894Y-64016666D01*
X93356500Y-63842691D01*
X93356500Y-63665309D01*
X93356500Y-63665306D01*
X93356499Y-63665304D01*
X93321896Y-63491341D01*
X93321893Y-63491332D01*
X93254016Y-63327459D01*
X93254009Y-63327446D01*
X93155464Y-63179965D01*
X93155461Y-63179961D01*
X93030038Y-63054538D01*
X93030034Y-63054535D01*
X92882553Y-62955990D01*
X92882540Y-62955983D01*
X92718667Y-62888106D01*
X92718658Y-62888103D01*
X92544694Y-62853500D01*
X92544691Y-62853500D01*
X92367309Y-62853500D01*
X92367306Y-62853500D01*
X92193341Y-62888103D01*
X92193332Y-62888106D01*
X92029459Y-62955983D01*
X92029446Y-62955990D01*
X91881965Y-63054535D01*
X91881961Y-63054538D01*
X91756538Y-63179961D01*
X91756535Y-63179965D01*
X91657990Y-63327446D01*
X91657983Y-63327459D01*
X91590106Y-63491332D01*
X91590103Y-63491341D01*
X91555500Y-63665304D01*
X89475500Y-63665304D01*
X89475500Y-60312361D01*
X89495185Y-60245322D01*
X89511814Y-60224684D01*
X89599464Y-60137035D01*
X89698013Y-59989547D01*
X89765894Y-59825666D01*
X89800500Y-59651691D01*
X89800500Y-59474309D01*
X89800500Y-59474306D01*
X89800499Y-59474304D01*
X89765896Y-59300341D01*
X89765893Y-59300332D01*
X89698016Y-59136459D01*
X89698009Y-59136446D01*
X89599464Y-58988965D01*
X89599461Y-58988961D01*
X89474038Y-58863538D01*
X89474034Y-58863535D01*
X89326553Y-58764990D01*
X89326540Y-58764983D01*
X89162667Y-58697106D01*
X89162658Y-58697103D01*
X88988694Y-58662500D01*
X88988691Y-58662500D01*
X88811309Y-58662500D01*
X88811306Y-58662500D01*
X88637341Y-58697103D01*
X88637332Y-58697106D01*
X88473459Y-58764983D01*
X88473446Y-58764990D01*
X88325965Y-58863535D01*
X88325961Y-58863538D01*
X88200538Y-58988961D01*
X88200535Y-58988965D01*
X88101990Y-59136446D01*
X88101983Y-59136459D01*
X88034106Y-59300332D01*
X88034103Y-59300341D01*
X87999500Y-59474304D01*
X68439237Y-59474304D01*
X68429894Y-59427334D01*
X68381284Y-59309977D01*
X68362016Y-59263459D01*
X68362009Y-59263446D01*
X68263464Y-59115965D01*
X68263461Y-59115961D01*
X68138038Y-58990538D01*
X68138034Y-58990535D01*
X67990553Y-58891990D01*
X67990540Y-58891983D01*
X67826667Y-58824106D01*
X67826658Y-58824103D01*
X67652694Y-58789500D01*
X67652691Y-58789500D01*
X67475309Y-58789500D01*
X67475306Y-58789500D01*
X67301341Y-58824103D01*
X67301332Y-58824106D01*
X67137459Y-58891983D01*
X67137446Y-58891990D01*
X66989965Y-58990535D01*
X66989961Y-58990538D01*
X66864538Y-59115961D01*
X66864535Y-59115965D01*
X66765990Y-59263446D01*
X66765983Y-59263459D01*
X66698106Y-59427332D01*
X66698103Y-59427341D01*
X66663500Y-59601304D01*
X49530500Y-59601304D01*
X49530500Y-54775304D01*
X63742500Y-54775304D01*
X63742500Y-54952695D01*
X63777103Y-55126658D01*
X63777106Y-55126667D01*
X63844983Y-55290540D01*
X63844990Y-55290553D01*
X63943535Y-55438034D01*
X63943538Y-55438038D01*
X64068961Y-55563461D01*
X64068965Y-55563464D01*
X64216446Y-55662009D01*
X64216459Y-55662016D01*
X64339363Y-55712923D01*
X64380334Y-55729894D01*
X64380336Y-55729894D01*
X64380341Y-55729896D01*
X64554304Y-55764499D01*
X64554307Y-55764500D01*
X64554309Y-55764500D01*
X64731693Y-55764500D01*
X64731694Y-55764499D01*
X64789682Y-55752964D01*
X64905658Y-55729896D01*
X64905661Y-55729894D01*
X64905666Y-55729894D01*
X65069547Y-55662013D01*
X65217035Y-55563464D01*
X65304681Y-55475817D01*
X65366002Y-55442334D01*
X65392361Y-55439500D01*
X68338639Y-55439500D01*
X68405678Y-55459185D01*
X68426315Y-55475814D01*
X68513962Y-55563461D01*
X68513966Y-55563465D01*
X68661446Y-55662009D01*
X68661459Y-55662016D01*
X68784363Y-55712923D01*
X68825334Y-55729894D01*
X68825336Y-55729894D01*
X68825341Y-55729896D01*
X68999304Y-55764499D01*
X68999307Y-55764500D01*
X68999309Y-55764500D01*
X69176693Y-55764500D01*
X69176694Y-55764499D01*
X69234682Y-55752964D01*
X69350658Y-55729896D01*
X69350661Y-55729894D01*
X69350666Y-55729894D01*
X69514547Y-55662013D01*
X69662035Y-55563464D01*
X69787464Y-55438035D01*
X69886013Y-55290547D01*
X69953894Y-55126666D01*
X69988500Y-54952691D01*
X69988500Y-54775309D01*
X69988500Y-54775306D01*
X69988499Y-54775304D01*
X69953896Y-54601341D01*
X69953893Y-54601332D01*
X69886016Y-54437459D01*
X69886009Y-54437446D01*
X69787464Y-54289965D01*
X69787461Y-54289961D01*
X69662038Y-54164538D01*
X69662034Y-54164535D01*
X69514553Y-54065990D01*
X69514540Y-54065983D01*
X69350667Y-53998106D01*
X69350658Y-53998103D01*
X69176694Y-53963500D01*
X69176691Y-53963500D01*
X68999309Y-53963500D01*
X68999306Y-53963500D01*
X68825341Y-53998103D01*
X68825332Y-53998106D01*
X68661459Y-54065983D01*
X68661446Y-54065990D01*
X68513966Y-54164534D01*
X68470143Y-54208357D01*
X68426318Y-54252182D01*
X68364998Y-54285666D01*
X68338639Y-54288500D01*
X65392361Y-54288500D01*
X65325322Y-54268815D01*
X65304684Y-54252185D01*
X65217035Y-54164536D01*
X65217034Y-54164535D01*
X65217033Y-54164534D01*
X65069553Y-54065990D01*
X65069540Y-54065983D01*
X64905667Y-53998106D01*
X64905658Y-53998103D01*
X64731694Y-53963500D01*
X64731691Y-53963500D01*
X64554309Y-53963500D01*
X64554306Y-53963500D01*
X64380341Y-53998103D01*
X64380332Y-53998106D01*
X64216459Y-54065983D01*
X64216446Y-54065990D01*
X64068965Y-54164535D01*
X64068961Y-54164538D01*
X63943538Y-54289961D01*
X63943535Y-54289965D01*
X63844990Y-54437446D01*
X63844983Y-54437459D01*
X63777106Y-54601332D01*
X63777103Y-54601341D01*
X63742500Y-54775304D01*
X49530500Y-54775304D01*
X49530500Y-40850641D01*
X51340500Y-40850641D01*
X51340500Y-41149358D01*
X51373943Y-41446172D01*
X51373945Y-41446184D01*
X51440413Y-41737403D01*
X51440417Y-41737415D01*
X51539072Y-42019353D01*
X51668674Y-42288474D01*
X51827600Y-42541403D01*
X51827601Y-42541405D01*
X52013833Y-42774934D01*
X52225065Y-42986166D01*
X52458594Y-43172398D01*
X52458597Y-43172399D01*
X52458599Y-43172401D01*
X52711523Y-43331324D01*
X52980650Y-43460929D01*
X53175572Y-43529135D01*
X53262584Y-43559582D01*
X53262596Y-43559586D01*
X53553815Y-43626055D01*
X53850642Y-43659499D01*
X53850643Y-43659500D01*
X53850646Y-43659500D01*
X54149357Y-43659500D01*
X54149357Y-43659499D01*
X54446185Y-43626055D01*
X54737404Y-43559586D01*
X55019350Y-43460929D01*
X55288477Y-43331324D01*
X55541401Y-43172401D01*
X55541405Y-43172398D01*
X55774934Y-42986166D01*
X55774936Y-42986163D01*
X55774941Y-42986160D01*
X55986160Y-42774941D01*
X56104576Y-42626452D01*
X56172398Y-42541405D01*
X56172399Y-42541403D01*
X56172401Y-42541401D01*
X56331324Y-42288477D01*
X56460929Y-42019350D01*
X56559586Y-41737404D01*
X56626055Y-41446185D01*
X56659500Y-41149354D01*
X56659500Y-40850646D01*
X56626055Y-40553815D01*
X56559586Y-40262596D01*
X56556374Y-40253418D01*
X56520417Y-40150658D01*
X56460929Y-39980650D01*
X56331324Y-39711523D01*
X56172401Y-39458599D01*
X56172399Y-39458596D01*
X56172398Y-39458594D01*
X55986166Y-39225065D01*
X55774934Y-39013833D01*
X55541405Y-38827601D01*
X55541403Y-38827600D01*
X55288474Y-38668674D01*
X55019353Y-38539072D01*
X54737415Y-38440417D01*
X54737403Y-38440413D01*
X54512653Y-38389115D01*
X54446185Y-38373945D01*
X54446181Y-38373944D01*
X54446172Y-38373943D01*
X54149358Y-38340500D01*
X54149354Y-38340500D01*
X53850646Y-38340500D01*
X53850641Y-38340500D01*
X53553827Y-38373943D01*
X53553815Y-38373945D01*
X53262596Y-38440413D01*
X53262584Y-38440417D01*
X52980646Y-38539072D01*
X52711525Y-38668674D01*
X52458596Y-38827600D01*
X52458594Y-38827601D01*
X52225065Y-39013833D01*
X52013833Y-39225065D01*
X51827601Y-39458594D01*
X51827600Y-39458596D01*
X51668674Y-39711525D01*
X51539072Y-39980646D01*
X51440417Y-40262584D01*
X51440413Y-40262596D01*
X51373945Y-40553815D01*
X51373943Y-40553827D01*
X51340500Y-40850641D01*
X49530500Y-40850641D01*
X49530500Y-37233675D01*
X63444500Y-37233675D01*
X63444500Y-37442324D01*
X63477137Y-37648389D01*
X63541612Y-37846820D01*
X63599764Y-37960949D01*
X63636330Y-38032714D01*
X63758965Y-38201505D01*
X63906495Y-38349035D01*
X64075286Y-38471670D01*
X64101448Y-38485000D01*
X64261179Y-38566387D01*
X64261181Y-38566387D01*
X64261184Y-38566389D01*
X64367545Y-38600948D01*
X64459610Y-38630862D01*
X64665676Y-38663500D01*
X64665681Y-38663500D01*
X64874324Y-38663500D01*
X65080389Y-38630862D01*
X65087003Y-38628713D01*
X65278816Y-38566389D01*
X65464714Y-38471670D01*
X65633505Y-38349035D01*
X65780576Y-38201963D01*
X65841896Y-38168481D01*
X65911587Y-38173465D01*
X65967521Y-38215336D01*
X65986496Y-38263552D01*
X65989124Y-38262932D01*
X65990907Y-38270479D01*
X66041202Y-38405328D01*
X66041206Y-38405335D01*
X66127452Y-38520544D01*
X66127455Y-38520547D01*
X66242664Y-38606793D01*
X66242671Y-38606797D01*
X66377517Y-38657091D01*
X66377516Y-38657091D01*
X66384444Y-38657835D01*
X66437127Y-38663500D01*
X68182872Y-38663499D01*
X68242483Y-38657091D01*
X68377331Y-38606796D01*
X68492546Y-38520546D01*
X68578796Y-38405331D01*
X68629091Y-38270483D01*
X68635500Y-38210873D01*
X68635499Y-36465128D01*
X68629091Y-36405517D01*
X68599793Y-36326966D01*
X68578797Y-36270671D01*
X68578793Y-36270664D01*
X68492547Y-36155455D01*
X68492544Y-36155452D01*
X68377335Y-36069206D01*
X68377328Y-36069202D01*
X68242482Y-36018908D01*
X68242483Y-36018908D01*
X68182883Y-36012501D01*
X68182881Y-36012500D01*
X68182873Y-36012500D01*
X68182864Y-36012500D01*
X66437129Y-36012500D01*
X66437123Y-36012501D01*
X66377516Y-36018908D01*
X66242671Y-36069202D01*
X66242664Y-36069206D01*
X66127455Y-36155452D01*
X66127452Y-36155455D01*
X66041206Y-36270664D01*
X66041202Y-36270671D01*
X65990908Y-36405517D01*
X65989126Y-36413062D01*
X65986253Y-36412383D01*
X65964804Y-36464162D01*
X65907411Y-36504008D01*
X65837586Y-36506500D01*
X65780574Y-36474034D01*
X65633506Y-36326966D01*
X65556023Y-36270671D01*
X65464714Y-36204330D01*
X65445847Y-36194717D01*
X65278820Y-36109612D01*
X65080389Y-36045137D01*
X64874324Y-36012500D01*
X64874319Y-36012500D01*
X64665681Y-36012500D01*
X64665676Y-36012500D01*
X64459610Y-36045137D01*
X64261179Y-36109612D01*
X64075285Y-36204330D01*
X63906493Y-36326966D01*
X63758966Y-36474493D01*
X63636330Y-36643285D01*
X63541612Y-36829179D01*
X63477137Y-37027610D01*
X63444500Y-37233675D01*
X49530500Y-37233675D01*
X49530500Y-34718759D01*
X63965500Y-34718759D01*
X63965500Y-34877240D01*
X63996414Y-35032656D01*
X63996416Y-35032664D01*
X64057059Y-35179071D01*
X64057064Y-35179080D01*
X64145103Y-35310838D01*
X64145106Y-35310842D01*
X64257157Y-35422893D01*
X64257161Y-35422896D01*
X64388919Y-35510935D01*
X64388925Y-35510938D01*
X64388926Y-35510939D01*
X64535336Y-35571584D01*
X64684173Y-35601189D01*
X64690759Y-35602499D01*
X64690763Y-35602500D01*
X64690764Y-35602500D01*
X64849237Y-35602500D01*
X64849238Y-35602499D01*
X65004664Y-35571584D01*
X65151074Y-35510939D01*
X65282839Y-35422896D01*
X65394896Y-35310839D01*
X65482939Y-35179074D01*
X65543584Y-35032664D01*
X65574500Y-34877236D01*
X65574500Y-34718764D01*
X65574499Y-34718759D01*
X66505500Y-34718759D01*
X66505500Y-34877240D01*
X66536414Y-35032656D01*
X66536416Y-35032664D01*
X66597059Y-35179071D01*
X66597064Y-35179080D01*
X66685103Y-35310838D01*
X66685106Y-35310842D01*
X66797157Y-35422893D01*
X66797161Y-35422896D01*
X66928919Y-35510935D01*
X66928925Y-35510938D01*
X66928926Y-35510939D01*
X67075336Y-35571584D01*
X67224173Y-35601189D01*
X67230759Y-35602499D01*
X67230763Y-35602500D01*
X67230764Y-35602500D01*
X67389237Y-35602500D01*
X67389238Y-35602499D01*
X67544664Y-35571584D01*
X67691074Y-35510939D01*
X67822839Y-35422896D01*
X67934896Y-35310839D01*
X68022939Y-35179074D01*
X68083584Y-35032664D01*
X68114500Y-34877236D01*
X68114500Y-34718764D01*
X68083584Y-34563336D01*
X68022939Y-34416926D01*
X68022938Y-34416925D01*
X68022935Y-34416919D01*
X67934896Y-34285161D01*
X67934893Y-34285157D01*
X67822842Y-34173106D01*
X67822838Y-34173103D01*
X67691080Y-34085064D01*
X67691071Y-34085059D01*
X67544664Y-34024416D01*
X67544656Y-34024414D01*
X67389240Y-33993500D01*
X67389236Y-33993500D01*
X67230764Y-33993500D01*
X67230759Y-33993500D01*
X67075343Y-34024414D01*
X67075335Y-34024416D01*
X66928928Y-34085059D01*
X66928919Y-34085064D01*
X66797161Y-34173103D01*
X66797157Y-34173106D01*
X66685106Y-34285157D01*
X66685103Y-34285161D01*
X66597064Y-34416919D01*
X66597059Y-34416928D01*
X66536416Y-34563335D01*
X66536414Y-34563343D01*
X66505500Y-34718759D01*
X65574499Y-34718759D01*
X65543584Y-34563336D01*
X65482939Y-34416926D01*
X65482938Y-34416925D01*
X65482935Y-34416919D01*
X65394896Y-34285161D01*
X65394893Y-34285157D01*
X65282842Y-34173106D01*
X65282838Y-34173103D01*
X65151080Y-34085064D01*
X65151071Y-34085059D01*
X65004664Y-34024416D01*
X65004656Y-34024414D01*
X64849240Y-33993500D01*
X64849236Y-33993500D01*
X64690764Y-33993500D01*
X64690759Y-33993500D01*
X64535343Y-34024414D01*
X64535335Y-34024416D01*
X64388928Y-34085059D01*
X64388919Y-34085064D01*
X64257161Y-34173103D01*
X64257157Y-34173106D01*
X64145106Y-34285157D01*
X64145103Y-34285161D01*
X64057064Y-34416919D01*
X64057059Y-34416928D01*
X63996416Y-34563335D01*
X63996414Y-34563343D01*
X63965500Y-34718759D01*
X49530500Y-34718759D01*
X49530500Y-33144500D01*
X49550185Y-33077461D01*
X49602989Y-33031706D01*
X49654500Y-33020500D01*
X71439941Y-33020500D01*
X71506980Y-33040185D01*
G37*
G04 #@! TD.AperFunction*
M02*
