M48
; DRILL file {KiCad 9.0.5} date 2025-12-23T11:29:24-0600
; FORMAT={-:-/ absolute / metric / decimal}
; #@! TF.CreationDate,2025-12-23T11:29:24-06:00
; #@! TF.GenerationSoftware,Kicad,Pcbnew,9.0.5
; #@! TF.FileFunction,Plated,1,2,PTH
FMAT,2
METRIC
; #@! TA.AperFunction,Plated,PTH,ViaDrill
T1C0.400
; #@! TA.AperFunction,Plated,PTH,ComponentDrill
T2C1.000
; #@! TA.AperFunction,Plated,PTH,ComponentDrill
T3C1.016
; #@! TA.AperFunction,Plated,PTH,ComponentDrill
T4C1.100
; #@! TA.AperFunction,Plated,PTH,ComponentDrill
T5C1.700
; #@! TA.AperFunction,Plated,PTH,ComponentDrill
T6C1.800
; #@! TA.AperFunction,Plated,PTH,ViaDrill
T7C2.032
; #@! TA.AperFunction,Plated,PTH,ComponentDrill
T8C3.175
%
G90
G05
T1
X60.325Y-100.33
X64.643Y-54.864
X65.024Y-100.33
X65.913Y-48.26
X67.564Y-59.69
X67.564Y-108.712
X69.088Y-54.864
X70.104Y-112.776
X70.739Y-43.053
X72.39Y-33.528
X72.517Y-96.012
X73.152Y-45.72
X74.041Y-106.045
X75.184Y-89.281
X75.565Y-76.327
X78.613Y-98.171
X81.28Y-48.514
X81.661Y-78.105
X83.947Y-91.44
X85.725Y-79.375
X88.9Y-59.563
X89.154Y-66.675
X92.456Y-63.754
X92.456Y-81.026
X93.98Y-80.899
X94.107Y-65.024
X95.123Y-59.563
X96.012Y-80.899
X96.266Y-65.786
X97.028Y-80.772
X97.155Y-67.691
X97.917Y-97.79
X99.441Y-90.043
X101.6Y-102.997
X101.6Y-111.379
X104.14Y-102.997
X104.267Y-87.249
X104.267Y-91.186
X107.061Y-97.79
X108.839Y-65.024
X109.728Y-114.3
X110.363Y-59.69
X110.363Y-71.501
X110.998Y-104.267
X111.633Y-65.659
X113.03Y-60.452
X113.284Y-40.132
X113.792Y-96.438
X116.459Y-44.958
X116.459Y-59.944
X116.459Y-62.484
X120.396Y-82.169
X121.076Y-55.581
X126.365Y-52.832
X126.492Y-106.807
X126.619Y-84.836
X130.429Y-41.275
X132.842Y-67.691
X132.969Y-65.532
X134.747Y-109.982
X138.303Y-84.074
X138.43Y-65.024
T2
X51.43Y-104.14
X51.557Y-117.475
X52.07Y-81.021
X52.07Y-83.561
X53.97Y-104.14
X54.097Y-117.475
X57.785Y-117.475
X60.325Y-117.475
X73.025Y-110.49
X73.025Y-113.03
X73.025Y-115.57
X75.184Y-36.7
X75.184Y-39.24
X81.026Y-116.586
X83.947Y-39.116
X84.201Y-113.157
X95.631Y-39.116
X95.885Y-113.157
X115.57Y-38.735
X115.57Y-41.275
X118.11Y-38.735
X118.11Y-41.275
X120.65Y-38.735
X120.65Y-41.275
X123.19Y-38.735
X123.19Y-41.275
X128.524Y-117.475
X130.81Y-35.433
X131.064Y-117.475
X133.35Y-35.433
X136.525Y-117.475
X138.557Y-93.091
X139.065Y-117.475
X141.097Y-78.486
X145.415Y-49.53
X145.415Y-52.07
X145.415Y-73.406
X145.415Y-75.946
X145.415Y-78.486
X145.415Y-85.09
X145.415Y-87.63
X145.415Y-97.409
X145.415Y-99.949
T3
X108.204Y-108.077
X108.204Y-110.617
X110.744Y-108.077
X110.744Y-110.617
X113.284Y-108.077
X113.284Y-110.617
X115.824Y-108.077
X115.824Y-110.617
T4
X64.77Y-37.338
X64.77Y-114.935
X67.31Y-37.338
X67.31Y-114.935
T5
X56.769Y-91.313
X56.769Y-95.273
T6
X87.861Y-39.116
X88.115Y-113.157
X91.821Y-39.116
X92.075Y-113.157
T7
X63.754Y-66.675
X77.089Y-66.929
X115.951Y-76.426
T8
X54.0Y-41.0
X54.0Y-111.0
X144.0Y-41.0
X144.0Y-111.0
M30
