G04 #@! TF.GenerationSoftware,KiCad,Pcbnew,9.0.5*
G04 #@! TF.CreationDate,2025-12-23T11:29:20-06:00*
G04 #@! TF.ProjectId,MotorBoard,4d6f746f-7242-46f6-9172-642e6b696361,v7*
G04 #@! TF.SameCoordinates,Original*
G04 #@! TF.FileFunction,Paste,Top*
G04 #@! TF.FilePolarity,Positive*
%FSLAX46Y46*%
G04 Gerber Fmt 4.6, Leading zero omitted, Abs format (unit mm)*
G04 Created by KiCad (PCBNEW 9.0.5) date 2025-12-23 11:29:20*
%MOMM*%
%LPD*%
G01*
G04 APERTURE LIST*
G04 Aperture macros list*
%AMRoundRect*
0 Rectangle with rounded corners*
0 $1 Rounding radius*
0 $2 $3 $4 $5 $6 $7 $8 $9 X,Y pos of 4 corners*
0 Add a 4 corners polygon primitive as box body*
4,1,4,$2,$3,$4,$5,$6,$7,$8,$9,$2,$3,0*
0 Add four circle primitives for the rounded corners*
1,1,$1+$1,$2,$3*
1,1,$1+$1,$4,$5*
1,1,$1+$1,$6,$7*
1,1,$1+$1,$8,$9*
0 Add four rect primitives between the rounded corners*
20,1,$1+$1,$2,$3,$4,$5,0*
20,1,$1+$1,$4,$5,$6,$7,0*
20,1,$1+$1,$6,$7,$8,$9,0*
20,1,$1+$1,$8,$9,$2,$3,0*%
G04 Aperture macros list end*
%ADD10RoundRect,0.250000X-0.475000X0.250000X-0.475000X-0.250000X0.475000X-0.250000X0.475000X0.250000X0*%
%ADD11RoundRect,0.200000X-0.275000X0.200000X-0.275000X-0.200000X0.275000X-0.200000X0.275000X0.200000X0*%
%ADD12RoundRect,0.225000X0.225000X0.250000X-0.225000X0.250000X-0.225000X-0.250000X0.225000X-0.250000X0*%
%ADD13RoundRect,0.225000X-0.225000X-0.250000X0.225000X-0.250000X0.225000X0.250000X-0.225000X0.250000X0*%
%ADD14R,1.750000X0.950000*%
%ADD15R,1.750000X3.200000*%
%ADD16RoundRect,0.200000X-0.200000X-0.275000X0.200000X-0.275000X0.200000X0.275000X-0.200000X0.275000X0*%
%ADD17RoundRect,0.250000X0.475000X-0.250000X0.475000X0.250000X-0.475000X0.250000X-0.475000X-0.250000X0*%
%ADD18RoundRect,0.250000X1.000000X-1.950000X1.000000X1.950000X-1.000000X1.950000X-1.000000X-1.950000X0*%
%ADD19R,1.050000X0.500000*%
%ADD20R,3.200000X5.100000*%
%ADD21R,1.000000X3.150000*%
%ADD22R,0.650000X1.525000*%
%ADD23R,3.100000X2.400000*%
%ADD24RoundRect,0.200000X0.275000X-0.200000X0.275000X0.200000X-0.275000X0.200000X-0.275000X-0.200000X0*%
%ADD25R,0.650000X1.528000*%
%ADD26R,0.800000X0.800000*%
%ADD27R,1.020000X2.160000*%
%ADD28R,10.000000X6.990000*%
%ADD29RoundRect,0.250000X1.400000X1.000000X-1.400000X1.000000X-1.400000X-1.000000X1.400000X-1.000000X0*%
G04 APERTURE END LIST*
D10*
X100457000Y-72616000D03*
X100457000Y-74516000D03*
D11*
X111887000Y-38609000D03*
X111887000Y-40259000D03*
D12*
X67577000Y-53086000D03*
X66027000Y-53086000D03*
D13*
X70612000Y-45720000D03*
X72162000Y-45720000D03*
D14*
X106553000Y-73886000D03*
X106553000Y-76186000D03*
X106553000Y-78486000D03*
D15*
X112853000Y-76186000D03*
D16*
X119381000Y-107188000D03*
X121031000Y-107188000D03*
X62294000Y-107442000D03*
X63944000Y-107442000D03*
D17*
X112395000Y-99182000D03*
X112395000Y-97282000D03*
D18*
X82423000Y-72136000D03*
X82423000Y-63736000D03*
D11*
X112395000Y-93472000D03*
X112395000Y-95122000D03*
D19*
X78481000Y-115697000D03*
X76205000Y-115697000D03*
D20*
X65338000Y-85598000D03*
X75438000Y-85598000D03*
D17*
X100330000Y-79342000D03*
X100330000Y-77442000D03*
D21*
X81280000Y-100300000D03*
X81280000Y-95250000D03*
X83820000Y-100300000D03*
X83820000Y-95250000D03*
X86360000Y-100300000D03*
X86360000Y-95250000D03*
X88900000Y-100300000D03*
X88900000Y-95250000D03*
X91440000Y-100300000D03*
X91440000Y-95250000D03*
X93980000Y-100300000D03*
X93980000Y-95250000D03*
X96520000Y-100300000D03*
X96520000Y-95250000D03*
X99060000Y-100300000D03*
X99060000Y-95250000D03*
X101600000Y-100300000D03*
X101600000Y-95250000D03*
X104140000Y-100300000D03*
X104140000Y-95250000D03*
D16*
X74042000Y-43053000D03*
X75692000Y-43053000D03*
D22*
X118999000Y-93726000D03*
X117729000Y-93726000D03*
X116459000Y-93726000D03*
X115189000Y-93726000D03*
X115189000Y-99150000D03*
X116459000Y-99150000D03*
X117729000Y-99150000D03*
X118999000Y-99150000D03*
D23*
X117094000Y-96438000D03*
D24*
X121920000Y-58546000D03*
X121920000Y-56896000D03*
D25*
X64643000Y-50761000D03*
X65913000Y-50761000D03*
X67183000Y-50761000D03*
X68453000Y-50761000D03*
X68453000Y-45339000D03*
X67183000Y-45339000D03*
X65913000Y-45339000D03*
X64643000Y-45339000D03*
D16*
X127700000Y-109982000D03*
X129350000Y-109982000D03*
D21*
X81280000Y-57120000D03*
X81280000Y-52070000D03*
X83820000Y-57120000D03*
X83820000Y-52070000D03*
X86360000Y-57120000D03*
X86360000Y-52070000D03*
X88900000Y-57120000D03*
X88900000Y-52070000D03*
X91440000Y-57120000D03*
X91440000Y-52070000D03*
X93980000Y-57120000D03*
X93980000Y-52070000D03*
X96520000Y-57120000D03*
X96520000Y-52070000D03*
X99060000Y-57120000D03*
X99060000Y-52070000D03*
X101600000Y-57120000D03*
X101600000Y-52070000D03*
X104140000Y-57120000D03*
X104140000Y-52070000D03*
D22*
X115189000Y-58293000D03*
X116459000Y-58293000D03*
X117729000Y-58293000D03*
X118999000Y-58293000D03*
X118999000Y-52869000D03*
X117729000Y-52869000D03*
X116459000Y-52869000D03*
X115189000Y-52869000D03*
D23*
X117094000Y-55581000D03*
D26*
X67500000Y-107442000D03*
X65850000Y-107442000D03*
D19*
X78481000Y-110490000D03*
X76205000Y-110490000D03*
D17*
X141224000Y-75433000D03*
X141224000Y-73533000D03*
D10*
X121920000Y-52837000D03*
X121920000Y-54737000D03*
D27*
X66958000Y-76285000D03*
X68658000Y-76285000D03*
X70358000Y-76285000D03*
X72058000Y-76285000D03*
X73758000Y-76285000D03*
D28*
X70358000Y-65610000D03*
D18*
X57277000Y-72027000D03*
X57277000Y-63627000D03*
D29*
X58039000Y-85032000D03*
X58039000Y-78232000D03*
D26*
X133286000Y-109982000D03*
X131636000Y-109982000D03*
M02*
