G04 #@! TF.GenerationSoftware,KiCad,Pcbnew,9.0.5*
G04 #@! TF.CreationDate,2025-12-17T13:43:09-06:00*
G04 #@! TF.ProjectId,SensorBoard,53656e73-6f72-4426-9f61-72642e6b6963,v8.0.2*
G04 #@! TF.SameCoordinates,Original*
G04 #@! TF.FileFunction,Soldermask,Bot*
G04 #@! TF.FilePolarity,Negative*
%FSLAX46Y46*%
G04 Gerber Fmt 4.6, Leading zero omitted, Abs format (unit mm)*
G04 Created by KiCad (PCBNEW 9.0.5) date 2025-12-17 13:43:09*
%MOMM*%
%LPD*%
G01*
G04 APERTURE LIST*
G04 Aperture macros list*
%AMRoundRect*
0 Rectangle with rounded corners*
0 $1 Rounding radius*
0 $2 $3 $4 $5 $6 $7 $8 $9 X,Y pos of 4 corners*
0 Add a 4 corners polygon primitive as box body*
4,1,4,$2,$3,$4,$5,$6,$7,$8,$9,$2,$3,0*
0 Add four circle primitives for the rounded corners*
1,1,$1+$1,$2,$3*
1,1,$1+$1,$4,$5*
1,1,$1+$1,$6,$7*
1,1,$1+$1,$8,$9*
0 Add four rect primitives between the rounded corners*
20,1,$1+$1,$2,$3,$4,$5,0*
20,1,$1+$1,$4,$5,$6,$7,0*
20,1,$1+$1,$6,$7,$8,$9,0*
20,1,$1+$1,$8,$9,$2,$3,0*%
G04 Aperture macros list end*
%ADD10C,1.400000*%
%ADD11O,1.400000X1.400000*%
%ADD12R,1.700000X1.700000*%
%ADD13O,1.700000X1.700000*%
%ADD14C,1.700000*%
%ADD15R,1.350000X1.350000*%
%ADD16O,1.350000X1.350000*%
%ADD17C,1.350000*%
%ADD18C,2.200000*%
%ADD19RoundRect,0.102000X0.889000X-0.889000X0.889000X0.889000X-0.889000X0.889000X-0.889000X-0.889000X0*%
%ADD20C,1.982000*%
%ADD21C,4.318000*%
%ADD22C,1.100000*%
%ADD23R,1.650000X1.650000*%
%ADD24C,1.650000*%
%ADD25C,3.810000*%
%ADD26RoundRect,0.102000X0.889000X0.889000X-0.889000X0.889000X-0.889000X-0.889000X0.889000X-0.889000X0*%
G04 APERTURE END LIST*
D10*
X110490000Y-35941000D03*
D11*
X110490000Y-43561000D03*
D12*
X75184000Y-36700000D03*
D13*
X75184000Y-39240000D03*
D14*
X193040000Y-66040000D03*
D15*
X166720000Y-111252000D03*
D16*
X168720000Y-111252000D03*
X170720000Y-111252000D03*
D17*
X172720000Y-111252000D03*
D14*
X191135000Y-48895000D03*
X158750000Y-105410000D03*
X186817000Y-105410000D03*
X191135000Y-45085000D03*
X126111000Y-115062000D03*
D13*
X128651000Y-115062000D03*
D14*
X174625000Y-37719000D03*
D15*
X187325000Y-41275000D03*
D16*
X185325000Y-41275000D03*
X183325000Y-41275000D03*
D17*
X181325000Y-41275000D03*
D14*
X188849000Y-101854000D03*
D18*
X149860000Y-47044475D03*
X149860000Y-97844475D03*
X179070000Y-47044475D03*
X179070000Y-97844475D03*
D19*
X153035000Y-97844475D03*
D20*
X155575000Y-97844475D03*
X158115000Y-97844475D03*
X160655000Y-97844475D03*
X163195000Y-97844475D03*
X165735000Y-97844475D03*
X168275000Y-97844475D03*
X170815000Y-97844475D03*
X173355000Y-97844475D03*
X175895000Y-97844475D03*
D12*
X96139000Y-38227000D03*
D13*
X98679000Y-38227000D03*
D12*
X123190000Y-38735000D03*
D13*
X120650000Y-38735000D03*
X118110000Y-38735000D03*
X115570000Y-38735000D03*
X115570000Y-41275000D03*
X118110000Y-41275000D03*
X120650000Y-41275000D03*
X123190000Y-41275000D03*
D14*
X137668000Y-97790000D03*
D21*
X144000000Y-41000000D03*
X144000000Y-111000000D03*
X54000000Y-41000000D03*
D22*
X67310000Y-34798000D03*
X64770000Y-34798000D03*
D23*
X67310000Y-37338000D03*
D24*
X64770000Y-37338000D03*
D14*
X100330000Y-118110000D03*
D25*
X184095526Y-52698250D03*
D26*
X139645526Y-91433250D03*
D20*
X139645526Y-88893250D03*
X139645526Y-86353250D03*
X139645526Y-83813250D03*
X139645526Y-81273250D03*
X139645526Y-78733250D03*
X139645526Y-76193250D03*
X139645526Y-73653250D03*
X139645526Y-71113250D03*
X139645526Y-68573250D03*
X139645526Y-66033250D03*
X139645526Y-63493250D03*
X139645526Y-60953250D03*
X139645526Y-58413250D03*
X139645526Y-55873250D03*
X139645526Y-53333250D03*
D21*
X54000000Y-111000000D03*
D15*
X152750000Y-111252000D03*
D16*
X154750000Y-111252000D03*
X156750000Y-111252000D03*
D17*
X158750000Y-111252000D03*
D22*
X64770000Y-117475000D03*
X67310000Y-117475000D03*
D23*
X64770000Y-114935000D03*
D24*
X67310000Y-114935000D03*
D15*
X181960000Y-111252000D03*
D16*
X183960000Y-111252000D03*
X185960000Y-111252000D03*
D17*
X187960000Y-111252000D03*
D14*
X134112000Y-115062000D03*
D13*
X136652000Y-115062000D03*
D14*
X193040000Y-69215000D03*
X185420000Y-100076000D03*
X175260000Y-105410000D03*
X130170000Y-41000000D03*
D13*
X132710000Y-41000000D03*
D12*
X51430000Y-104140000D03*
D13*
X53970000Y-104140000D03*
D14*
X191008000Y-105664000D03*
D12*
X73025000Y-110490000D03*
D13*
X73025000Y-113030000D03*
X73025000Y-115570000D03*
D15*
X192405000Y-55880000D03*
D16*
X192405000Y-57880000D03*
X192405000Y-59880000D03*
D17*
X192405000Y-61880000D03*
M02*
