G04 #@! TF.GenerationSoftware,KiCad,Pcbnew,9.0.5*
G04 #@! TF.CreationDate,2025-12-17T13:43:09-06:00*
G04 #@! TF.ProjectId,SensorBoard,53656e73-6f72-4426-9f61-72642e6b6963,v8.0.2*
G04 #@! TF.SameCoordinates,Original*
G04 #@! TF.FileFunction,Copper,L1,Top*
G04 #@! TF.FilePolarity,Positive*
%FSLAX46Y46*%
G04 Gerber Fmt 4.6, Leading zero omitted, Abs format (unit mm)*
G04 Created by KiCad (PCBNEW 9.0.5) date 2025-12-17 13:43:09*
%MOMM*%
%LPD*%
G01*
G04 APERTURE LIST*
G04 Aperture macros list*
%AMRoundRect*
0 Rectangle with rounded corners*
0 $1 Rounding radius*
0 $2 $3 $4 $5 $6 $7 $8 $9 X,Y pos of 4 corners*
0 Add a 4 corners polygon primitive as box body*
4,1,4,$2,$3,$4,$5,$6,$7,$8,$9,$2,$3,0*
0 Add four circle primitives for the rounded corners*
1,1,$1+$1,$2,$3*
1,1,$1+$1,$4,$5*
1,1,$1+$1,$6,$7*
1,1,$1+$1,$8,$9*
0 Add four rect primitives between the rounded corners*
20,1,$1+$1,$2,$3,$4,$5,0*
20,1,$1+$1,$4,$5,$6,$7,0*
20,1,$1+$1,$6,$7,$8,$9,0*
20,1,$1+$1,$8,$9,$2,$3,0*%
G04 Aperture macros list end*
G04 #@! TA.AperFunction,Conductor*
%ADD10C,0.200000*%
G04 #@! TD*
G04 #@! TA.AperFunction,SMDPad,CuDef*
%ADD11RoundRect,0.250000X-0.475000X0.250000X-0.475000X-0.250000X0.475000X-0.250000X0.475000X0.250000X0*%
G04 #@! TD*
G04 #@! TA.AperFunction,SMDPad,CuDef*
%ADD12RoundRect,0.200000X0.275000X-0.200000X0.275000X0.200000X-0.275000X0.200000X-0.275000X-0.200000X0*%
G04 #@! TD*
G04 #@! TA.AperFunction,ComponentPad*
%ADD13C,1.400000*%
G04 #@! TD*
G04 #@! TA.AperFunction,ComponentPad*
%ADD14O,1.400000X1.400000*%
G04 #@! TD*
G04 #@! TA.AperFunction,ComponentPad*
%ADD15R,1.700000X1.700000*%
G04 #@! TD*
G04 #@! TA.AperFunction,ComponentPad*
%ADD16O,1.700000X1.700000*%
G04 #@! TD*
G04 #@! TA.AperFunction,ComponentPad*
%ADD17C,1.700000*%
G04 #@! TD*
G04 #@! TA.AperFunction,SMDPad,CuDef*
%ADD18RoundRect,0.225000X0.225000X0.250000X-0.225000X0.250000X-0.225000X-0.250000X0.225000X-0.250000X0*%
G04 #@! TD*
G04 #@! TA.AperFunction,ComponentPad*
%ADD19R,1.350000X1.350000*%
G04 #@! TD*
G04 #@! TA.AperFunction,ComponentPad*
%ADD20O,1.350000X1.350000*%
G04 #@! TD*
G04 #@! TA.AperFunction,ComponentPad*
%ADD21C,1.350000*%
G04 #@! TD*
G04 #@! TA.AperFunction,SMDPad,CuDef*
%ADD22R,1.900000X0.609600*%
G04 #@! TD*
G04 #@! TA.AperFunction,SMDPad,CuDef*
%ADD23R,2.844800X1.500000*%
G04 #@! TD*
G04 #@! TA.AperFunction,SMDPad,CuDef*
%ADD24RoundRect,0.250000X0.250000X0.475000X-0.250000X0.475000X-0.250000X-0.475000X0.250000X-0.475000X0*%
G04 #@! TD*
G04 #@! TA.AperFunction,SMDPad,CuDef*
%ADD25RoundRect,0.200000X-0.275000X0.200000X-0.275000X-0.200000X0.275000X-0.200000X0.275000X0.200000X0*%
G04 #@! TD*
G04 #@! TA.AperFunction,SMDPad,CuDef*
%ADD26R,1.750000X0.950000*%
G04 #@! TD*
G04 #@! TA.AperFunction,SMDPad,CuDef*
%ADD27R,1.750000X3.200000*%
G04 #@! TD*
G04 #@! TA.AperFunction,SMDPad,CuDef*
%ADD28RoundRect,0.200000X-0.200000X-0.275000X0.200000X-0.275000X0.200000X0.275000X-0.200000X0.275000X0*%
G04 #@! TD*
G04 #@! TA.AperFunction,SMDPad,CuDef*
%ADD29RoundRect,0.250000X-0.250000X-0.475000X0.250000X-0.475000X0.250000X0.475000X-0.250000X0.475000X0*%
G04 #@! TD*
G04 #@! TA.AperFunction,SMDPad,CuDef*
%ADD30RoundRect,0.225000X0.250000X-0.225000X0.250000X0.225000X-0.250000X0.225000X-0.250000X-0.225000X0*%
G04 #@! TD*
G04 #@! TA.AperFunction,SMDPad,CuDef*
%ADD31RoundRect,0.225000X-0.250000X0.225000X-0.250000X-0.225000X0.250000X-0.225000X0.250000X0.225000X0*%
G04 #@! TD*
G04 #@! TA.AperFunction,ComponentPad*
%ADD32R,1.778000X1.778000*%
G04 #@! TD*
G04 #@! TA.AperFunction,ComponentPad*
%ADD33C,1.778000*%
G04 #@! TD*
G04 #@! TA.AperFunction,SMDPad,CuDef*
%ADD34R,1.050000X0.500000*%
G04 #@! TD*
G04 #@! TA.AperFunction,ComponentPad*
%ADD35C,4.318000*%
G04 #@! TD*
G04 #@! TA.AperFunction,SMDPad,CuDef*
%ADD36RoundRect,0.250000X0.475000X-0.250000X0.475000X0.250000X-0.475000X0.250000X-0.475000X-0.250000X0*%
G04 #@! TD*
G04 #@! TA.AperFunction,ComponentPad*
%ADD37R,1.650000X1.650000*%
G04 #@! TD*
G04 #@! TA.AperFunction,ComponentPad*
%ADD38C,1.650000*%
G04 #@! TD*
G04 #@! TA.AperFunction,SMDPad,CuDef*
%ADD39R,1.000000X3.150000*%
G04 #@! TD*
G04 #@! TA.AperFunction,WasherPad*
%ADD40C,3.810000*%
G04 #@! TD*
G04 #@! TA.AperFunction,SMDPad,CuDef*
%ADD41R,1.528000X0.650000*%
G04 #@! TD*
G04 #@! TA.AperFunction,SMDPad,CuDef*
%ADD42R,0.650000X1.525000*%
G04 #@! TD*
G04 #@! TA.AperFunction,SMDPad,CuDef*
%ADD43R,0.800000X0.800000*%
G04 #@! TD*
G04 #@! TA.AperFunction,SMDPad,CuDef*
%ADD44RoundRect,0.225000X-0.225000X-0.250000X0.225000X-0.250000X0.225000X0.250000X-0.225000X0.250000X0*%
G04 #@! TD*
G04 #@! TA.AperFunction,ViaPad*
%ADD45C,0.800000*%
G04 #@! TD*
G04 #@! TA.AperFunction,ViaPad*
%ADD46C,2.540000*%
G04 #@! TD*
G04 #@! TA.AperFunction,Conductor*
%ADD47C,0.150000*%
G04 #@! TD*
G04 #@! TA.AperFunction,Conductor*
%ADD48C,0.500000*%
G04 #@! TD*
G04 APERTURE END LIST*
D10*
X183325000Y-41275000D02*
X183325000Y-38862000D01*
X183325000Y-38862000D02*
X182118000Y-37719000D01*
D11*
X97790000Y-108905000D03*
X97790000Y-110805000D03*
D12*
X74422000Y-68135000D03*
X74422000Y-66485000D03*
D13*
X110490000Y-35941000D03*
D14*
X110490000Y-43561000D03*
D15*
X75184000Y-36700000D03*
D16*
X75184000Y-39240000D03*
D17*
X193040000Y-66040000D03*
D18*
X85865000Y-43307000D03*
X84315000Y-43307000D03*
D19*
X166720000Y-111252000D03*
D20*
X168720000Y-111252000D03*
X170720000Y-111252000D03*
D21*
X172720000Y-111252000D03*
D17*
X191135000Y-48895000D03*
X158750000Y-105410000D03*
D22*
X194284999Y-115414999D03*
X194284999Y-114164999D03*
X194284999Y-112914999D03*
X194284999Y-111664999D03*
X194284999Y-110414999D03*
X194284999Y-109164999D03*
D23*
X197485000Y-117989999D03*
X197485000Y-106589999D03*
D24*
X169225000Y-106680000D03*
X167325000Y-106680000D03*
D25*
X69850000Y-66485000D03*
X69850000Y-68135000D03*
X60960000Y-66485000D03*
X60960000Y-68135000D03*
D17*
X186817000Y-105410000D03*
D26*
X104013000Y-110744000D03*
X104013000Y-113044000D03*
X104013000Y-115344000D03*
D27*
X110313000Y-113044000D03*
D17*
X191135000Y-45085000D03*
X126111000Y-115062000D03*
D16*
X128651000Y-115062000D03*
D25*
X56388000Y-82360000D03*
X56388000Y-84010000D03*
D28*
X87504000Y-117221000D03*
X89154000Y-117221000D03*
D29*
X185679000Y-46101000D03*
X187579000Y-46101000D03*
D17*
X174625000Y-37719000D03*
D30*
X58674000Y-83960000D03*
X58674000Y-82410000D03*
D19*
X187325000Y-41275000D03*
D20*
X185325000Y-41275000D03*
X183325000Y-41275000D03*
D21*
X181325000Y-41275000D03*
D22*
X194339300Y-46305000D03*
X194339300Y-45055000D03*
X194339300Y-43805000D03*
X194339300Y-42555000D03*
X194339300Y-41305000D03*
X194339300Y-40055000D03*
D23*
X197539301Y-48880000D03*
X197539301Y-37480000D03*
D25*
X74422000Y-82360000D03*
X74422000Y-84010000D03*
D31*
X72136000Y-82410000D03*
X72136000Y-83960000D03*
D17*
X188849000Y-101854000D03*
D32*
X153035000Y-97844475D03*
D33*
X155575000Y-97844475D03*
X158115000Y-97844475D03*
X160655000Y-97844475D03*
X163195000Y-97844475D03*
X165735000Y-97844475D03*
X168275000Y-97844475D03*
X170815000Y-97844475D03*
X173355000Y-97844475D03*
X175895000Y-97844475D03*
D34*
X82291000Y-116205000D03*
X80015000Y-116205000D03*
D15*
X96139000Y-38227000D03*
D16*
X98679000Y-38227000D03*
D15*
X123190000Y-38735000D03*
D16*
X120650000Y-38735000D03*
X118110000Y-38735000D03*
X115570000Y-38735000D03*
X115570000Y-41275000D03*
X118110000Y-41275000D03*
X120650000Y-41275000D03*
X123190000Y-41275000D03*
D31*
X67564000Y-82410000D03*
X67564000Y-83960000D03*
X65405000Y-80391000D03*
X65405000Y-81941000D03*
D17*
X137668000Y-97790000D03*
D31*
X63246000Y-82410000D03*
X63246000Y-83960000D03*
D35*
X144000000Y-41000000D03*
X144000000Y-111000000D03*
X54000000Y-41000000D03*
D36*
X97790000Y-116200000D03*
X97790000Y-114300000D03*
D37*
X67310000Y-37338000D03*
D38*
X64770000Y-37338000D03*
D39*
X81280000Y-100300000D03*
X81280000Y-95250000D03*
X83820000Y-100300000D03*
X83820000Y-95250000D03*
X86360000Y-100300000D03*
X86360000Y-95250000D03*
X88900000Y-100300000D03*
X88900000Y-95250000D03*
X91440000Y-100300000D03*
X91440000Y-95250000D03*
X93980000Y-100300000D03*
X93980000Y-95250000D03*
X96520000Y-100300000D03*
X96520000Y-95250000D03*
X99060000Y-100300000D03*
X99060000Y-95250000D03*
X101600000Y-100300000D03*
X101600000Y-95250000D03*
X104140000Y-100300000D03*
X104140000Y-95250000D03*
D17*
X100330000Y-118110000D03*
D40*
X184095526Y-52698250D03*
D32*
X139645526Y-91433250D03*
D33*
X139645526Y-88893250D03*
X139645526Y-86353250D03*
X139645526Y-83813250D03*
X139645526Y-81273250D03*
X139645526Y-78733250D03*
X139645526Y-76193250D03*
X139645526Y-73653250D03*
X139645526Y-71113250D03*
X139645526Y-68573250D03*
X139645526Y-66033250D03*
X139645526Y-63493250D03*
X139645526Y-60953250D03*
X139645526Y-58413250D03*
X139645526Y-55873250D03*
X139645526Y-53333250D03*
D31*
X58674000Y-66535000D03*
X58674000Y-68085000D03*
D30*
X72136000Y-68085000D03*
X72136000Y-66535000D03*
D35*
X54000000Y-111000000D03*
D28*
X74042000Y-43053000D03*
X75692000Y-43053000D03*
D19*
X152750000Y-111252000D03*
D20*
X154750000Y-111252000D03*
X156750000Y-111252000D03*
D21*
X158750000Y-111252000D03*
D37*
X64770000Y-114935000D03*
D38*
X67310000Y-114935000D03*
D19*
X181960000Y-111252000D03*
D20*
X183960000Y-111252000D03*
X185960000Y-111252000D03*
D21*
X187960000Y-111252000D03*
D30*
X67564000Y-68085000D03*
X67564000Y-66535000D03*
D12*
X60960000Y-84010000D03*
X60960000Y-82360000D03*
D41*
X87083000Y-39624000D03*
X87083000Y-38354000D03*
X87083000Y-37084000D03*
X87083000Y-35814000D03*
X81661000Y-35814000D03*
X81661000Y-37084000D03*
X81661000Y-38354000D03*
X81661000Y-39624000D03*
D28*
X115444000Y-115062000D03*
X117094000Y-115062000D03*
D12*
X69850000Y-84010000D03*
X69850000Y-82360000D03*
D17*
X134112000Y-115062000D03*
D16*
X136652000Y-115062000D03*
D12*
X56388000Y-68135000D03*
X56388000Y-66485000D03*
D22*
X194339300Y-97740000D03*
X194339300Y-96490000D03*
X194339300Y-95240000D03*
X194339300Y-93990000D03*
X194339300Y-92740000D03*
X194339300Y-91490000D03*
D23*
X197539301Y-100315000D03*
X197539301Y-88915000D03*
D39*
X81280000Y-57120000D03*
X81280000Y-52070000D03*
X83820000Y-57120000D03*
X83820000Y-52070000D03*
X86360000Y-57120000D03*
X86360000Y-52070000D03*
X88900000Y-57120000D03*
X88900000Y-52070000D03*
X91440000Y-57120000D03*
X91440000Y-52070000D03*
X93980000Y-57120000D03*
X93980000Y-52070000D03*
X96520000Y-57120000D03*
X96520000Y-52070000D03*
X99060000Y-57120000D03*
X99060000Y-52070000D03*
X101600000Y-57120000D03*
X101600000Y-52070000D03*
X104140000Y-57120000D03*
X104140000Y-52070000D03*
D17*
X193040000Y-69215000D03*
X185420000Y-100076000D03*
X175260000Y-105410000D03*
X130170000Y-41000000D03*
D16*
X132710000Y-41000000D03*
D42*
X61468000Y-77814000D03*
X62738000Y-77814000D03*
X64008000Y-77814000D03*
X65278000Y-77814000D03*
X66548000Y-77814000D03*
X67818000Y-77814000D03*
X69088000Y-77814000D03*
X69088000Y-72390000D03*
X67818000Y-72390000D03*
X66548000Y-72390000D03*
X65278000Y-72390000D03*
X64008000Y-72390000D03*
X62738000Y-72390000D03*
X61468000Y-72390000D03*
D15*
X51430000Y-104140000D03*
D16*
X53970000Y-104140000D03*
D30*
X63246000Y-68085000D03*
X63246000Y-66535000D03*
D43*
X92710000Y-117221000D03*
X91060000Y-117221000D03*
D17*
X191008000Y-105664000D03*
D34*
X82291000Y-110490000D03*
X80015000Y-110490000D03*
D24*
X154940000Y-106680000D03*
X153040000Y-106680000D03*
X183830000Y-106680000D03*
X181930000Y-106680000D03*
D44*
X83794000Y-33909000D03*
X85344000Y-33909000D03*
D15*
X73025000Y-110490000D03*
D16*
X73025000Y-113030000D03*
X73025000Y-115570000D03*
D43*
X121030000Y-115062000D03*
X119380000Y-115062000D03*
D19*
X192405000Y-55880000D03*
D20*
X192405000Y-57880000D03*
X192405000Y-59880000D03*
D21*
X192405000Y-61880000D03*
D45*
X87503000Y-54610000D03*
X65278000Y-70993000D03*
X192786000Y-93853000D03*
X82931000Y-43307000D03*
X192659000Y-111633000D03*
X81280000Y-48514000D03*
X151384000Y-106680000D03*
X122555000Y-115062000D03*
X80267000Y-39621000D03*
X88900000Y-38608000D03*
X180340000Y-106680000D03*
X192405000Y-42545000D03*
D46*
X112531000Y-113030000D03*
D45*
X65405000Y-84074000D03*
X166116000Y-106680000D03*
X188849000Y-46101000D03*
X83947000Y-91440000D03*
X99537500Y-112552500D03*
X82550000Y-33909000D03*
X79502000Y-106172000D03*
X79502000Y-100457000D03*
X101473000Y-106299000D03*
X123190000Y-55880000D03*
X66802000Y-80391000D03*
X142870000Y-100965000D03*
X115444000Y-116839000D03*
X58166000Y-100203000D03*
X170688000Y-71120000D03*
X97790000Y-90551000D03*
X97790000Y-71374000D03*
X90170000Y-54610000D03*
X90043000Y-78740000D03*
X158115000Y-78867000D03*
X95250000Y-60960000D03*
X95250000Y-54483000D03*
X168275000Y-73787000D03*
X97790000Y-63500000D03*
X97790000Y-54610000D03*
X173228000Y-63500000D03*
X99441000Y-54356000D03*
X100330000Y-68453000D03*
X165608000Y-68580000D03*
X102870000Y-36195000D03*
X102870000Y-49657000D03*
X90932000Y-37084000D03*
X87249000Y-43307000D03*
X183896000Y-91440000D03*
X90932000Y-34544000D03*
X184404000Y-61976000D03*
X85090000Y-92075000D03*
X121285000Y-80645000D03*
X85090000Y-80645000D03*
X90170000Y-90297000D03*
X91694000Y-76454000D03*
X100203000Y-97663000D03*
X100330000Y-77724000D03*
X191262000Y-92837000D03*
X85090000Y-64770000D03*
X85090000Y-54229000D03*
X163068000Y-58413250D03*
X106680000Y-53340000D03*
X106680000Y-76193250D03*
X160528000Y-76200000D03*
X86360000Y-73025000D03*
X119380000Y-73025000D03*
X86360000Y-91059000D03*
X88900000Y-91186000D03*
X88265000Y-75438000D03*
X114300000Y-50800000D03*
X192415000Y-43805000D03*
X113030000Y-85725000D03*
X190500000Y-112903000D03*
X115570000Y-87630000D03*
X96520000Y-91567000D03*
X95758000Y-72390000D03*
X191770000Y-114173000D03*
X188976000Y-94488000D03*
X125476000Y-94488000D03*
X196850000Y-95250000D03*
X93980000Y-61849000D03*
X93980000Y-67310000D03*
X79121000Y-96520000D03*
X77565000Y-109220000D03*
X100330000Y-49911000D03*
X100330000Y-41910000D03*
X77597000Y-43053000D03*
X75311000Y-104521000D03*
X75819000Y-82296000D03*
X76962000Y-68072000D03*
X76708000Y-100965000D03*
D47*
X86360000Y-55753000D02*
X87503000Y-54610000D01*
X86360000Y-57120000D02*
X86360000Y-55753000D01*
D48*
X65405000Y-81941000D02*
X65405000Y-84074000D01*
X192923000Y-93990000D02*
X192786000Y-93853000D01*
X81280000Y-52070000D02*
X81280000Y-48514000D01*
X80264000Y-39624000D02*
X80267000Y-39621000D01*
X66180000Y-66535000D02*
X67564000Y-66535000D01*
X194284999Y-111664999D02*
X192690999Y-111664999D01*
X67450000Y-84074000D02*
X67564000Y-83960000D01*
X167325000Y-106680000D02*
X166116000Y-106680000D01*
X188976000Y-46228000D02*
X188849000Y-46101000D01*
X85344000Y-37846000D02*
X85344000Y-33909000D01*
X98745000Y-114300000D02*
X100015000Y-113030000D01*
X104013000Y-113044000D02*
X101875000Y-113044000D01*
X194339300Y-42555000D02*
X192415000Y-42555000D01*
X83820000Y-95250000D02*
X83820000Y-91567000D01*
X85852000Y-38354000D02*
X85344000Y-37846000D01*
X63360000Y-84074000D02*
X63246000Y-83960000D01*
X65278000Y-67437000D02*
X66180000Y-66535000D01*
X98745000Y-114300000D02*
X97790000Y-114300000D01*
X121030000Y-115062000D02*
X122555000Y-115062000D01*
X84315000Y-43307000D02*
X82931000Y-43307000D01*
X153040000Y-106680000D02*
X151384000Y-106680000D01*
X64376000Y-66535000D02*
X65278000Y-67437000D01*
X96520000Y-114300000D02*
X97790000Y-114300000D01*
X65405000Y-84074000D02*
X67450000Y-84074000D01*
X87083000Y-38354000D02*
X85852000Y-38354000D01*
X88643000Y-38351000D02*
X88900000Y-38608000D01*
X187579000Y-46101000D02*
X188849000Y-46101000D01*
X96393000Y-114427000D02*
X96520000Y-114300000D01*
X65278000Y-72390000D02*
X65278000Y-70993000D01*
X112517000Y-113044000D02*
X112531000Y-113030000D01*
X81788000Y-39621000D02*
X80267000Y-39621000D01*
X110313000Y-113044000D02*
X112517000Y-113044000D01*
X101875000Y-113044000D02*
X101861000Y-113030000D01*
X63246000Y-66535000D02*
X64376000Y-66535000D01*
X92710000Y-117221000D02*
X95504000Y-114427000D01*
X101861000Y-113030000D02*
X100015000Y-113030000D01*
X65278000Y-70993000D02*
X65278000Y-67437000D01*
X83820000Y-91567000D02*
X83947000Y-91440000D01*
X192690999Y-111664999D02*
X192659000Y-111633000D01*
X99537500Y-112552500D02*
X97790000Y-110805000D01*
X181930000Y-106680000D02*
X180340000Y-106680000D01*
X192415000Y-42555000D02*
X192405000Y-42545000D01*
X65405000Y-84074000D02*
X63360000Y-84074000D01*
X87210000Y-38351000D02*
X88643000Y-38351000D01*
X100015000Y-113030000D02*
X99537500Y-112552500D01*
X194339300Y-93990000D02*
X192923000Y-93990000D01*
X95504000Y-114427000D02*
X96393000Y-114427000D01*
X175895000Y-100203000D02*
X175895000Y-97844475D01*
X156718000Y-100965000D02*
X175133000Y-100965000D01*
X126111000Y-115062000D02*
X128651000Y-115062000D01*
X120650000Y-36957000D02*
X120650000Y-38735000D01*
X66802000Y-80391000D02*
X65405000Y-80391000D01*
X79209000Y-100164000D02*
X58205000Y-100164000D01*
X142870000Y-100965000D02*
X154432000Y-100965000D01*
X155575000Y-99822000D02*
X155575000Y-97844475D01*
X79629000Y-106299000D02*
X79502000Y-106172000D01*
X154432000Y-100965000D02*
X155575000Y-99822000D01*
X155575000Y-99822000D02*
X156718000Y-100965000D01*
X175133000Y-100965000D02*
X175895000Y-100203000D01*
X65278000Y-80264000D02*
X65405000Y-80391000D01*
X115444000Y-115062000D02*
X115444000Y-116839000D01*
X79502000Y-100457000D02*
X79209000Y-100164000D01*
X81661000Y-34798000D02*
X82550000Y-33909000D01*
X81661000Y-35814000D02*
X81661000Y-34798000D01*
X101231000Y-117209000D02*
X101231000Y-116200000D01*
X104013000Y-115344000D02*
X102087000Y-115344000D01*
X123196750Y-55873250D02*
X123190000Y-55880000D01*
X102087000Y-115344000D02*
X101231000Y-116200000D01*
X81280000Y-100300000D02*
X79659000Y-100300000D01*
X115443000Y-116840000D02*
X115444000Y-116839000D01*
X123190000Y-41275000D02*
X120650000Y-38735000D01*
X101473000Y-106299000D02*
X79629000Y-106299000D01*
X139645526Y-55873250D02*
X123196750Y-55873250D01*
X100330000Y-118110000D02*
X101231000Y-117209000D01*
X97790000Y-116200000D02*
X101231000Y-116200000D01*
X79659000Y-100300000D02*
X79502000Y-100457000D01*
X82550000Y-33909000D02*
X83794000Y-33909000D01*
X119634000Y-35941000D02*
X120650000Y-36957000D01*
X58205000Y-100164000D02*
X58166000Y-100203000D01*
X110490000Y-35941000D02*
X119634000Y-35941000D01*
X65278000Y-77814000D02*
X65278000Y-80264000D01*
D47*
X170173250Y-71113250D02*
X139645526Y-71113250D01*
X170688000Y-71120000D02*
X170180000Y-71120000D01*
D10*
X96520000Y-100300000D02*
X96520000Y-98933000D01*
D47*
X170180000Y-71120000D02*
X170173250Y-71113250D01*
D10*
X97790000Y-97663000D02*
X97790000Y-90551000D01*
D47*
X97790000Y-71374000D02*
X98050750Y-71113250D01*
D10*
X96520000Y-98933000D02*
X97790000Y-97663000D01*
D47*
X98050750Y-71113250D02*
X139645526Y-71113250D01*
X157981250Y-78733250D02*
X139645526Y-78733250D01*
X158115000Y-78867000D02*
X157981250Y-78733250D01*
X90303750Y-78733250D02*
X139645526Y-78733250D01*
D10*
X88900000Y-52070000D02*
X88900000Y-53340000D01*
D47*
X90183500Y-78613000D02*
X90303750Y-78733250D01*
D10*
X88900000Y-53340000D02*
X90170000Y-54610000D01*
D47*
X90170000Y-78613000D02*
X90183500Y-78613000D01*
X90043000Y-78740000D02*
X90297000Y-78740000D01*
X90043000Y-78740000D02*
X90170000Y-78613000D01*
X95383750Y-60953250D02*
X139645526Y-60953250D01*
X95377000Y-60960000D02*
X95383750Y-60953250D01*
X168275000Y-73787000D02*
X168141250Y-73653250D01*
X168141250Y-73653250D02*
X139645526Y-73653250D01*
X95250000Y-60960000D02*
X95377000Y-60960000D01*
D10*
X93980000Y-52070000D02*
X93980000Y-53213000D01*
X93980000Y-53213000D02*
X95250000Y-54483000D01*
X96520000Y-53340000D02*
X97790000Y-54610000D01*
D47*
X97790000Y-63500000D02*
X98030500Y-63500000D01*
X98037250Y-63493250D02*
X139645526Y-63493250D01*
X173221250Y-63493250D02*
X139645526Y-63493250D01*
X98030500Y-63500000D02*
X98037250Y-63493250D01*
X173228000Y-63500000D02*
X173221250Y-63493250D01*
D10*
X96520000Y-52070000D02*
X96520000Y-53340000D01*
D47*
X165608000Y-68580000D02*
X165100000Y-68580000D01*
X100450250Y-68573250D02*
X139645526Y-68573250D01*
D10*
X99060000Y-53975000D02*
X99441000Y-54356000D01*
D47*
X165100000Y-68580000D02*
X165093250Y-68573250D01*
X100330000Y-68453000D02*
X100457000Y-68453000D01*
X100330000Y-68453000D02*
X100450250Y-68573250D01*
D10*
X99060000Y-52070000D02*
X99060000Y-53975000D01*
D47*
X165093250Y-68573250D02*
X139645526Y-68573250D01*
X100457000Y-68453000D02*
X100584000Y-68580000D01*
D10*
X104140000Y-54991000D02*
X102870000Y-53721000D01*
X102870000Y-53721000D02*
X102870000Y-49657000D01*
X104140000Y-57120000D02*
X104140000Y-54991000D01*
D47*
X87210000Y-35811000D02*
X102486000Y-35811000D01*
X102486000Y-35811000D02*
X102870000Y-36195000D01*
D48*
X105918000Y-108839000D02*
X130048000Y-108839000D01*
X132461000Y-118364000D02*
X153924000Y-118364000D01*
X102115000Y-110744000D02*
X100276000Y-108905000D01*
X130048000Y-108839000D02*
X131318000Y-110109000D01*
X104013000Y-110744000D02*
X102115000Y-110744000D01*
X196850000Y-45593000D02*
X196088000Y-46355000D01*
X185420000Y-34544000D02*
X184912000Y-34036000D01*
X189484000Y-39624000D02*
X190373000Y-38735000D01*
X97790000Y-108905000D02*
X97475000Y-109220000D01*
X93472000Y-109220000D02*
X92202000Y-110490000D01*
X153924000Y-118364000D02*
X154750000Y-117538000D01*
X91440000Y-34036000D02*
X90932000Y-34544000D01*
X196186999Y-115414999D02*
X194284999Y-115414999D01*
X85865000Y-43307000D02*
X87249000Y-43307000D01*
X167640000Y-118364000D02*
X168720000Y-117284000D01*
X192786000Y-107569000D02*
X195326000Y-107569000D01*
X190373000Y-94418900D02*
X190373000Y-93218000D01*
X154940000Y-106680000D02*
X154940000Y-111062000D01*
X87503000Y-117221000D02*
X86487000Y-116205000D01*
X154750000Y-117538000D02*
X154750000Y-111252000D01*
X155448000Y-118364000D02*
X167640000Y-118364000D01*
X185928000Y-39624000D02*
X189484000Y-39624000D01*
X196038000Y-46305000D02*
X194339300Y-46305000D01*
X82291000Y-110490000D02*
X85471000Y-110490000D01*
X192405000Y-108839000D02*
X192405000Y-107950000D01*
X185325000Y-40227000D02*
X185325000Y-41275000D01*
X90929000Y-37081000D02*
X87210000Y-37081000D01*
X185325000Y-45747000D02*
X185679000Y-46101000D01*
X168720000Y-111252000D02*
X168720000Y-107185000D01*
X168720000Y-107185000D02*
X169225000Y-106680000D01*
X193694100Y-97740000D02*
X190373000Y-94418900D01*
X104013000Y-110744000D02*
X105918000Y-108839000D01*
X182880000Y-118364000D02*
X183960000Y-117284000D01*
X87504000Y-117221000D02*
X87503000Y-117221000D01*
X196850000Y-39624000D02*
X196850000Y-45593000D01*
X183960000Y-111252000D02*
X183960000Y-110236000D01*
X73025000Y-113030000D02*
X82931000Y-113030000D01*
X184500000Y-61880000D02*
X184404000Y-61976000D01*
X185928000Y-39624000D02*
X185420000Y-39116000D01*
X185928000Y-39624000D02*
X185325000Y-40227000D01*
X194339300Y-97740000D02*
X193694100Y-97740000D01*
X196596000Y-115062000D02*
X196215000Y-115443000D01*
X196596000Y-108839000D02*
X196596000Y-115062000D01*
X196215000Y-115443000D02*
X196186999Y-115414999D01*
X190373000Y-93218000D02*
X188595000Y-91440000D01*
X154940000Y-111062000D02*
X154750000Y-111252000D01*
X192405000Y-107950000D02*
X192786000Y-107569000D01*
X183960000Y-117284000D02*
X183960000Y-111252000D01*
X195961000Y-38735000D02*
X196850000Y-39624000D01*
X90932000Y-37084000D02*
X90929000Y-37081000D01*
X168720000Y-117412000D02*
X169672000Y-118364000D01*
X190373000Y-38735000D02*
X195961000Y-38735000D01*
X154750000Y-117538000D02*
X154750000Y-117666000D01*
X188595000Y-91440000D02*
X183896000Y-91440000D01*
X184976000Y-109220000D02*
X192024000Y-109220000D01*
X131318000Y-117221000D02*
X132461000Y-118364000D01*
X185420000Y-39116000D02*
X185420000Y-34544000D01*
X184912000Y-34036000D02*
X91440000Y-34036000D01*
X82931000Y-113030000D02*
X85471000Y-110490000D01*
X183960000Y-110236000D02*
X184976000Y-109220000D01*
X154750000Y-117666000D02*
X155448000Y-118364000D01*
X195326000Y-107569000D02*
X196596000Y-108839000D01*
X168720000Y-117284000D02*
X168720000Y-111252000D01*
X196088000Y-46355000D02*
X196038000Y-46305000D01*
X82291000Y-116205000D02*
X86487000Y-116205000D01*
X192024000Y-109220000D02*
X192405000Y-108839000D01*
X85471000Y-110490000D02*
X92202000Y-110490000D01*
X86487000Y-116205000D02*
X92202000Y-110490000D01*
X169672000Y-118364000D02*
X182880000Y-118364000D01*
X97790000Y-108905000D02*
X100276000Y-108905000D01*
X183960000Y-106810000D02*
X183830000Y-106680000D01*
X168720000Y-117284000D02*
X168720000Y-117412000D01*
X185325000Y-41275000D02*
X185325000Y-45747000D01*
X192405000Y-61880000D02*
X184500000Y-61880000D01*
X97475000Y-109220000D02*
X93472000Y-109220000D01*
X131318000Y-110109000D02*
X131318000Y-117221000D01*
X183960000Y-110236000D02*
X183960000Y-106810000D01*
D47*
X85090000Y-97790000D02*
X85090000Y-92075000D01*
X83820000Y-99060000D02*
X85090000Y-97790000D01*
X121285000Y-80645000D02*
X85090000Y-80645000D01*
D10*
X63119000Y-75946000D02*
X62738000Y-76327000D01*
X58674000Y-80608000D02*
X61468000Y-77814000D01*
X91694000Y-76454000D02*
X72517000Y-76454000D01*
X62738000Y-77814000D02*
X61468000Y-77814000D01*
D47*
X91440000Y-100300000D02*
X90170000Y-99030000D01*
X90170000Y-99030000D02*
X90170000Y-97536000D01*
D10*
X58674000Y-82410000D02*
X58674000Y-80608000D01*
X72009000Y-75946000D02*
X63119000Y-75946000D01*
X72517000Y-76454000D02*
X72009000Y-75946000D01*
X62738000Y-76327000D02*
X62738000Y-77814000D01*
D47*
X90170000Y-97536000D02*
X90170000Y-90297000D01*
D10*
X67818000Y-77814000D02*
X69088000Y-77814000D01*
X72136000Y-80862000D02*
X69088000Y-77814000D01*
X100240000Y-77814000D02*
X100330000Y-77724000D01*
X99060000Y-100300000D02*
X100203000Y-99157000D01*
X100203000Y-99157000D02*
X100203000Y-97663000D01*
X69088000Y-77814000D02*
X100240000Y-77814000D01*
X72136000Y-82410000D02*
X72136000Y-80862000D01*
D47*
X193040000Y-66040000D02*
X194945000Y-64135000D01*
D10*
X191262000Y-94107000D02*
X191262000Y-92837000D01*
X194339300Y-96490000D02*
X193645000Y-96490000D01*
D47*
X194945000Y-58420000D02*
X194405000Y-57880000D01*
D10*
X83820000Y-52070000D02*
X83820000Y-52959000D01*
D47*
X118977750Y-64770000D02*
X192278000Y-64770000D01*
X85090000Y-64770000D02*
X118977750Y-64770000D01*
X193040000Y-65532000D02*
X193040000Y-66040000D01*
D10*
X83820000Y-52959000D02*
X85090000Y-54229000D01*
X193645000Y-96490000D02*
X191262000Y-94107000D01*
D47*
X194945000Y-64135000D02*
X194945000Y-58420000D01*
X194405000Y-57880000D02*
X192405000Y-57880000D01*
X192278000Y-64770000D02*
X193040000Y-65532000D01*
X191135000Y-46355000D02*
X190500000Y-46990000D01*
X188595000Y-48260000D02*
X180975000Y-48260000D01*
X86360000Y-50165000D02*
X86360000Y-53340000D01*
D10*
X191165000Y-45055000D02*
X191135000Y-45085000D01*
D47*
X87630000Y-48895000D02*
X86360000Y-50165000D01*
X191135000Y-45085000D02*
X191135000Y-46355000D01*
X180975000Y-48260000D02*
X180340000Y-48895000D01*
D10*
X194339300Y-45055000D02*
X191165000Y-45055000D01*
D47*
X189865000Y-46990000D02*
X188595000Y-48260000D01*
X190500000Y-46990000D02*
X189865000Y-46990000D01*
X180340000Y-48895000D02*
X87630000Y-48895000D01*
X101600000Y-53340000D02*
X101600000Y-52070000D01*
X106299000Y-59690000D02*
X103505000Y-59690000D01*
X103505000Y-59690000D02*
X102870000Y-59055000D01*
X102870000Y-59055000D02*
X102870000Y-54610000D01*
X102870000Y-54610000D02*
X101600000Y-53340000D01*
X163068000Y-58413250D02*
X139645526Y-58413250D01*
X139645526Y-58413250D02*
X107575750Y-58413250D01*
X107575750Y-58413250D02*
X106299000Y-59690000D01*
D10*
X105410000Y-52070000D02*
X106680000Y-53340000D01*
D47*
X160528000Y-76200000D02*
X160521250Y-76193250D01*
X160521250Y-76193250D02*
X139645526Y-76193250D01*
X106680000Y-76193250D02*
X139645526Y-76193250D01*
D10*
X104140000Y-52070000D02*
X105410000Y-52070000D01*
D47*
X86360000Y-95250000D02*
X86360000Y-91059000D01*
X119380000Y-73025000D02*
X86360000Y-73025000D01*
D10*
X63119000Y-74295000D02*
X62738000Y-73914000D01*
X84201000Y-74295000D02*
X63119000Y-74295000D01*
X85344000Y-75438000D02*
X84201000Y-74295000D01*
X58674000Y-68085000D02*
X58674000Y-69596000D01*
X61468000Y-72390000D02*
X62738000Y-72390000D01*
X58674000Y-69596000D02*
X61468000Y-72390000D01*
X88265000Y-75438000D02*
X85344000Y-75438000D01*
X62738000Y-73914000D02*
X62738000Y-72390000D01*
D47*
X88900000Y-95250000D02*
X88900000Y-91186000D01*
X182245000Y-50800000D02*
X114300000Y-50800000D01*
X91440000Y-86741000D02*
X92456000Y-85725000D01*
X91440000Y-95250000D02*
X91440000Y-86741000D01*
D10*
X194339300Y-43805000D02*
X192415000Y-43805000D01*
D47*
X113030000Y-85725000D02*
X92456000Y-85725000D01*
X184150000Y-48895000D02*
X182245000Y-50800000D01*
D10*
X192405000Y-43815000D02*
X192415000Y-43805000D01*
D47*
X191135000Y-48895000D02*
X184150000Y-48895000D01*
X180340000Y-95504000D02*
X188845298Y-95504000D01*
X148454000Y-92066000D02*
X145796000Y-89408000D01*
X145796000Y-89408000D02*
X145796000Y-88392000D01*
X181356000Y-101092000D02*
X181356000Y-96520000D01*
X145796000Y-88392000D02*
X145034000Y-87630000D01*
D10*
X190511999Y-112914999D02*
X190500000Y-112903000D01*
D47*
X188845298Y-95504000D02*
X189602000Y-94747298D01*
X188849000Y-101854000D02*
X182118000Y-101854000D01*
X189602000Y-94228702D02*
X187439298Y-92066000D01*
X182118000Y-101854000D02*
X181356000Y-101092000D01*
X115570000Y-87376000D02*
X114554000Y-88392000D01*
X189602000Y-94747298D02*
X189602000Y-94228702D01*
X115570000Y-87630000D02*
X138176000Y-87630000D01*
X187439298Y-92066000D02*
X148454000Y-92066000D01*
X114554000Y-88392000D02*
X95631000Y-88392000D01*
X145034000Y-87630000D02*
X138281750Y-87630000D01*
X93980000Y-90043000D02*
X95631000Y-88392000D01*
D10*
X194284999Y-112914999D02*
X190511999Y-112914999D01*
D47*
X181356000Y-96520000D02*
X180340000Y-95504000D01*
X93980000Y-95250000D02*
X93980000Y-90043000D01*
D10*
X72136000Y-68085000D02*
X72136000Y-69342000D01*
D47*
X96520000Y-95250000D02*
X96520000Y-91567000D01*
D10*
X95758000Y-72390000D02*
X94996000Y-71628000D01*
X94996000Y-71628000D02*
X69850000Y-71628000D01*
X67818000Y-72390000D02*
X69088000Y-72390000D01*
X69850000Y-71628000D02*
X69088000Y-72390000D01*
X72136000Y-69342000D02*
X69088000Y-72390000D01*
X194284999Y-114164999D02*
X191778001Y-114164999D01*
D47*
X99060000Y-93599000D02*
X99695000Y-92964000D01*
X109220000Y-92964000D02*
X99695000Y-92964000D01*
X110744000Y-94488000D02*
X109220000Y-92964000D01*
D10*
X191778001Y-114164999D02*
X191770000Y-114173000D01*
D47*
X99060000Y-95250000D02*
X99060000Y-93599000D01*
X188976000Y-94488000D02*
X110744000Y-94488000D01*
X107315000Y-96520000D02*
X104140000Y-96520000D01*
X137668000Y-97790000D02*
X108585000Y-97790000D01*
X108585000Y-97790000D02*
X107315000Y-96520000D01*
D10*
X194339300Y-95240000D02*
X196840000Y-95240000D01*
D47*
X196850000Y-65405000D02*
X196850000Y-57150000D01*
X93980000Y-57120000D02*
X93980000Y-61849000D01*
X177800000Y-67310000D02*
X93980000Y-67310000D01*
X179705000Y-69215000D02*
X177800000Y-67310000D01*
D10*
X196840000Y-95240000D02*
X196850000Y-95250000D01*
D47*
X196850000Y-57150000D02*
X195580000Y-55880000D01*
X193040000Y-69215000D02*
X196850000Y-65405000D01*
X195580000Y-55880000D02*
X192405000Y-55880000D01*
X193040000Y-69215000D02*
X179705000Y-69215000D01*
D48*
X89154000Y-117221000D02*
X91060000Y-117221000D01*
X117094000Y-115062000D02*
X119380000Y-115062000D01*
X69596000Y-113792000D02*
X69596000Y-114808000D01*
X69596000Y-114808000D02*
X70358000Y-115570000D01*
X70358000Y-115570000D02*
X73025000Y-115570000D01*
X64770000Y-114935000D02*
X64770000Y-113538000D01*
X65532000Y-112776000D02*
X68580000Y-112776000D01*
X68580000Y-112776000D02*
X69596000Y-113792000D01*
X80015000Y-116205000D02*
X73660000Y-116205000D01*
X64770000Y-113538000D02*
X65532000Y-112776000D01*
X73660000Y-116205000D02*
X73025000Y-115570000D01*
X80391000Y-95250000D02*
X79121000Y-96520000D01*
X76295000Y-110490000D02*
X77565000Y-109220000D01*
X80015000Y-110490000D02*
X78835000Y-110490000D01*
X77771500Y-109426500D02*
X77565000Y-109220000D01*
X78835000Y-110490000D02*
X77771500Y-109426500D01*
X81280000Y-95250000D02*
X80391000Y-95250000D01*
X73025000Y-110490000D02*
X76295000Y-110490000D01*
D47*
X87210000Y-39621000D02*
X88516000Y-39621000D01*
X90805000Y-41910000D02*
X100330000Y-41910000D01*
X88516000Y-39621000D02*
X90805000Y-41910000D01*
D10*
X101600000Y-54991000D02*
X100330000Y-53721000D01*
X100330000Y-53721000D02*
X100330000Y-49911000D01*
X101600000Y-57120000D02*
X101600000Y-54991000D01*
D48*
X75692000Y-43053000D02*
X77597000Y-43053000D01*
D47*
X118110000Y-42418000D02*
X118110000Y-41275000D01*
X110490000Y-43561000D02*
X116967000Y-43561000D01*
X116967000Y-43561000D02*
X118110000Y-42418000D01*
D48*
X76708000Y-41656000D02*
X73914000Y-41656000D01*
X77724000Y-40640000D02*
X76708000Y-41656000D01*
X81788000Y-38351000D02*
X78997000Y-38351000D01*
X77724000Y-39624000D02*
X77724000Y-40640000D01*
X71628000Y-41656000D02*
X67310000Y-37338000D01*
X74042000Y-43053000D02*
X74042000Y-41784000D01*
X74042000Y-41784000D02*
X73914000Y-41656000D01*
X73914000Y-41656000D02*
X71628000Y-41656000D01*
X78997000Y-38351000D02*
X77724000Y-39624000D01*
X66040000Y-36068000D02*
X64770000Y-37338000D01*
X75184000Y-36700000D02*
X74800000Y-36700000D01*
X69088000Y-36068000D02*
X66040000Y-36068000D01*
X70104000Y-35052000D02*
X69088000Y-36068000D01*
X75565000Y-37081000D02*
X75184000Y-36700000D01*
X81788000Y-37081000D02*
X75565000Y-37081000D01*
X73152000Y-35052000D02*
X70104000Y-35052000D01*
X74800000Y-36700000D02*
X73152000Y-35052000D01*
D10*
X58864000Y-84010000D02*
X60960000Y-84010000D01*
X58624000Y-84010000D02*
X58674000Y-83960000D01*
X56388000Y-84010000D02*
X58624000Y-84010000D01*
X58814000Y-83960000D02*
X58864000Y-84010000D01*
X58674000Y-83960000D02*
X58814000Y-83960000D01*
X64008000Y-81648000D02*
X63246000Y-82410000D01*
X60960000Y-82360000D02*
X63196000Y-82360000D01*
X64008000Y-77814000D02*
X64008000Y-81648000D01*
X63196000Y-82360000D02*
X63246000Y-82410000D01*
X170720000Y-109950000D02*
X175260000Y-105410000D01*
X55372000Y-100457000D02*
X55245000Y-100457000D01*
X55689000Y-82360000D02*
X56388000Y-82360000D01*
X171069000Y-104140000D02*
X78009654Y-104140000D01*
X172339000Y-105410000D02*
X171069000Y-104140000D01*
X170720000Y-111252000D02*
X170720000Y-109950000D01*
X78009654Y-104140000D02*
X76485654Y-102616000D01*
X55245000Y-100457000D02*
X55245000Y-82804000D01*
X76485654Y-102616000D02*
X57531000Y-102616000D01*
X57531000Y-102616000D02*
X55372000Y-100457000D01*
X55245000Y-82804000D02*
X55689000Y-82360000D01*
X175260000Y-105410000D02*
X172339000Y-105410000D01*
X72326000Y-84010000D02*
X74422000Y-84010000D01*
X72136000Y-83960000D02*
X72276000Y-83960000D01*
X72276000Y-83960000D02*
X72326000Y-84010000D01*
X72086000Y-84010000D02*
X72136000Y-83960000D01*
X69850000Y-84010000D02*
X72086000Y-84010000D01*
X67564000Y-79629000D02*
X67564000Y-82410000D01*
X69800000Y-82410000D02*
X69850000Y-82360000D01*
X67564000Y-82410000D02*
X69800000Y-82410000D01*
X66548000Y-78613000D02*
X67564000Y-79629000D01*
X66548000Y-77814000D02*
X66548000Y-78613000D01*
X74486000Y-82296000D02*
X74422000Y-82360000D01*
X158750000Y-105410000D02*
X158242000Y-104902000D01*
X156750000Y-107410000D02*
X158750000Y-105410000D01*
X76200000Y-105410000D02*
X75184000Y-104394000D01*
X156750000Y-111252000D02*
X156750000Y-107410000D01*
X158750000Y-105410000D02*
X76200000Y-105410000D01*
X75819000Y-82296000D02*
X74486000Y-82296000D01*
X58674000Y-66535000D02*
X60910000Y-66535000D01*
X60910000Y-66535000D02*
X60960000Y-66485000D01*
X56388000Y-66485000D02*
X58624000Y-66485000D01*
X58624000Y-66485000D02*
X58674000Y-66535000D01*
X63196000Y-68135000D02*
X63246000Y-68085000D01*
X60960000Y-68135000D02*
X63196000Y-68135000D01*
X64008000Y-68847000D02*
X63246000Y-68085000D01*
X64008000Y-72390000D02*
X64008000Y-68847000D01*
X72276000Y-66535000D02*
X72326000Y-66485000D01*
X72086000Y-66485000D02*
X72136000Y-66535000D01*
X69850000Y-66485000D02*
X72086000Y-66485000D01*
X72136000Y-66535000D02*
X72276000Y-66535000D01*
X72326000Y-66485000D02*
X74422000Y-66485000D01*
X67728000Y-68135000D02*
X69850000Y-68135000D01*
X67564000Y-68085000D02*
X67678000Y-68085000D01*
X66548000Y-72390000D02*
X66548000Y-69101000D01*
X66548000Y-69101000D02*
X67564000Y-68085000D01*
X67678000Y-68085000D02*
X67728000Y-68135000D01*
X78486000Y-103378000D02*
X76708000Y-101600000D01*
X186817000Y-105410000D02*
X184785000Y-103378000D01*
X76708000Y-101600000D02*
X76708000Y-100965000D01*
X184785000Y-103378000D02*
X78486000Y-103378000D01*
X76962000Y-68072000D02*
X76899000Y-68135000D01*
X76899000Y-68135000D02*
X74422000Y-68135000D01*
X130429000Y-44831000D02*
X167513000Y-44831000D01*
X174625000Y-37719000D02*
X182118000Y-37719000D01*
X57785000Y-46609000D02*
X128651000Y-46609000D01*
X167513000Y-44831000D02*
X174625000Y-37719000D01*
X54864000Y-67437000D02*
X54864000Y-49530000D01*
X54864000Y-49530000D02*
X57785000Y-46609000D01*
X56388000Y-68135000D02*
X55562000Y-68135000D01*
X128651000Y-46609000D02*
X130429000Y-44831000D01*
X55562000Y-68135000D02*
X54864000Y-67437000D01*
M02*
