M48
; DRILL file {KiCad 9.0.5} date 2025-12-17T13:43:17-0600
; FORMAT={-:-/ absolute / metric / decimal}
; #@! TF.CreationDate,2025-12-17T13:43:17-06:00
; #@! TF.GenerationSoftware,Kicad,Pcbnew,9.0.5
; #@! TF.FileFunction,Plated,1,2,PTH
FMAT,2
METRIC
; #@! TA.AperFunction,Plated,PTH,ViaDrill
T1C0.400
; #@! TA.AperFunction,Plated,PTH,ComponentDrill
T2C0.700
; #@! TA.AperFunction,Plated,PTH,ComponentDrill
T3C0.800
; #@! TA.AperFunction,Plated,PTH,ComponentDrill
T4C1.000
; #@! TA.AperFunction,Plated,PTH,ComponentDrill
T5C1.016
; #@! TA.AperFunction,Plated,PTH,ComponentDrill
T6C1.100
; #@! TA.AperFunction,Plated,PTH,ViaDrill
T7C2.032
; #@! TA.AperFunction,Plated,PTH,ComponentDrill
T8C3.175
%
G90
G05
T1
X58.166Y-100.203
X65.278Y-70.993
X65.405Y-84.074
X66.802Y-80.391
X75.311Y-104.521
X75.819Y-82.296
X76.708Y-100.965
X76.962Y-68.072
X77.565Y-109.22
X77.597Y-43.053
X79.121Y-96.52
X79.502Y-100.457
X79.502Y-106.172
X80.267Y-39.621
X81.28Y-48.514
X82.55Y-33.909
X82.931Y-43.307
X83.947Y-91.44
X85.09Y-54.229
X85.09Y-64.77
X85.09Y-80.645
X85.09Y-92.075
X86.36Y-73.025
X86.36Y-91.059
X87.249Y-43.307
X87.503Y-54.61
X88.265Y-75.438
X88.9Y-38.608
X88.9Y-91.186
X90.043Y-78.74
X90.17Y-54.61
X90.17Y-90.297
X90.932Y-34.544
X90.932Y-37.084
X91.694Y-76.454
X93.98Y-61.849
X93.98Y-67.31
X95.25Y-54.483
X95.25Y-60.96
X95.758Y-72.39
X96.52Y-91.567
X97.79Y-54.61
X97.79Y-63.5
X97.79Y-71.374
X97.79Y-90.551
X99.441Y-54.356
X99.537Y-112.552
X100.203Y-97.663
X100.33Y-41.91
X100.33Y-49.911
X100.33Y-68.453
X100.33Y-77.724
X101.473Y-106.299
X102.87Y-36.195
X102.87Y-49.657
X106.68Y-53.34
X106.68Y-76.193
X113.03Y-85.725
X114.3Y-50.8
X115.444Y-116.839
X115.57Y-87.63
X119.38Y-73.025
X121.285Y-80.645
X122.555Y-115.062
X123.19Y-55.88
X125.476Y-94.488
X142.87Y-100.965
X151.384Y-106.68
X158.115Y-78.867
X160.528Y-76.2
X163.068Y-58.413
X165.608Y-68.58
X166.116Y-106.68
X168.275Y-73.787
X170.688Y-71.12
X173.228Y-63.5
X180.34Y-106.68
X183.896Y-91.44
X184.404Y-61.976
X188.849Y-46.101
X188.976Y-94.488
X190.5Y-112.903
X191.262Y-92.837
X191.77Y-114.173
X192.405Y-42.545
X192.415Y-43.805
X192.659Y-111.633
X192.786Y-93.853
X196.85Y-95.25
T2
X110.49Y-35.941
X110.49Y-43.561
T3
X152.75Y-111.252
X154.75Y-111.252
X156.75Y-111.252
X158.75Y-111.252
X166.72Y-111.252
X168.72Y-111.252
X170.72Y-111.252
X172.72Y-111.252
X181.325Y-41.275
X181.96Y-111.252
X183.325Y-41.275
X183.96Y-111.252
X185.325Y-41.275
X185.96Y-111.252
X187.325Y-41.275
X187.96Y-111.252
X192.405Y-55.88
X192.405Y-57.88
X192.405Y-59.88
X192.405Y-61.88
T4
X51.43Y-104.14
X53.97Y-104.14
X73.025Y-110.49
X73.025Y-113.03
X73.025Y-115.57
X75.184Y-36.7
X75.184Y-39.24
X96.139Y-38.227
X98.679Y-38.227
X100.33Y-118.11
X115.57Y-38.735
X115.57Y-41.275
X118.11Y-38.735
X118.11Y-41.275
X120.65Y-38.735
X120.65Y-41.275
X123.19Y-38.735
X123.19Y-41.275
X126.111Y-115.062
X128.651Y-115.062
X130.17Y-41.0
X132.71Y-41.0
X134.112Y-115.062
X136.652Y-115.062
X137.668Y-97.79
X158.75Y-105.41
X174.625Y-37.719
X175.26Y-105.41
X185.42Y-100.076
X186.817Y-105.41
X188.849Y-101.854
X191.008Y-105.664
X191.135Y-45.085
X191.135Y-48.895
X193.04Y-66.04
X193.04Y-69.215
T5
X139.646Y-53.333
X139.646Y-55.873
X139.646Y-58.413
X139.646Y-60.953
X139.646Y-63.493
X139.646Y-66.033
X139.646Y-68.573
X139.646Y-71.113
X139.646Y-73.653
X139.646Y-76.193
X139.646Y-78.733
X139.646Y-81.273
X139.646Y-83.813
X139.646Y-86.353
X139.646Y-88.893
X139.646Y-91.433
X153.035Y-97.844
X155.575Y-97.844
X158.115Y-97.844
X160.655Y-97.844
X163.195Y-97.844
X165.735Y-97.844
X168.275Y-97.844
X170.815Y-97.844
X173.355Y-97.844
X175.895Y-97.844
T6
X64.77Y-37.338
X64.77Y-114.935
X67.31Y-37.338
X67.31Y-114.935
T7
X112.531Y-113.03
T8
X54.0Y-41.0
X54.0Y-111.0
X144.0Y-41.0
X144.0Y-111.0
M30
