G04 #@! TF.GenerationSoftware,KiCad,Pcbnew,9.0.5*
G04 #@! TF.CreationDate,2025-12-17T13:43:09-06:00*
G04 #@! TF.ProjectId,SensorBoard,53656e73-6f72-4426-9f61-72642e6b6963,v8.0.2*
G04 #@! TF.SameCoordinates,Original*
G04 #@! TF.FileFunction,Legend,Bot*
G04 #@! TF.FilePolarity,Positive*
%FSLAX46Y46*%
G04 Gerber Fmt 4.6, Leading zero omitted, Abs format (unit mm)*
G04 Created by KiCad (PCBNEW 9.0.5) date 2025-12-17 13:43:09*
%MOMM*%
%LPD*%
G01*
G04 APERTURE LIST*
G04 Aperture macros list*
%AMRoundRect*
0 Rectangle with rounded corners*
0 $1 Rounding radius*
0 $2 $3 $4 $5 $6 $7 $8 $9 X,Y pos of 4 corners*
0 Add a 4 corners polygon primitive as box body*
4,1,4,$2,$3,$4,$5,$6,$7,$8,$9,$2,$3,0*
0 Add four circle primitives for the rounded corners*
1,1,$1+$1,$2,$3*
1,1,$1+$1,$4,$5*
1,1,$1+$1,$6,$7*
1,1,$1+$1,$8,$9*
0 Add four rect primitives between the rounded corners*
20,1,$1+$1,$2,$3,$4,$5,0*
20,1,$1+$1,$4,$5,$6,$7,0*
20,1,$1+$1,$6,$7,$8,$9,0*
20,1,$1+$1,$8,$9,$2,$3,0*%
G04 Aperture macros list end*
%ADD10C,0.203200*%
%ADD11C,0.300000*%
%ADD12C,0.150000*%
%ADD13C,0.177800*%
%ADD14C,0.120000*%
%ADD15C,1.400000*%
%ADD16O,1.400000X1.400000*%
%ADD17R,1.700000X1.700000*%
%ADD18O,1.700000X1.700000*%
%ADD19C,1.700000*%
%ADD20R,1.350000X1.350000*%
%ADD21O,1.350000X1.350000*%
%ADD22C,1.350000*%
%ADD23C,2.200000*%
%ADD24RoundRect,0.102000X0.889000X-0.889000X0.889000X0.889000X-0.889000X0.889000X-0.889000X-0.889000X0*%
%ADD25C,1.982000*%
%ADD26C,4.318000*%
%ADD27C,1.100000*%
%ADD28R,1.650000X1.650000*%
%ADD29C,1.650000*%
%ADD30C,3.810000*%
%ADD31RoundRect,0.102000X0.889000X0.889000X-0.889000X0.889000X-0.889000X-0.889000X0.889000X-0.889000X0*%
G04 APERTURE END LIST*
D10*
X185522173Y-97751009D02*
X186126935Y-97751009D01*
X186126935Y-97751009D02*
X186187411Y-98355771D01*
X186187411Y-98355771D02*
X186126935Y-98295294D01*
X186126935Y-98295294D02*
X186005982Y-98234818D01*
X186005982Y-98234818D02*
X185703601Y-98234818D01*
X185703601Y-98234818D02*
X185582649Y-98295294D01*
X185582649Y-98295294D02*
X185522173Y-98355771D01*
X185522173Y-98355771D02*
X185461696Y-98476723D01*
X185461696Y-98476723D02*
X185461696Y-98779104D01*
X185461696Y-98779104D02*
X185522173Y-98900056D01*
X185522173Y-98900056D02*
X185582649Y-98960533D01*
X185582649Y-98960533D02*
X185703601Y-99021009D01*
X185703601Y-99021009D02*
X186005982Y-99021009D01*
X186005982Y-99021009D02*
X186126935Y-98960533D01*
X186126935Y-98960533D02*
X186187411Y-98900056D01*
X185098839Y-97751009D02*
X184675506Y-99021009D01*
X184675506Y-99021009D02*
X184252172Y-97751009D01*
D11*
X108586917Y-42496828D02*
X108586917Y-43568257D01*
X108586917Y-43568257D02*
X108658346Y-43782542D01*
X108658346Y-43782542D02*
X108801203Y-43925400D01*
X108801203Y-43925400D02*
X109015489Y-43996828D01*
X109015489Y-43996828D02*
X109158346Y-43996828D01*
X107658346Y-43996828D02*
X107801203Y-43925400D01*
X107801203Y-43925400D02*
X107872632Y-43853971D01*
X107872632Y-43853971D02*
X107944060Y-43711114D01*
X107944060Y-43711114D02*
X107944060Y-43282542D01*
X107944060Y-43282542D02*
X107872632Y-43139685D01*
X107872632Y-43139685D02*
X107801203Y-43068257D01*
X107801203Y-43068257D02*
X107658346Y-42996828D01*
X107658346Y-42996828D02*
X107444060Y-42996828D01*
X107444060Y-42996828D02*
X107301203Y-43068257D01*
X107301203Y-43068257D02*
X107229775Y-43139685D01*
X107229775Y-43139685D02*
X107158346Y-43282542D01*
X107158346Y-43282542D02*
X107158346Y-43711114D01*
X107158346Y-43711114D02*
X107229775Y-43853971D01*
X107229775Y-43853971D02*
X107301203Y-43925400D01*
X107301203Y-43925400D02*
X107444060Y-43996828D01*
X107444060Y-43996828D02*
X107658346Y-43996828D01*
X106515489Y-42996828D02*
X106515489Y-43996828D01*
X106515489Y-43139685D02*
X106444060Y-43068257D01*
X106444060Y-43068257D02*
X106301203Y-42996828D01*
X106301203Y-42996828D02*
X106086917Y-42996828D01*
X106086917Y-42996828D02*
X105944060Y-43068257D01*
X105944060Y-43068257D02*
X105872632Y-43211114D01*
X105872632Y-43211114D02*
X105872632Y-43996828D01*
X104515489Y-43996828D02*
X104515489Y-43211114D01*
X104515489Y-43211114D02*
X104586917Y-43068257D01*
X104586917Y-43068257D02*
X104729774Y-42996828D01*
X104729774Y-42996828D02*
X105015489Y-42996828D01*
X105015489Y-42996828D02*
X105158346Y-43068257D01*
X104515489Y-43925400D02*
X104658346Y-43996828D01*
X104658346Y-43996828D02*
X105015489Y-43996828D01*
X105015489Y-43996828D02*
X105158346Y-43925400D01*
X105158346Y-43925400D02*
X105229774Y-43782542D01*
X105229774Y-43782542D02*
X105229774Y-43639685D01*
X105229774Y-43639685D02*
X105158346Y-43496828D01*
X105158346Y-43496828D02*
X105015489Y-43425400D01*
X105015489Y-43425400D02*
X104658346Y-43425400D01*
X104658346Y-43425400D02*
X104515489Y-43353971D01*
X104015488Y-42996828D02*
X103444060Y-42996828D01*
X103801203Y-42496828D02*
X103801203Y-43782542D01*
X103801203Y-43782542D02*
X103729774Y-43925400D01*
X103729774Y-43925400D02*
X103586917Y-43996828D01*
X103586917Y-43996828D02*
X103444060Y-43996828D01*
X102944060Y-43996828D02*
X102944060Y-42496828D01*
X102301203Y-43996828D02*
X102301203Y-43211114D01*
X102301203Y-43211114D02*
X102372631Y-43068257D01*
X102372631Y-43068257D02*
X102515488Y-42996828D01*
X102515488Y-42996828D02*
X102729774Y-42996828D01*
X102729774Y-42996828D02*
X102872631Y-43068257D01*
X102872631Y-43068257D02*
X102944060Y-43139685D01*
X100944060Y-43996828D02*
X100944060Y-43211114D01*
X100944060Y-43211114D02*
X101015488Y-43068257D01*
X101015488Y-43068257D02*
X101158345Y-42996828D01*
X101158345Y-42996828D02*
X101444060Y-42996828D01*
X101444060Y-42996828D02*
X101586917Y-43068257D01*
X100944060Y-43925400D02*
X101086917Y-43996828D01*
X101086917Y-43996828D02*
X101444060Y-43996828D01*
X101444060Y-43996828D02*
X101586917Y-43925400D01*
X101586917Y-43925400D02*
X101658345Y-43782542D01*
X101658345Y-43782542D02*
X101658345Y-43639685D01*
X101658345Y-43639685D02*
X101586917Y-43496828D01*
X101586917Y-43496828D02*
X101444060Y-43425400D01*
X101444060Y-43425400D02*
X101086917Y-43425400D01*
X101086917Y-43425400D02*
X100944060Y-43353971D01*
X100229774Y-42996828D02*
X100229774Y-43996828D01*
X100229774Y-43139685D02*
X100158345Y-43068257D01*
X100158345Y-43068257D02*
X100015488Y-42996828D01*
X100015488Y-42996828D02*
X99801202Y-42996828D01*
X99801202Y-42996828D02*
X99658345Y-43068257D01*
X99658345Y-43068257D02*
X99586917Y-43211114D01*
X99586917Y-43211114D02*
X99586917Y-43996828D01*
X97944059Y-42496828D02*
X97444059Y-43996828D01*
X97444059Y-43996828D02*
X96944059Y-42496828D01*
X95801203Y-43996828D02*
X95801203Y-43211114D01*
X95801203Y-43211114D02*
X95872631Y-43068257D01*
X95872631Y-43068257D02*
X96015488Y-42996828D01*
X96015488Y-42996828D02*
X96301203Y-42996828D01*
X96301203Y-42996828D02*
X96444060Y-43068257D01*
X95801203Y-43925400D02*
X95944060Y-43996828D01*
X95944060Y-43996828D02*
X96301203Y-43996828D01*
X96301203Y-43996828D02*
X96444060Y-43925400D01*
X96444060Y-43925400D02*
X96515488Y-43782542D01*
X96515488Y-43782542D02*
X96515488Y-43639685D01*
X96515488Y-43639685D02*
X96444060Y-43496828D01*
X96444060Y-43496828D02*
X96301203Y-43425400D01*
X96301203Y-43425400D02*
X95944060Y-43425400D01*
X95944060Y-43425400D02*
X95801203Y-43353971D01*
X94872631Y-43996828D02*
X95015488Y-43925400D01*
X95015488Y-43925400D02*
X95086917Y-43782542D01*
X95086917Y-43782542D02*
X95086917Y-42496828D01*
X94444060Y-42996828D02*
X94086917Y-43996828D01*
X94086917Y-43996828D02*
X93729774Y-42996828D01*
X92515489Y-43996828D02*
X92515489Y-43211114D01*
X92515489Y-43211114D02*
X92586917Y-43068257D01*
X92586917Y-43068257D02*
X92729774Y-42996828D01*
X92729774Y-42996828D02*
X93015489Y-42996828D01*
X93015489Y-42996828D02*
X93158346Y-43068257D01*
X92515489Y-43925400D02*
X92658346Y-43996828D01*
X92658346Y-43996828D02*
X93015489Y-43996828D01*
X93015489Y-43996828D02*
X93158346Y-43925400D01*
X93158346Y-43925400D02*
X93229774Y-43782542D01*
X93229774Y-43782542D02*
X93229774Y-43639685D01*
X93229774Y-43639685D02*
X93158346Y-43496828D01*
X93158346Y-43496828D02*
X93015489Y-43425400D01*
X93015489Y-43425400D02*
X92658346Y-43425400D01*
X92658346Y-43425400D02*
X92515489Y-43353971D01*
X91801203Y-42996828D02*
X91801203Y-43996828D01*
X91801203Y-43139685D02*
X91729774Y-43068257D01*
X91729774Y-43068257D02*
X91586917Y-42996828D01*
X91586917Y-42996828D02*
X91372631Y-42996828D01*
X91372631Y-42996828D02*
X91229774Y-43068257D01*
X91229774Y-43068257D02*
X91158346Y-43211114D01*
X91158346Y-43211114D02*
X91158346Y-43996828D01*
X90229774Y-43996828D02*
X90372631Y-43925400D01*
X90372631Y-43925400D02*
X90444060Y-43853971D01*
X90444060Y-43853971D02*
X90515488Y-43711114D01*
X90515488Y-43711114D02*
X90515488Y-43282542D01*
X90515488Y-43282542D02*
X90444060Y-43139685D01*
X90444060Y-43139685D02*
X90372631Y-43068257D01*
X90372631Y-43068257D02*
X90229774Y-42996828D01*
X90229774Y-42996828D02*
X90015488Y-42996828D01*
X90015488Y-42996828D02*
X89872631Y-43068257D01*
X89872631Y-43068257D02*
X89801203Y-43139685D01*
X89801203Y-43139685D02*
X89729774Y-43282542D01*
X89729774Y-43282542D02*
X89729774Y-43711114D01*
X89729774Y-43711114D02*
X89801203Y-43853971D01*
X89801203Y-43853971D02*
X89872631Y-43925400D01*
X89872631Y-43925400D02*
X90015488Y-43996828D01*
X90015488Y-43996828D02*
X90229774Y-43996828D01*
X171022489Y-35335198D02*
X170522489Y-35335198D01*
X170308203Y-36120912D02*
X171022489Y-36120912D01*
X171022489Y-36120912D02*
X171022489Y-34620912D01*
X171022489Y-34620912D02*
X170308203Y-34620912D01*
X168808203Y-35978055D02*
X168879631Y-36049484D01*
X168879631Y-36049484D02*
X169093917Y-36120912D01*
X169093917Y-36120912D02*
X169236774Y-36120912D01*
X169236774Y-36120912D02*
X169451060Y-36049484D01*
X169451060Y-36049484D02*
X169593917Y-35906626D01*
X169593917Y-35906626D02*
X169665346Y-35763769D01*
X169665346Y-35763769D02*
X169736774Y-35478055D01*
X169736774Y-35478055D02*
X169736774Y-35263769D01*
X169736774Y-35263769D02*
X169665346Y-34978055D01*
X169665346Y-34978055D02*
X169593917Y-34835198D01*
X169593917Y-34835198D02*
X169451060Y-34692341D01*
X169451060Y-34692341D02*
X169236774Y-34620912D01*
X169236774Y-34620912D02*
X169093917Y-34620912D01*
X169093917Y-34620912D02*
X168879631Y-34692341D01*
X168879631Y-34692341D02*
X168808203Y-34763769D01*
X168165346Y-35335198D02*
X167665346Y-35335198D01*
X167451060Y-36120912D02*
X168165346Y-36120912D01*
X168165346Y-36120912D02*
X168165346Y-34620912D01*
X168165346Y-34620912D02*
X167451060Y-34620912D01*
X166165346Y-35120912D02*
X166165346Y-36120912D01*
X166522488Y-34549484D02*
X166879631Y-35620912D01*
X166879631Y-35620912D02*
X165951060Y-35620912D01*
X164736775Y-35120912D02*
X164736775Y-36120912D01*
X165093917Y-34549484D02*
X165451060Y-35620912D01*
X165451060Y-35620912D02*
X164522489Y-35620912D01*
X163236775Y-34620912D02*
X163951061Y-34620912D01*
X163951061Y-34620912D02*
X164022489Y-35335198D01*
X164022489Y-35335198D02*
X163951061Y-35263769D01*
X163951061Y-35263769D02*
X163808204Y-35192341D01*
X163808204Y-35192341D02*
X163451061Y-35192341D01*
X163451061Y-35192341D02*
X163308204Y-35263769D01*
X163308204Y-35263769D02*
X163236775Y-35335198D01*
X163236775Y-35335198D02*
X163165346Y-35478055D01*
X163165346Y-35478055D02*
X163165346Y-35835198D01*
X163165346Y-35835198D02*
X163236775Y-35978055D01*
X163236775Y-35978055D02*
X163308204Y-36049484D01*
X163308204Y-36049484D02*
X163451061Y-36120912D01*
X163451061Y-36120912D02*
X163808204Y-36120912D01*
X163808204Y-36120912D02*
X163951061Y-36049484D01*
X163951061Y-36049484D02*
X164022489Y-35978055D01*
X162522490Y-36120912D02*
X162522490Y-34620912D01*
X162522490Y-34620912D02*
X162022490Y-35692341D01*
X162022490Y-35692341D02*
X161522490Y-34620912D01*
X161522490Y-34620912D02*
X161522490Y-36120912D01*
X159736775Y-36049484D02*
X159522490Y-36120912D01*
X159522490Y-36120912D02*
X159165347Y-36120912D01*
X159165347Y-36120912D02*
X159022490Y-36049484D01*
X159022490Y-36049484D02*
X158951061Y-35978055D01*
X158951061Y-35978055D02*
X158879632Y-35835198D01*
X158879632Y-35835198D02*
X158879632Y-35692341D01*
X158879632Y-35692341D02*
X158951061Y-35549484D01*
X158951061Y-35549484D02*
X159022490Y-35478055D01*
X159022490Y-35478055D02*
X159165347Y-35406626D01*
X159165347Y-35406626D02*
X159451061Y-35335198D01*
X159451061Y-35335198D02*
X159593918Y-35263769D01*
X159593918Y-35263769D02*
X159665347Y-35192341D01*
X159665347Y-35192341D02*
X159736775Y-35049484D01*
X159736775Y-35049484D02*
X159736775Y-34906626D01*
X159736775Y-34906626D02*
X159665347Y-34763769D01*
X159665347Y-34763769D02*
X159593918Y-34692341D01*
X159593918Y-34692341D02*
X159451061Y-34620912D01*
X159451061Y-34620912D02*
X159093918Y-34620912D01*
X159093918Y-34620912D02*
X158879632Y-34692341D01*
X157665347Y-36049484D02*
X157808204Y-36120912D01*
X157808204Y-36120912D02*
X158093919Y-36120912D01*
X158093919Y-36120912D02*
X158236776Y-36049484D01*
X158236776Y-36049484D02*
X158308204Y-35906626D01*
X158308204Y-35906626D02*
X158308204Y-35335198D01*
X158308204Y-35335198D02*
X158236776Y-35192341D01*
X158236776Y-35192341D02*
X158093919Y-35120912D01*
X158093919Y-35120912D02*
X157808204Y-35120912D01*
X157808204Y-35120912D02*
X157665347Y-35192341D01*
X157665347Y-35192341D02*
X157593919Y-35335198D01*
X157593919Y-35335198D02*
X157593919Y-35478055D01*
X157593919Y-35478055D02*
X158308204Y-35620912D01*
X156951062Y-35120912D02*
X156951062Y-36120912D01*
X156951062Y-35263769D02*
X156879633Y-35192341D01*
X156879633Y-35192341D02*
X156736776Y-35120912D01*
X156736776Y-35120912D02*
X156522490Y-35120912D01*
X156522490Y-35120912D02*
X156379633Y-35192341D01*
X156379633Y-35192341D02*
X156308205Y-35335198D01*
X156308205Y-35335198D02*
X156308205Y-36120912D01*
X155665347Y-36049484D02*
X155522490Y-36120912D01*
X155522490Y-36120912D02*
X155236776Y-36120912D01*
X155236776Y-36120912D02*
X155093919Y-36049484D01*
X155093919Y-36049484D02*
X155022490Y-35906626D01*
X155022490Y-35906626D02*
X155022490Y-35835198D01*
X155022490Y-35835198D02*
X155093919Y-35692341D01*
X155093919Y-35692341D02*
X155236776Y-35620912D01*
X155236776Y-35620912D02*
X155451062Y-35620912D01*
X155451062Y-35620912D02*
X155593919Y-35549484D01*
X155593919Y-35549484D02*
X155665347Y-35406626D01*
X155665347Y-35406626D02*
X155665347Y-35335198D01*
X155665347Y-35335198D02*
X155593919Y-35192341D01*
X155593919Y-35192341D02*
X155451062Y-35120912D01*
X155451062Y-35120912D02*
X155236776Y-35120912D01*
X155236776Y-35120912D02*
X155093919Y-35192341D01*
X154165347Y-36120912D02*
X154308204Y-36049484D01*
X154308204Y-36049484D02*
X154379633Y-35978055D01*
X154379633Y-35978055D02*
X154451061Y-35835198D01*
X154451061Y-35835198D02*
X154451061Y-35406626D01*
X154451061Y-35406626D02*
X154379633Y-35263769D01*
X154379633Y-35263769D02*
X154308204Y-35192341D01*
X154308204Y-35192341D02*
X154165347Y-35120912D01*
X154165347Y-35120912D02*
X153951061Y-35120912D01*
X153951061Y-35120912D02*
X153808204Y-35192341D01*
X153808204Y-35192341D02*
X153736776Y-35263769D01*
X153736776Y-35263769D02*
X153665347Y-35406626D01*
X153665347Y-35406626D02*
X153665347Y-35835198D01*
X153665347Y-35835198D02*
X153736776Y-35978055D01*
X153736776Y-35978055D02*
X153808204Y-36049484D01*
X153808204Y-36049484D02*
X153951061Y-36120912D01*
X153951061Y-36120912D02*
X154165347Y-36120912D01*
X153022490Y-36120912D02*
X153022490Y-35120912D01*
X153022490Y-35406626D02*
X152951061Y-35263769D01*
X152951061Y-35263769D02*
X152879633Y-35192341D01*
X152879633Y-35192341D02*
X152736775Y-35120912D01*
X152736775Y-35120912D02*
X152593918Y-35120912D01*
X150451062Y-35335198D02*
X150236776Y-35406626D01*
X150236776Y-35406626D02*
X150165347Y-35478055D01*
X150165347Y-35478055D02*
X150093919Y-35620912D01*
X150093919Y-35620912D02*
X150093919Y-35835198D01*
X150093919Y-35835198D02*
X150165347Y-35978055D01*
X150165347Y-35978055D02*
X150236776Y-36049484D01*
X150236776Y-36049484D02*
X150379633Y-36120912D01*
X150379633Y-36120912D02*
X150951062Y-36120912D01*
X150951062Y-36120912D02*
X150951062Y-34620912D01*
X150951062Y-34620912D02*
X150451062Y-34620912D01*
X150451062Y-34620912D02*
X150308205Y-34692341D01*
X150308205Y-34692341D02*
X150236776Y-34763769D01*
X150236776Y-34763769D02*
X150165347Y-34906626D01*
X150165347Y-34906626D02*
X150165347Y-35049484D01*
X150165347Y-35049484D02*
X150236776Y-35192341D01*
X150236776Y-35192341D02*
X150308205Y-35263769D01*
X150308205Y-35263769D02*
X150451062Y-35335198D01*
X150451062Y-35335198D02*
X150951062Y-35335198D01*
X149236776Y-36120912D02*
X149379633Y-36049484D01*
X149379633Y-36049484D02*
X149451062Y-35978055D01*
X149451062Y-35978055D02*
X149522490Y-35835198D01*
X149522490Y-35835198D02*
X149522490Y-35406626D01*
X149522490Y-35406626D02*
X149451062Y-35263769D01*
X149451062Y-35263769D02*
X149379633Y-35192341D01*
X149379633Y-35192341D02*
X149236776Y-35120912D01*
X149236776Y-35120912D02*
X149022490Y-35120912D01*
X149022490Y-35120912D02*
X148879633Y-35192341D01*
X148879633Y-35192341D02*
X148808205Y-35263769D01*
X148808205Y-35263769D02*
X148736776Y-35406626D01*
X148736776Y-35406626D02*
X148736776Y-35835198D01*
X148736776Y-35835198D02*
X148808205Y-35978055D01*
X148808205Y-35978055D02*
X148879633Y-36049484D01*
X148879633Y-36049484D02*
X149022490Y-36120912D01*
X149022490Y-36120912D02*
X149236776Y-36120912D01*
X147451062Y-36120912D02*
X147451062Y-35335198D01*
X147451062Y-35335198D02*
X147522490Y-35192341D01*
X147522490Y-35192341D02*
X147665347Y-35120912D01*
X147665347Y-35120912D02*
X147951062Y-35120912D01*
X147951062Y-35120912D02*
X148093919Y-35192341D01*
X147451062Y-36049484D02*
X147593919Y-36120912D01*
X147593919Y-36120912D02*
X147951062Y-36120912D01*
X147951062Y-36120912D02*
X148093919Y-36049484D01*
X148093919Y-36049484D02*
X148165347Y-35906626D01*
X148165347Y-35906626D02*
X148165347Y-35763769D01*
X148165347Y-35763769D02*
X148093919Y-35620912D01*
X148093919Y-35620912D02*
X147951062Y-35549484D01*
X147951062Y-35549484D02*
X147593919Y-35549484D01*
X147593919Y-35549484D02*
X147451062Y-35478055D01*
X146736776Y-36120912D02*
X146736776Y-35120912D01*
X146736776Y-35406626D02*
X146665347Y-35263769D01*
X146665347Y-35263769D02*
X146593919Y-35192341D01*
X146593919Y-35192341D02*
X146451061Y-35120912D01*
X146451061Y-35120912D02*
X146308204Y-35120912D01*
X145165348Y-36120912D02*
X145165348Y-34620912D01*
X145165348Y-36049484D02*
X145308205Y-36120912D01*
X145308205Y-36120912D02*
X145593919Y-36120912D01*
X145593919Y-36120912D02*
X145736776Y-36049484D01*
X145736776Y-36049484D02*
X145808205Y-35978055D01*
X145808205Y-35978055D02*
X145879633Y-35835198D01*
X145879633Y-35835198D02*
X145879633Y-35406626D01*
X145879633Y-35406626D02*
X145808205Y-35263769D01*
X145808205Y-35263769D02*
X145736776Y-35192341D01*
X145736776Y-35192341D02*
X145593919Y-35120912D01*
X145593919Y-35120912D02*
X145308205Y-35120912D01*
X145308205Y-35120912D02*
X145165348Y-35192341D01*
X171236774Y-37035828D02*
X170736774Y-38535828D01*
X170736774Y-38535828D02*
X170236774Y-37035828D01*
X169165346Y-38464400D02*
X169308203Y-38535828D01*
X169308203Y-38535828D02*
X169593918Y-38535828D01*
X169593918Y-38535828D02*
X169736775Y-38464400D01*
X169736775Y-38464400D02*
X169808203Y-38321542D01*
X169808203Y-38321542D02*
X169808203Y-37750114D01*
X169808203Y-37750114D02*
X169736775Y-37607257D01*
X169736775Y-37607257D02*
X169593918Y-37535828D01*
X169593918Y-37535828D02*
X169308203Y-37535828D01*
X169308203Y-37535828D02*
X169165346Y-37607257D01*
X169165346Y-37607257D02*
X169093918Y-37750114D01*
X169093918Y-37750114D02*
X169093918Y-37892971D01*
X169093918Y-37892971D02*
X169808203Y-38035828D01*
X168451061Y-38535828D02*
X168451061Y-37535828D01*
X168451061Y-37821542D02*
X168379632Y-37678685D01*
X168379632Y-37678685D02*
X168308204Y-37607257D01*
X168308204Y-37607257D02*
X168165346Y-37535828D01*
X168165346Y-37535828D02*
X168022489Y-37535828D01*
X167593918Y-38464400D02*
X167451061Y-38535828D01*
X167451061Y-38535828D02*
X167165347Y-38535828D01*
X167165347Y-38535828D02*
X167022490Y-38464400D01*
X167022490Y-38464400D02*
X166951061Y-38321542D01*
X166951061Y-38321542D02*
X166951061Y-38250114D01*
X166951061Y-38250114D02*
X167022490Y-38107257D01*
X167022490Y-38107257D02*
X167165347Y-38035828D01*
X167165347Y-38035828D02*
X167379633Y-38035828D01*
X167379633Y-38035828D02*
X167522490Y-37964400D01*
X167522490Y-37964400D02*
X167593918Y-37821542D01*
X167593918Y-37821542D02*
X167593918Y-37750114D01*
X167593918Y-37750114D02*
X167522490Y-37607257D01*
X167522490Y-37607257D02*
X167379633Y-37535828D01*
X167379633Y-37535828D02*
X167165347Y-37535828D01*
X167165347Y-37535828D02*
X167022490Y-37607257D01*
X166308204Y-38535828D02*
X166308204Y-37535828D01*
X166308204Y-37035828D02*
X166379632Y-37107257D01*
X166379632Y-37107257D02*
X166308204Y-37178685D01*
X166308204Y-37178685D02*
X166236775Y-37107257D01*
X166236775Y-37107257D02*
X166308204Y-37035828D01*
X166308204Y-37035828D02*
X166308204Y-37178685D01*
X165379632Y-38535828D02*
X165522489Y-38464400D01*
X165522489Y-38464400D02*
X165593918Y-38392971D01*
X165593918Y-38392971D02*
X165665346Y-38250114D01*
X165665346Y-38250114D02*
X165665346Y-37821542D01*
X165665346Y-37821542D02*
X165593918Y-37678685D01*
X165593918Y-37678685D02*
X165522489Y-37607257D01*
X165522489Y-37607257D02*
X165379632Y-37535828D01*
X165379632Y-37535828D02*
X165165346Y-37535828D01*
X165165346Y-37535828D02*
X165022489Y-37607257D01*
X165022489Y-37607257D02*
X164951061Y-37678685D01*
X164951061Y-37678685D02*
X164879632Y-37821542D01*
X164879632Y-37821542D02*
X164879632Y-38250114D01*
X164879632Y-38250114D02*
X164951061Y-38392971D01*
X164951061Y-38392971D02*
X165022489Y-38464400D01*
X165022489Y-38464400D02*
X165165346Y-38535828D01*
X165165346Y-38535828D02*
X165379632Y-38535828D01*
X164236775Y-37535828D02*
X164236775Y-38535828D01*
X164236775Y-37678685D02*
X164165346Y-37607257D01*
X164165346Y-37607257D02*
X164022489Y-37535828D01*
X164022489Y-37535828D02*
X163808203Y-37535828D01*
X163808203Y-37535828D02*
X163665346Y-37607257D01*
X163665346Y-37607257D02*
X163593918Y-37750114D01*
X163593918Y-37750114D02*
X163593918Y-38535828D01*
X161522489Y-37678685D02*
X161665346Y-37607257D01*
X161665346Y-37607257D02*
X161736775Y-37535828D01*
X161736775Y-37535828D02*
X161808203Y-37392971D01*
X161808203Y-37392971D02*
X161808203Y-37321542D01*
X161808203Y-37321542D02*
X161736775Y-37178685D01*
X161736775Y-37178685D02*
X161665346Y-37107257D01*
X161665346Y-37107257D02*
X161522489Y-37035828D01*
X161522489Y-37035828D02*
X161236775Y-37035828D01*
X161236775Y-37035828D02*
X161093918Y-37107257D01*
X161093918Y-37107257D02*
X161022489Y-37178685D01*
X161022489Y-37178685D02*
X160951060Y-37321542D01*
X160951060Y-37321542D02*
X160951060Y-37392971D01*
X160951060Y-37392971D02*
X161022489Y-37535828D01*
X161022489Y-37535828D02*
X161093918Y-37607257D01*
X161093918Y-37607257D02*
X161236775Y-37678685D01*
X161236775Y-37678685D02*
X161522489Y-37678685D01*
X161522489Y-37678685D02*
X161665346Y-37750114D01*
X161665346Y-37750114D02*
X161736775Y-37821542D01*
X161736775Y-37821542D02*
X161808203Y-37964400D01*
X161808203Y-37964400D02*
X161808203Y-38250114D01*
X161808203Y-38250114D02*
X161736775Y-38392971D01*
X161736775Y-38392971D02*
X161665346Y-38464400D01*
X161665346Y-38464400D02*
X161522489Y-38535828D01*
X161522489Y-38535828D02*
X161236775Y-38535828D01*
X161236775Y-38535828D02*
X161093918Y-38464400D01*
X161093918Y-38464400D02*
X161022489Y-38392971D01*
X161022489Y-38392971D02*
X160951060Y-38250114D01*
X160951060Y-38250114D02*
X160951060Y-37964400D01*
X160951060Y-37964400D02*
X161022489Y-37821542D01*
X161022489Y-37821542D02*
X161093918Y-37750114D01*
X161093918Y-37750114D02*
X161236775Y-37678685D01*
D10*
X132375696Y-42820485D02*
X132496649Y-42760009D01*
X132496649Y-42760009D02*
X132678077Y-42760009D01*
X132678077Y-42760009D02*
X132859506Y-42820485D01*
X132859506Y-42820485D02*
X132980458Y-42941437D01*
X132980458Y-42941437D02*
X133040935Y-43062390D01*
X133040935Y-43062390D02*
X133101411Y-43304294D01*
X133101411Y-43304294D02*
X133101411Y-43485723D01*
X133101411Y-43485723D02*
X133040935Y-43727628D01*
X133040935Y-43727628D02*
X132980458Y-43848580D01*
X132980458Y-43848580D02*
X132859506Y-43969533D01*
X132859506Y-43969533D02*
X132678077Y-44030009D01*
X132678077Y-44030009D02*
X132557125Y-44030009D01*
X132557125Y-44030009D02*
X132375696Y-43969533D01*
X132375696Y-43969533D02*
X132315220Y-43909056D01*
X132315220Y-43909056D02*
X132315220Y-43485723D01*
X132315220Y-43485723D02*
X132557125Y-43485723D01*
X131770935Y-43183342D02*
X131770935Y-44030009D01*
X131770935Y-43304294D02*
X131710458Y-43243818D01*
X131710458Y-43243818D02*
X131589506Y-43183342D01*
X131589506Y-43183342D02*
X131408077Y-43183342D01*
X131408077Y-43183342D02*
X131287125Y-43243818D01*
X131287125Y-43243818D02*
X131226649Y-43364771D01*
X131226649Y-43364771D02*
X131226649Y-44030009D01*
X130077601Y-44030009D02*
X130077601Y-42760009D01*
X130077601Y-43969533D02*
X130198553Y-44030009D01*
X130198553Y-44030009D02*
X130440458Y-44030009D01*
X130440458Y-44030009D02*
X130561410Y-43969533D01*
X130561410Y-43969533D02*
X130621887Y-43909056D01*
X130621887Y-43909056D02*
X130682363Y-43788104D01*
X130682363Y-43788104D02*
X130682363Y-43425247D01*
X130682363Y-43425247D02*
X130621887Y-43304294D01*
X130621887Y-43304294D02*
X130561410Y-43243818D01*
X130561410Y-43243818D02*
X130440458Y-43183342D01*
X130440458Y-43183342D02*
X130198553Y-43183342D01*
X130198553Y-43183342D02*
X130077601Y-43243818D01*
X40471303Y-109960514D02*
X40350350Y-110020990D01*
X40350350Y-110020990D02*
X40168922Y-110020990D01*
X40168922Y-110020990D02*
X39987493Y-109960514D01*
X39987493Y-109960514D02*
X39866541Y-109839562D01*
X39866541Y-109839562D02*
X39806064Y-109718609D01*
X39806064Y-109718609D02*
X39745588Y-109476705D01*
X39745588Y-109476705D02*
X39745588Y-109295276D01*
X39745588Y-109295276D02*
X39806064Y-109053371D01*
X39806064Y-109053371D02*
X39866541Y-108932419D01*
X39866541Y-108932419D02*
X39987493Y-108811467D01*
X39987493Y-108811467D02*
X40168922Y-108750990D01*
X40168922Y-108750990D02*
X40289874Y-108750990D01*
X40289874Y-108750990D02*
X40471303Y-108811467D01*
X40471303Y-108811467D02*
X40531779Y-108871943D01*
X40531779Y-108871943D02*
X40531779Y-109295276D01*
X40531779Y-109295276D02*
X40289874Y-109295276D01*
X41076064Y-108750990D02*
X41076064Y-110020990D01*
X41076064Y-110020990D02*
X41801779Y-108750990D01*
X41801779Y-108750990D02*
X41801779Y-110020990D01*
X42406540Y-108750990D02*
X42406540Y-110020990D01*
X42406540Y-110020990D02*
X42708921Y-110020990D01*
X42708921Y-110020990D02*
X42890350Y-109960514D01*
X42890350Y-109960514D02*
X43011302Y-109839562D01*
X43011302Y-109839562D02*
X43071779Y-109718609D01*
X43071779Y-109718609D02*
X43132255Y-109476705D01*
X43132255Y-109476705D02*
X43132255Y-109295276D01*
X43132255Y-109295276D02*
X43071779Y-109053371D01*
X43071779Y-109053371D02*
X43011302Y-108932419D01*
X43011302Y-108932419D02*
X42890350Y-108811467D01*
X42890350Y-108811467D02*
X42708921Y-108750990D01*
X42708921Y-108750990D02*
X42406540Y-108750990D01*
X129351887Y-111594009D02*
X128565696Y-111594009D01*
X128565696Y-111594009D02*
X128989030Y-112077818D01*
X128989030Y-112077818D02*
X128807601Y-112077818D01*
X128807601Y-112077818D02*
X128686649Y-112138294D01*
X128686649Y-112138294D02*
X128626173Y-112198771D01*
X128626173Y-112198771D02*
X128565696Y-112319723D01*
X128565696Y-112319723D02*
X128565696Y-112622104D01*
X128565696Y-112622104D02*
X128626173Y-112743056D01*
X128626173Y-112743056D02*
X128686649Y-112803533D01*
X128686649Y-112803533D02*
X128807601Y-112864009D01*
X128807601Y-112864009D02*
X129170458Y-112864009D01*
X129170458Y-112864009D02*
X129291411Y-112803533D01*
X129291411Y-112803533D02*
X129351887Y-112743056D01*
X128021411Y-112743056D02*
X127960934Y-112803533D01*
X127960934Y-112803533D02*
X128021411Y-112864009D01*
X128021411Y-112864009D02*
X128081887Y-112803533D01*
X128081887Y-112803533D02*
X128021411Y-112743056D01*
X128021411Y-112743056D02*
X128021411Y-112864009D01*
X127537601Y-111594009D02*
X126751410Y-111594009D01*
X126751410Y-111594009D02*
X127174744Y-112077818D01*
X127174744Y-112077818D02*
X126993315Y-112077818D01*
X126993315Y-112077818D02*
X126872363Y-112138294D01*
X126872363Y-112138294D02*
X126811887Y-112198771D01*
X126811887Y-112198771D02*
X126751410Y-112319723D01*
X126751410Y-112319723D02*
X126751410Y-112622104D01*
X126751410Y-112622104D02*
X126811887Y-112743056D01*
X126811887Y-112743056D02*
X126872363Y-112803533D01*
X126872363Y-112803533D02*
X126993315Y-112864009D01*
X126993315Y-112864009D02*
X127356172Y-112864009D01*
X127356172Y-112864009D02*
X127477125Y-112803533D01*
X127477125Y-112803533D02*
X127537601Y-112743056D01*
X126388553Y-111594009D02*
X125965220Y-112864009D01*
X125965220Y-112864009D02*
X125541886Y-111594009D01*
D12*
X195913333Y-64859819D02*
X195913333Y-65574104D01*
X195913333Y-65574104D02*
X195960952Y-65716961D01*
X195960952Y-65716961D02*
X196056190Y-65812200D01*
X196056190Y-65812200D02*
X196199047Y-65859819D01*
X196199047Y-65859819D02*
X196294285Y-65859819D01*
X195389523Y-65859819D02*
X195199047Y-65859819D01*
X195199047Y-65859819D02*
X195103809Y-65812200D01*
X195103809Y-65812200D02*
X195056190Y-65764580D01*
X195056190Y-65764580D02*
X194960952Y-65621723D01*
X194960952Y-65621723D02*
X194913333Y-65431247D01*
X194913333Y-65431247D02*
X194913333Y-65050295D01*
X194913333Y-65050295D02*
X194960952Y-64955057D01*
X194960952Y-64955057D02*
X195008571Y-64907438D01*
X195008571Y-64907438D02*
X195103809Y-64859819D01*
X195103809Y-64859819D02*
X195294285Y-64859819D01*
X195294285Y-64859819D02*
X195389523Y-64907438D01*
X195389523Y-64907438D02*
X195437142Y-64955057D01*
X195437142Y-64955057D02*
X195484761Y-65050295D01*
X195484761Y-65050295D02*
X195484761Y-65288390D01*
X195484761Y-65288390D02*
X195437142Y-65383628D01*
X195437142Y-65383628D02*
X195389523Y-65431247D01*
X195389523Y-65431247D02*
X195294285Y-65478866D01*
X195294285Y-65478866D02*
X195103809Y-65478866D01*
X195103809Y-65478866D02*
X195008571Y-65431247D01*
X195008571Y-65431247D02*
X194960952Y-65383628D01*
X194960952Y-65383628D02*
X194913333Y-65288390D01*
D13*
X190325774Y-53485143D02*
X190325774Y-53001333D01*
X190325774Y-53001333D02*
X189309774Y-53001333D01*
X190325774Y-53823809D02*
X189309774Y-53823809D01*
X189309774Y-53823809D02*
X189309774Y-54065714D01*
X189309774Y-54065714D02*
X189358155Y-54210857D01*
X189358155Y-54210857D02*
X189454917Y-54307619D01*
X189454917Y-54307619D02*
X189551679Y-54356000D01*
X189551679Y-54356000D02*
X189745203Y-54404381D01*
X189745203Y-54404381D02*
X189890346Y-54404381D01*
X189890346Y-54404381D02*
X190083870Y-54356000D01*
X190083870Y-54356000D02*
X190180632Y-54307619D01*
X190180632Y-54307619D02*
X190277394Y-54210857D01*
X190277394Y-54210857D02*
X190325774Y-54065714D01*
X190325774Y-54065714D02*
X190325774Y-53823809D01*
X190325774Y-55420381D02*
X189841965Y-55081714D01*
X190325774Y-54839809D02*
X189309774Y-54839809D01*
X189309774Y-54839809D02*
X189309774Y-55226857D01*
X189309774Y-55226857D02*
X189358155Y-55323619D01*
X189358155Y-55323619D02*
X189406536Y-55372000D01*
X189406536Y-55372000D02*
X189503298Y-55420381D01*
X189503298Y-55420381D02*
X189648441Y-55420381D01*
X189648441Y-55420381D02*
X189745203Y-55372000D01*
X189745203Y-55372000D02*
X189793584Y-55323619D01*
X189793584Y-55323619D02*
X189841965Y-55226857D01*
X189841965Y-55226857D02*
X189841965Y-54839809D01*
X189309774Y-56049333D02*
X189309774Y-56242857D01*
X189309774Y-56242857D02*
X189358155Y-56339619D01*
X189358155Y-56339619D02*
X189454917Y-56436381D01*
X189454917Y-56436381D02*
X189648441Y-56484762D01*
X189648441Y-56484762D02*
X189987108Y-56484762D01*
X189987108Y-56484762D02*
X190180632Y-56436381D01*
X190180632Y-56436381D02*
X190277394Y-56339619D01*
X190277394Y-56339619D02*
X190325774Y-56242857D01*
X190325774Y-56242857D02*
X190325774Y-56049333D01*
X190325774Y-56049333D02*
X190277394Y-55952571D01*
X190277394Y-55952571D02*
X190180632Y-55855809D01*
X190180632Y-55855809D02*
X189987108Y-55807428D01*
X189987108Y-55807428D02*
X189648441Y-55807428D01*
X189648441Y-55807428D02*
X189454917Y-55855809D01*
X189454917Y-55855809D02*
X189358155Y-55952571D01*
X189358155Y-55952571D02*
X189309774Y-56049333D01*
X189793584Y-57258857D02*
X189841965Y-57404000D01*
X189841965Y-57404000D02*
X189890346Y-57452381D01*
X189890346Y-57452381D02*
X189987108Y-57500762D01*
X189987108Y-57500762D02*
X190132251Y-57500762D01*
X190132251Y-57500762D02*
X190229013Y-57452381D01*
X190229013Y-57452381D02*
X190277394Y-57404000D01*
X190277394Y-57404000D02*
X190325774Y-57307238D01*
X190325774Y-57307238D02*
X190325774Y-56920190D01*
X190325774Y-56920190D02*
X189309774Y-56920190D01*
X189309774Y-56920190D02*
X189309774Y-57258857D01*
X189309774Y-57258857D02*
X189358155Y-57355619D01*
X189358155Y-57355619D02*
X189406536Y-57404000D01*
X189406536Y-57404000D02*
X189503298Y-57452381D01*
X189503298Y-57452381D02*
X189600060Y-57452381D01*
X189600060Y-57452381D02*
X189696822Y-57404000D01*
X189696822Y-57404000D02*
X189745203Y-57355619D01*
X189745203Y-57355619D02*
X189793584Y-57258857D01*
X189793584Y-57258857D02*
X189793584Y-56920190D01*
X189309774Y-58129714D02*
X189309774Y-58323238D01*
X189309774Y-58323238D02*
X189358155Y-58420000D01*
X189358155Y-58420000D02*
X189454917Y-58516762D01*
X189454917Y-58516762D02*
X189648441Y-58565143D01*
X189648441Y-58565143D02*
X189987108Y-58565143D01*
X189987108Y-58565143D02*
X190180632Y-58516762D01*
X190180632Y-58516762D02*
X190277394Y-58420000D01*
X190277394Y-58420000D02*
X190325774Y-58323238D01*
X190325774Y-58323238D02*
X190325774Y-58129714D01*
X190325774Y-58129714D02*
X190277394Y-58032952D01*
X190277394Y-58032952D02*
X190180632Y-57936190D01*
X190180632Y-57936190D02*
X189987108Y-57887809D01*
X189987108Y-57887809D02*
X189648441Y-57887809D01*
X189648441Y-57887809D02*
X189454917Y-57936190D01*
X189454917Y-57936190D02*
X189358155Y-58032952D01*
X189358155Y-58032952D02*
X189309774Y-58129714D01*
X189309774Y-58855428D02*
X189309774Y-59436000D01*
X190325774Y-59145714D02*
X189309774Y-59145714D01*
X190422536Y-59532762D02*
X190422536Y-60306857D01*
X190325774Y-61032571D02*
X190325774Y-60548761D01*
X190325774Y-60548761D02*
X189309774Y-60548761D01*
X190325774Y-61371237D02*
X189309774Y-61371237D01*
X189309774Y-61371237D02*
X189309774Y-61613142D01*
X189309774Y-61613142D02*
X189358155Y-61758285D01*
X189358155Y-61758285D02*
X189454917Y-61855047D01*
X189454917Y-61855047D02*
X189551679Y-61903428D01*
X189551679Y-61903428D02*
X189745203Y-61951809D01*
X189745203Y-61951809D02*
X189890346Y-61951809D01*
X189890346Y-61951809D02*
X190083870Y-61903428D01*
X190083870Y-61903428D02*
X190180632Y-61855047D01*
X190180632Y-61855047D02*
X190277394Y-61758285D01*
X190277394Y-61758285D02*
X190325774Y-61613142D01*
X190325774Y-61613142D02*
X190325774Y-61371237D01*
X190325774Y-62919428D02*
X190325774Y-62338856D01*
X190325774Y-62629142D02*
X189309774Y-62629142D01*
X189309774Y-62629142D02*
X189454917Y-62532380D01*
X189454917Y-62532380D02*
X189551679Y-62435618D01*
X189551679Y-62435618D02*
X189600060Y-62338856D01*
X190325774Y-63403237D02*
X190325774Y-63596761D01*
X190325774Y-63596761D02*
X190277394Y-63693523D01*
X190277394Y-63693523D02*
X190229013Y-63741904D01*
X190229013Y-63741904D02*
X190083870Y-63838666D01*
X190083870Y-63838666D02*
X189890346Y-63887047D01*
X189890346Y-63887047D02*
X189503298Y-63887047D01*
X189503298Y-63887047D02*
X189406536Y-63838666D01*
X189406536Y-63838666D02*
X189358155Y-63790285D01*
X189358155Y-63790285D02*
X189309774Y-63693523D01*
X189309774Y-63693523D02*
X189309774Y-63499999D01*
X189309774Y-63499999D02*
X189358155Y-63403237D01*
X189358155Y-63403237D02*
X189406536Y-63354856D01*
X189406536Y-63354856D02*
X189503298Y-63306475D01*
X189503298Y-63306475D02*
X189745203Y-63306475D01*
X189745203Y-63306475D02*
X189841965Y-63354856D01*
X189841965Y-63354856D02*
X189890346Y-63403237D01*
X189890346Y-63403237D02*
X189938727Y-63499999D01*
X189938727Y-63499999D02*
X189938727Y-63693523D01*
X189938727Y-63693523D02*
X189890346Y-63790285D01*
X189890346Y-63790285D02*
X189841965Y-63838666D01*
X189841965Y-63838666D02*
X189745203Y-63887047D01*
D14*
X191270000Y-54895000D02*
X191270000Y-56030000D01*
X191270000Y-54895000D02*
X192270000Y-54895000D01*
X193287114Y-55570000D02*
X193845000Y-55570000D01*
X193287114Y-56190000D02*
X193845000Y-56190000D01*
X193287114Y-57570000D02*
X193845000Y-57570000D01*
X193287114Y-58190000D02*
X193845000Y-58190000D01*
X193287114Y-59570000D02*
X193845000Y-59570000D01*
X193287114Y-60190000D02*
X193845000Y-60190000D01*
X193340000Y-61570000D02*
X193845000Y-61570000D01*
X193340000Y-62190000D02*
X193845000Y-62190000D01*
X193845000Y-54820000D02*
X195465000Y-54820000D01*
X193845000Y-62940000D02*
X193845000Y-54820000D01*
X195465000Y-54820000D02*
X195465000Y-62940000D01*
X195465000Y-56190000D02*
X197485000Y-56190000D01*
X195465000Y-58190000D02*
X197485000Y-58190000D01*
X195465000Y-60190000D02*
X197485000Y-60190000D01*
X195465000Y-62190000D02*
X197485000Y-62190000D01*
X195465000Y-62940000D02*
X193845000Y-62940000D01*
X197485000Y-55570000D02*
X195465000Y-55570000D01*
X197485000Y-56190000D02*
X197485000Y-55570000D01*
X197485000Y-57570000D02*
X195465000Y-57570000D01*
X197485000Y-58190000D02*
X197485000Y-57570000D01*
X197485000Y-59570000D02*
X195465000Y-59570000D01*
X197485000Y-60190000D02*
X197485000Y-59570000D01*
X197485000Y-61570000D02*
X195465000Y-61570000D01*
X197485000Y-62190000D02*
X197485000Y-61570000D01*
%LPC*%
D15*
X110490000Y-35941000D03*
D16*
X110490000Y-43561000D03*
D17*
X75184000Y-36700000D03*
D18*
X75184000Y-39240000D03*
D19*
X193040000Y-66040000D03*
D20*
X166720000Y-111252000D03*
D21*
X168720000Y-111252000D03*
X170720000Y-111252000D03*
D22*
X172720000Y-111252000D03*
D19*
X191135000Y-48895000D03*
X158750000Y-105410000D03*
X186817000Y-105410000D03*
X191135000Y-45085000D03*
X126111000Y-115062000D03*
D18*
X128651000Y-115062000D03*
D19*
X174625000Y-37719000D03*
D20*
X187325000Y-41275000D03*
D21*
X185325000Y-41275000D03*
X183325000Y-41275000D03*
D22*
X181325000Y-41275000D03*
D19*
X188849000Y-101854000D03*
D23*
X149860000Y-47044475D03*
X149860000Y-97844475D03*
X179070000Y-47044475D03*
X179070000Y-97844475D03*
D24*
X153035000Y-97844475D03*
D25*
X155575000Y-97844475D03*
X158115000Y-97844475D03*
X160655000Y-97844475D03*
X163195000Y-97844475D03*
X165735000Y-97844475D03*
X168275000Y-97844475D03*
X170815000Y-97844475D03*
X173355000Y-97844475D03*
X175895000Y-97844475D03*
D17*
X96139000Y-38227000D03*
D18*
X98679000Y-38227000D03*
D17*
X123190000Y-38735000D03*
D18*
X120650000Y-38735000D03*
X118110000Y-38735000D03*
X115570000Y-38735000D03*
X115570000Y-41275000D03*
X118110000Y-41275000D03*
X120650000Y-41275000D03*
X123190000Y-41275000D03*
D19*
X137668000Y-97790000D03*
D26*
X144000000Y-41000000D03*
X144000000Y-111000000D03*
X54000000Y-41000000D03*
D27*
X67310000Y-34798000D03*
X64770000Y-34798000D03*
D28*
X67310000Y-37338000D03*
D29*
X64770000Y-37338000D03*
D19*
X100330000Y-118110000D03*
D30*
X184095526Y-52698250D03*
D31*
X139645526Y-91433250D03*
D25*
X139645526Y-88893250D03*
X139645526Y-86353250D03*
X139645526Y-83813250D03*
X139645526Y-81273250D03*
X139645526Y-78733250D03*
X139645526Y-76193250D03*
X139645526Y-73653250D03*
X139645526Y-71113250D03*
X139645526Y-68573250D03*
X139645526Y-66033250D03*
X139645526Y-63493250D03*
X139645526Y-60953250D03*
X139645526Y-58413250D03*
X139645526Y-55873250D03*
X139645526Y-53333250D03*
D26*
X54000000Y-111000000D03*
D20*
X152750000Y-111252000D03*
D21*
X154750000Y-111252000D03*
X156750000Y-111252000D03*
D22*
X158750000Y-111252000D03*
D27*
X64770000Y-117475000D03*
X67310000Y-117475000D03*
D28*
X64770000Y-114935000D03*
D29*
X67310000Y-114935000D03*
D20*
X181960000Y-111252000D03*
D21*
X183960000Y-111252000D03*
X185960000Y-111252000D03*
D22*
X187960000Y-111252000D03*
D19*
X134112000Y-115062000D03*
D18*
X136652000Y-115062000D03*
D19*
X193040000Y-69215000D03*
X185420000Y-100076000D03*
X175260000Y-105410000D03*
X130170000Y-41000000D03*
D18*
X132710000Y-41000000D03*
D17*
X51430000Y-104140000D03*
D18*
X53970000Y-104140000D03*
D19*
X191008000Y-105664000D03*
D17*
X73025000Y-110490000D03*
D18*
X73025000Y-113030000D03*
X73025000Y-115570000D03*
D20*
X192405000Y-55880000D03*
D21*
X192405000Y-57880000D03*
X192405000Y-59880000D03*
D22*
X192405000Y-61880000D03*
%LPD*%
M02*
