G04 #@! TF.GenerationSoftware,KiCad,Pcbnew,9.0.5*
G04 #@! TF.CreationDate,2025-12-17T13:43:09-06:00*
G04 #@! TF.ProjectId,SensorBoard,53656e73-6f72-4426-9f61-72642e6b6963,v8.0.2*
G04 #@! TF.SameCoordinates,Original*
G04 #@! TF.FileFunction,Soldermask,Top*
G04 #@! TF.FilePolarity,Negative*
%FSLAX46Y46*%
G04 Gerber Fmt 4.6, Leading zero omitted, Abs format (unit mm)*
G04 Created by KiCad (PCBNEW 9.0.5) date 2025-12-17 13:43:09*
%MOMM*%
%LPD*%
G01*
G04 APERTURE LIST*
G04 Aperture macros list*
%AMRoundRect*
0 Rectangle with rounded corners*
0 $1 Rounding radius*
0 $2 $3 $4 $5 $6 $7 $8 $9 X,Y pos of 4 corners*
0 Add a 4 corners polygon primitive as box body*
4,1,4,$2,$3,$4,$5,$6,$7,$8,$9,$2,$3,0*
0 Add four circle primitives for the rounded corners*
1,1,$1+$1,$2,$3*
1,1,$1+$1,$4,$5*
1,1,$1+$1,$6,$7*
1,1,$1+$1,$8,$9*
0 Add four rect primitives between the rounded corners*
20,1,$1+$1,$2,$3,$4,$5,0*
20,1,$1+$1,$4,$5,$6,$7,0*
20,1,$1+$1,$6,$7,$8,$9,0*
20,1,$1+$1,$8,$9,$2,$3,0*%
G04 Aperture macros list end*
%ADD10RoundRect,0.250000X-0.475000X0.250000X-0.475000X-0.250000X0.475000X-0.250000X0.475000X0.250000X0*%
%ADD11RoundRect,0.200000X0.275000X-0.200000X0.275000X0.200000X-0.275000X0.200000X-0.275000X-0.200000X0*%
%ADD12C,1.400000*%
%ADD13O,1.400000X1.400000*%
%ADD14R,1.700000X1.700000*%
%ADD15O,1.700000X1.700000*%
%ADD16C,1.700000*%
%ADD17RoundRect,0.225000X0.225000X0.250000X-0.225000X0.250000X-0.225000X-0.250000X0.225000X-0.250000X0*%
%ADD18R,1.350000X1.350000*%
%ADD19O,1.350000X1.350000*%
%ADD20C,1.350000*%
%ADD21R,1.900000X0.609600*%
%ADD22R,2.844800X1.500000*%
%ADD23RoundRect,0.250000X0.250000X0.475000X-0.250000X0.475000X-0.250000X-0.475000X0.250000X-0.475000X0*%
%ADD24RoundRect,0.200000X-0.275000X0.200000X-0.275000X-0.200000X0.275000X-0.200000X0.275000X0.200000X0*%
%ADD25R,1.750000X0.950000*%
%ADD26R,1.750000X3.200000*%
%ADD27RoundRect,0.200000X-0.200000X-0.275000X0.200000X-0.275000X0.200000X0.275000X-0.200000X0.275000X0*%
%ADD28RoundRect,0.250000X-0.250000X-0.475000X0.250000X-0.475000X0.250000X0.475000X-0.250000X0.475000X0*%
%ADD29RoundRect,0.225000X0.250000X-0.225000X0.250000X0.225000X-0.250000X0.225000X-0.250000X-0.225000X0*%
%ADD30RoundRect,0.225000X-0.250000X0.225000X-0.250000X-0.225000X0.250000X-0.225000X0.250000X0.225000X0*%
%ADD31C,2.200000*%
%ADD32RoundRect,0.102000X0.889000X-0.889000X0.889000X0.889000X-0.889000X0.889000X-0.889000X-0.889000X0*%
%ADD33C,1.982000*%
%ADD34R,1.050000X0.500000*%
%ADD35C,4.318000*%
%ADD36RoundRect,0.250000X0.475000X-0.250000X0.475000X0.250000X-0.475000X0.250000X-0.475000X-0.250000X0*%
%ADD37C,1.100000*%
%ADD38R,1.650000X1.650000*%
%ADD39C,1.650000*%
%ADD40R,1.000000X3.150000*%
%ADD41C,3.810000*%
%ADD42RoundRect,0.102000X0.889000X0.889000X-0.889000X0.889000X-0.889000X-0.889000X0.889000X-0.889000X0*%
%ADD43R,1.528000X0.650000*%
%ADD44R,0.650000X1.525000*%
%ADD45R,0.800000X0.800000*%
%ADD46RoundRect,0.225000X-0.225000X-0.250000X0.225000X-0.250000X0.225000X0.250000X-0.225000X0.250000X0*%
G04 APERTURE END LIST*
D10*
X97790000Y-108905000D03*
X97790000Y-110805000D03*
D11*
X74422000Y-68135000D03*
X74422000Y-66485000D03*
D12*
X110490000Y-35941000D03*
D13*
X110490000Y-43561000D03*
D14*
X75184000Y-36700000D03*
D15*
X75184000Y-39240000D03*
D16*
X193040000Y-66040000D03*
D17*
X85865000Y-43307000D03*
X84315000Y-43307000D03*
D18*
X166720000Y-111252000D03*
D19*
X168720000Y-111252000D03*
X170720000Y-111252000D03*
D20*
X172720000Y-111252000D03*
D16*
X191135000Y-48895000D03*
X158750000Y-105410000D03*
D21*
X194284999Y-115414999D03*
X194284999Y-114164999D03*
X194284999Y-112914999D03*
X194284999Y-111664999D03*
X194284999Y-110414999D03*
X194284999Y-109164999D03*
D22*
X197485000Y-117989999D03*
X197485000Y-106589999D03*
D23*
X169225000Y-106680000D03*
X167325000Y-106680000D03*
D24*
X69850000Y-66485000D03*
X69850000Y-68135000D03*
X60960000Y-66485000D03*
X60960000Y-68135000D03*
D16*
X186817000Y-105410000D03*
D25*
X104013000Y-110744000D03*
X104013000Y-113044000D03*
X104013000Y-115344000D03*
D26*
X110313000Y-113044000D03*
D16*
X191135000Y-45085000D03*
X126111000Y-115062000D03*
D15*
X128651000Y-115062000D03*
D24*
X56388000Y-82360000D03*
X56388000Y-84010000D03*
D27*
X87504000Y-117221000D03*
X89154000Y-117221000D03*
D28*
X185679000Y-46101000D03*
X187579000Y-46101000D03*
D16*
X174625000Y-37719000D03*
D29*
X58674000Y-83960000D03*
X58674000Y-82410000D03*
D18*
X187325000Y-41275000D03*
D19*
X185325000Y-41275000D03*
X183325000Y-41275000D03*
D20*
X181325000Y-41275000D03*
D21*
X194339300Y-46305000D03*
X194339300Y-45055000D03*
X194339300Y-43805000D03*
X194339300Y-42555000D03*
X194339300Y-41305000D03*
X194339300Y-40055000D03*
D22*
X197539301Y-48880000D03*
X197539301Y-37480000D03*
D24*
X74422000Y-82360000D03*
X74422000Y-84010000D03*
D30*
X72136000Y-82410000D03*
X72136000Y-83960000D03*
D16*
X188849000Y-101854000D03*
D31*
X149860000Y-47044475D03*
X149860000Y-97844475D03*
X179070000Y-47044475D03*
X179070000Y-97844475D03*
D32*
X153035000Y-97844475D03*
D33*
X155575000Y-97844475D03*
X158115000Y-97844475D03*
X160655000Y-97844475D03*
X163195000Y-97844475D03*
X165735000Y-97844475D03*
X168275000Y-97844475D03*
X170815000Y-97844475D03*
X173355000Y-97844475D03*
X175895000Y-97844475D03*
D34*
X82291000Y-116205000D03*
X80015000Y-116205000D03*
D14*
X96139000Y-38227000D03*
D15*
X98679000Y-38227000D03*
D14*
X123190000Y-38735000D03*
D15*
X120650000Y-38735000D03*
X118110000Y-38735000D03*
X115570000Y-38735000D03*
X115570000Y-41275000D03*
X118110000Y-41275000D03*
X120650000Y-41275000D03*
X123190000Y-41275000D03*
D30*
X67564000Y-82410000D03*
X67564000Y-83960000D03*
X65405000Y-80391000D03*
X65405000Y-81941000D03*
D16*
X137668000Y-97790000D03*
D30*
X63246000Y-82410000D03*
X63246000Y-83960000D03*
D35*
X144000000Y-41000000D03*
X144000000Y-111000000D03*
X54000000Y-41000000D03*
D36*
X97790000Y-116200000D03*
X97790000Y-114300000D03*
D37*
X67310000Y-34798000D03*
X64770000Y-34798000D03*
D38*
X67310000Y-37338000D03*
D39*
X64770000Y-37338000D03*
D40*
X81280000Y-100300000D03*
X81280000Y-95250000D03*
X83820000Y-100300000D03*
X83820000Y-95250000D03*
X86360000Y-100300000D03*
X86360000Y-95250000D03*
X88900000Y-100300000D03*
X88900000Y-95250000D03*
X91440000Y-100300000D03*
X91440000Y-95250000D03*
X93980000Y-100300000D03*
X93980000Y-95250000D03*
X96520000Y-100300000D03*
X96520000Y-95250000D03*
X99060000Y-100300000D03*
X99060000Y-95250000D03*
X101600000Y-100300000D03*
X101600000Y-95250000D03*
X104140000Y-100300000D03*
X104140000Y-95250000D03*
D16*
X100330000Y-118110000D03*
D41*
X184095526Y-52698250D03*
D42*
X139645526Y-91433250D03*
D33*
X139645526Y-88893250D03*
X139645526Y-86353250D03*
X139645526Y-83813250D03*
X139645526Y-81273250D03*
X139645526Y-78733250D03*
X139645526Y-76193250D03*
X139645526Y-73653250D03*
X139645526Y-71113250D03*
X139645526Y-68573250D03*
X139645526Y-66033250D03*
X139645526Y-63493250D03*
X139645526Y-60953250D03*
X139645526Y-58413250D03*
X139645526Y-55873250D03*
X139645526Y-53333250D03*
D30*
X58674000Y-66535000D03*
X58674000Y-68085000D03*
D29*
X72136000Y-68085000D03*
X72136000Y-66535000D03*
D35*
X54000000Y-111000000D03*
D27*
X74042000Y-43053000D03*
X75692000Y-43053000D03*
D18*
X152750000Y-111252000D03*
D19*
X154750000Y-111252000D03*
X156750000Y-111252000D03*
D20*
X158750000Y-111252000D03*
D37*
X64770000Y-117475000D03*
X67310000Y-117475000D03*
D38*
X64770000Y-114935000D03*
D39*
X67310000Y-114935000D03*
D18*
X181960000Y-111252000D03*
D19*
X183960000Y-111252000D03*
X185960000Y-111252000D03*
D20*
X187960000Y-111252000D03*
D29*
X67564000Y-68085000D03*
X67564000Y-66535000D03*
D11*
X60960000Y-84010000D03*
X60960000Y-82360000D03*
D43*
X87083000Y-39624000D03*
X87083000Y-38354000D03*
X87083000Y-37084000D03*
X87083000Y-35814000D03*
X81661000Y-35814000D03*
X81661000Y-37084000D03*
X81661000Y-38354000D03*
X81661000Y-39624000D03*
D27*
X115444000Y-115062000D03*
X117094000Y-115062000D03*
D11*
X69850000Y-84010000D03*
X69850000Y-82360000D03*
D16*
X134112000Y-115062000D03*
D15*
X136652000Y-115062000D03*
D11*
X56388000Y-68135000D03*
X56388000Y-66485000D03*
D21*
X194339300Y-97740000D03*
X194339300Y-96490000D03*
X194339300Y-95240000D03*
X194339300Y-93990000D03*
X194339300Y-92740000D03*
X194339300Y-91490000D03*
D22*
X197539301Y-100315000D03*
X197539301Y-88915000D03*
D40*
X81280000Y-57120000D03*
X81280000Y-52070000D03*
X83820000Y-57120000D03*
X83820000Y-52070000D03*
X86360000Y-57120000D03*
X86360000Y-52070000D03*
X88900000Y-57120000D03*
X88900000Y-52070000D03*
X91440000Y-57120000D03*
X91440000Y-52070000D03*
X93980000Y-57120000D03*
X93980000Y-52070000D03*
X96520000Y-57120000D03*
X96520000Y-52070000D03*
X99060000Y-57120000D03*
X99060000Y-52070000D03*
X101600000Y-57120000D03*
X101600000Y-52070000D03*
X104140000Y-57120000D03*
X104140000Y-52070000D03*
D16*
X193040000Y-69215000D03*
X185420000Y-100076000D03*
X175260000Y-105410000D03*
X130170000Y-41000000D03*
D15*
X132710000Y-41000000D03*
D44*
X61468000Y-77814000D03*
X62738000Y-77814000D03*
X64008000Y-77814000D03*
X65278000Y-77814000D03*
X66548000Y-77814000D03*
X67818000Y-77814000D03*
X69088000Y-77814000D03*
X69088000Y-72390000D03*
X67818000Y-72390000D03*
X66548000Y-72390000D03*
X65278000Y-72390000D03*
X64008000Y-72390000D03*
X62738000Y-72390000D03*
X61468000Y-72390000D03*
D14*
X51430000Y-104140000D03*
D15*
X53970000Y-104140000D03*
D29*
X63246000Y-68085000D03*
X63246000Y-66535000D03*
D45*
X92710000Y-117221000D03*
X91060000Y-117221000D03*
D16*
X191008000Y-105664000D03*
D34*
X82291000Y-110490000D03*
X80015000Y-110490000D03*
D23*
X154940000Y-106680000D03*
X153040000Y-106680000D03*
X183830000Y-106680000D03*
X181930000Y-106680000D03*
D46*
X83794000Y-33909000D03*
X85344000Y-33909000D03*
D14*
X73025000Y-110490000D03*
D15*
X73025000Y-113030000D03*
X73025000Y-115570000D03*
D45*
X121030000Y-115062000D03*
X119380000Y-115062000D03*
D18*
X192405000Y-55880000D03*
D19*
X192405000Y-57880000D03*
X192405000Y-59880000D03*
D20*
X192405000Y-61880000D03*
M02*
